<?xml version="1.0" encoding="UTF-8"?>
<svg width="256px" height="256px" viewBox="0 0 256 256" version="1.1" xmlns="http://www.w3.org/2000/svg" xmlns:xlink="http://www.w3.org/1999/xlink">
    <title>logo_USDx_256x256</title>
    <g id="logo_USDx_256x256" stroke="none" stroke-width="1" fill="none" fill-rule="evenodd">
        <path d="M138.908496,38 C183.141448,38 219,78.2947824 219,128 C219,177.706072 183.141448,218 138.908496,218 L138.908496,218 L133.392498,218 L133.392498,174.382078 C133.832896,174.376095 134.266448,174.372676 134.715973,174.363274 C161.38018,173.812836 166.039723,152.776539 164.281176,138.16515 C162.575975,123.98858 159.2915,121.411743 154.0593,118.53213 L153.691098,118.330586 C148.244316,115.363863 131.835514,111.017626 128.979395,110.397102 C126.123277,109.775722 123.492301,105.531197 130.30363,105.438033 C133.604224,105.39281 138.630747,105.184591 143.654162,104.940184 L144.875091,104.880087 C153.001918,104.475587 160.75191,104.002963 160.75191,104.002963 L160.75191,104.002963 L161.193069,79.5683109 C154.389345,78.6811146 143.898147,79.4913864 133.392498,79.214458 L133.392498,79.214458 L133.392498,38 Z M114.630807,38 L114.630807,79.3024939 C100.049205,80.045243 87.0846041,85.181238 84.7673665,98.3592661 C80.2693436,123.933256 88.5022371,131.771867 95.6696588,135.686471 C98.6376466,137.307317 104.025429,138.94634 109.319683,140.310489 L110.093493,140.508124 C117.304038,142.333771 124.11138,143.619955 124.11138,143.619955 C124.11138,143.619955 127.420553,146.713176 121.267127,147.587552 C118.013565,148.159007 112.235699,148.368314 106.246928,148.40523 L105.274292,148.409735 L105.274292,148.409735 L104.300151,148.411398 C103.81307,148.411549 103.326246,148.410701 102.840914,148.408956 L101.872601,148.4043 C93.1822533,148.352165 85.2412726,148.03115 85.2412726,148.03115 L85.2412726,148.03115 L84.2926433,172.823928 C84.2926433,172.823928 93.4782515,173.642747 114.630807,174.311136 L114.630807,174.311136 L114.630807,218 L60.3415908,218 C51.3169473,218 44,210.346863 44,200.905658 L44,200.905658 L44,55.0943418 C44,45.6539915 51.3169473,38 60.3415908,38 L60.3415908,38 L114.630807,38 Z" id="形状结合" fill="#100E28"></path>
    </g>
</svg>