<?xml version="1.0" encoding="UTF-8"?>
<svg width="256px" height="256px" viewBox="0 0 256 256" version="1.1" xmlns="http://www.w3.org/2000/svg" xmlns:xlink="http://www.w3.org/1999/xlink">
    <title>logo_GOLDx_256x256</title>
    <g id="logo_GOLDx_256x256" stroke="none" stroke-width="1" fill="none" fill-rule="evenodd">
        <g id="编组" transform="translate(48.000000, 39.000000)" fill-rule="nonzero">
            <path d="M86.0834648,128.428571 L22.7635316,128.428571 C10.1974103,128.414307 0.014063943,118.085744 0,105.340428 L0,12.881444 C0,6.00391239 5.49695347,0.428571429 12.2777892,0.428571429 C19.058625,0.428571429 24.5555784,6.00391239 24.5555784,12.881444 L24.5555784,103.537206 L86.0863003,103.537206 C93.46457,103.537206 99.4458393,97.4706428 99.4458393,89.9871577 C99.4458393,82.5036727 93.46457,76.4371094 86.0863003,76.4371094 L51.3058471,76.4371094 C44.5250114,76.4371094 39.0280579,70.8617684 39.0280579,63.9842368 C39.0280579,57.1067052 44.5250114,51.5313642 51.3058471,51.5313642 L86.0834648,51.5313642 C106.989733,51.5313642 124,68.7870768 124,89.9885957 C124,111.190115 106.989733,128.428571 86.0834648,128.428571 Z" id="路径" fill="#FFBB3B"></path>
            <path d="M81.0087511,178.428571 L11.7244883,178.428571 C5.25819271,178.428571 0.0162246208,172.873644 0.0162246208,166.021295 C0.0162246208,159.168946 5.25819271,153.614019 11.7244883,153.614019 L81.0087511,153.614019 C114.4084,153.614019 141.578063,124.819396 141.578063,89.4285714 C141.578063,54.0377472 114.405696,25.2431239 81.0087511,25.2431239 L11.7082644,25.2431239 C5.24196851,25.2431239 0,19.6881971 0,12.8358477 C0,5.98349821 5.24196851,0.428571429 11.7082644,0.428571429 L81.0087511,0.428571429 C127.319939,0.428571429 165,40.3553583 165,89.4343023 C165,138.513246 127.319939,178.428571 81.0087511,178.428571 Z" id="路径" fill="#FA9B00"></path>
        </g>
    </g>
</svg>