<svg id="图层_1" data-name="图层 1" xmlns="http://www.w3.org/2000/svg" xmlns:xlink="http://www.w3.org/1999/xlink" viewBox="0 0 1000 1000"><defs><style>.cls-1{fill:none;clip-rule:evenodd;}.cls-2{fill:#fa9a00;}.cls-2,.cls-3,.cls-4{fill-rule:evenodd;}.cls-3{fill:#242a47;}.cls-4{fill:#fa9b00;}.cls-5{clip-path:url(#clip-path);}.cls-6{clip-path:url(#clip-path-2);}.cls-7{clip-path:url(#clip-path-3);}.cls-8{clip-path:url(#clip-path-4);}.cls-9{clip-path:url(#clip-path-5);}.cls-10{clip-path:url(#clip-path-6);}.cls-11{clip-path:url(#clip-path-7);}.cls-12{clip-path:url(#clip-path-8);}</style><clipPath id="clip-path"><path class="cls-1" d="M-1186.11-1674.85a8.76,8.76,0,0,1-3.53-.71,8.49,8.49,0,0,1-2.79-2,8.94,8.94,0,0,1-1.84-2.92,9.56,9.56,0,0,1-.66-3.54,9.56,9.56,0,0,1,.66-3.57,8.83,8.83,0,0,1,1.84-2.92,8.49,8.49,0,0,1,2.79-2,8.6,8.6,0,0,1,3.53-.72,8,8,0,0,1,3,.53,9.07,9.07,0,0,1,2.15,1.18v-8.12h4.33v24.26H-1181V-1684a4.62,4.62,0,0,0-1.41-3.42,4.66,4.66,0,0,0-3.39-1.41,4.71,4.71,0,0,0-3.42,1.41,4.69,4.69,0,0,0-1.4,3.42,4.63,4.63,0,0,0,1.4,3.38,4.33,4.33,0,0,0,1.56,1.06,5.12,5.12,0,0,0,1.86.35,4.72,4.72,0,0,0,1.58-.26l.31-.11,1.55,3.87-.29.13a8.27,8.27,0,0,1-3.49.71"/></clipPath><clipPath id="clip-path-2"><polygon class="cls-1" points="-1172.74 -1675.3 -1172.74 -1699.53 -1156.37 -1699.53 -1156.37 -1695.19 -1168.4 -1695.19 -1168.4 -1689.58 -1159.48 -1689.58 -1158.39 -1685.24 -1168.4 -1685.24 -1168.4 -1675.3 -1172.74 -1675.3"/></clipPath><clipPath id="clip-path-3"><path class="cls-1" d="M-1147.08-1674.85a9.11,9.11,0,0,1-3.58-.71,9.26,9.26,0,0,1-2.92-2,9.15,9.15,0,0,1-2-2.92,9,9,0,0,1-.71-3.54,9.11,9.11,0,0,1,.71-3.58,9.21,9.21,0,0,1,2-2.91,9.15,9.15,0,0,1,2.92-2,8.94,8.94,0,0,1,3.58-.72,8.9,8.9,0,0,1,3.57.72,9.15,9.15,0,0,1,2.92,2,9.21,9.21,0,0,1,2,2.91,9.11,9.11,0,0,1,.71,3.58,9,9,0,0,1-.71,3.54,9.15,9.15,0,0,1-2,2.92,9.15,9.15,0,0,1-2.92,2,9.06,9.06,0,0,1-3.57.71m0-14a4.68,4.68,0,0,0-3.42,1.41,4.66,4.66,0,0,0-1.41,3.42,4.6,4.6,0,0,0,1.41,3.38,4.29,4.29,0,0,0,1.55,1.06,5.13,5.13,0,0,0,1.87.35,5,5,0,0,0,1.84-.35,4.68,4.68,0,0,0,1.58-1.06,4.63,4.63,0,0,0,1.4-3.38,4.67,4.67,0,0,0-1.4-3.42,4.85,4.85,0,0,0-3.42-1.41"/></clipPath><clipPath id="clip-path-4"><path class="cls-1" d="M-1135-1675.3v-17.4h4.33v1.22a9.22,9.22,0,0,1,2-1.18,7.17,7.17,0,0,1,2.57-.52h.34v4.34h-.32a4.67,4.67,0,0,0-3.21,1.41,4.83,4.83,0,0,0-1.41,3.42v8.71Z"/></clipPath><clipPath id="clip-path-5"><path class="cls-1" d="M-1112.1-1673.59a9.06,9.06,0,0,1-3.57-.71,9.15,9.15,0,0,1-2.92-2,9.15,9.15,0,0,1-2-2.92,9,9,0,0,1-.71-3.54,9,9,0,0,1,.71-3.57,9.15,9.15,0,0,1,2-2.92,9.15,9.15,0,0,1,2.92-2,9.06,9.06,0,0,1,3.57-.71,9.11,9.11,0,0,1,3.58.71,9.1,9.1,0,0,1,2.75,1.8l.25.23-3.07,3.08-.24-.22a4.64,4.64,0,0,0-3.27-1.27,4.85,4.85,0,0,0-3.42,1.41,4.69,4.69,0,0,0-1.4,3.42,4.67,4.67,0,0,0,1.4,3.39,4.8,4.8,0,0,0,1.58,1,5,5,0,0,0,1.84.35,4.62,4.62,0,0,0,3.27-1.25l.24-.23,3.07,3.07-.25.24a9.29,9.29,0,0,1-2.75,1.8,9.11,9.11,0,0,1-3.58.71"/></clipPath><clipPath id="clip-path-6"><path class="cls-1" d="M-1094.57-1673.59a9.11,9.11,0,0,1-3.58-.71,9.21,9.21,0,0,1-2.91-2,9.34,9.34,0,0,1-2-2.92,9,9,0,0,1-.71-3.54,9,9,0,0,1,.71-3.57,9.34,9.34,0,0,1,2-2.92,9.1,9.1,0,0,1,2.91-2,9.11,9.11,0,0,1,3.58-.71,9.06,9.06,0,0,1,3.57.71,9.15,9.15,0,0,1,2.92,2,9.21,9.21,0,0,1,2,2.91,9.15,9.15,0,0,1,.71,3.58,8.41,8.41,0,0,1-.2,1.91l-.06.26h-13.22a4.07,4.07,0,0,0,.9,1.21,4.74,4.74,0,0,0,1.57,1.06,4.8,4.8,0,0,0,1.85.35,4.71,4.71,0,0,0,2.35-.58l.14-.08,4.5,1.8-.33.36a9,9,0,0,1-2.81,2A9.16,9.16,0,0,1-1094.57-1673.59Zm4.32-11.3a4.66,4.66,0,0,0-.9-1.25,4.71,4.71,0,0,0-3.42-1.41,4.85,4.85,0,0,0-3.42,1.41,4.66,4.66,0,0,0-.9,1.25Z"/></clipPath><clipPath id="clip-path-7"><path class="cls-1" d="M-1235.36-1675v-21.89h14.16a9.94,9.94,0,0,1,9.71,10.14,9.94,9.94,0,0,1-9.71,10.14h-1.7V-1681h1.7a5.71,5.71,0,0,0,5.56-5.83,5.7,5.7,0,0,0-5.56-5.83h-10V-1675Z"/></clipPath><clipPath id="clip-path-8"><path class="cls-1" d="M-1229-1669.52V-1690h4.14v16.2h4.86c6.71,0,12.18-5.72,12.18-12.75s-5.47-12.75-12.18-12.75h-9.89v-4.31h9.89c9,0,16.33,7.65,16.33,17.06s-7.33,17-16.33,17Z"/></clipPath></defs><title>dForce - 竖版</title><path class="cls-2" d="M239.63,718.37a47.28,47.28,0,0,1-19.17-3.87,46.56,46.56,0,0,1-15.21-10.68,49.49,49.49,0,0,1-10-15.86,52,52,0,0,1-3.58-19.24,52.55,52.55,0,0,1,3.58-19.44,49.43,49.43,0,0,1,10-15.86,46.57,46.57,0,0,1,15.21-10.67,47.28,47.28,0,0,1,19.17-3.88,44.25,44.25,0,0,1,16.26,2.84,50.54,50.54,0,0,1,11.67,6.42V584h23.59V716H267.56V668.72a26.14,26.14,0,0,0-26.06-26.25,26.16,26.16,0,0,0-18.59,44.65,23.51,23.51,0,0,0,8.46,5.74,27.39,27.39,0,0,0,10.13,1.92,25.63,25.63,0,0,0,8.59-1.41l1.65-.59,8.45,21-1.58.73a45.09,45.09,0,0,1-19,3.84"/><polygon class="cls-3" points="312.32 718.37 312.32 586.61 401.37 586.61 401.37 610.2 335.91 610.2 335.91 640.69 384.45 640.69 390.35 664.29 335.91 664.29 335.91 718.37 312.32 718.37"/><path class="cls-3" d="M451.86,718.37a49.21,49.21,0,0,1-19.44-3.87A49.81,49.81,0,0,1,405.89,688a50.33,50.33,0,0,1,0-38.71,49.78,49.78,0,0,1,26.53-26.53,50.73,50.73,0,0,1,38.89,0,49.72,49.72,0,0,1,26.53,26.52,49.4,49.4,0,0,1,3.87,19.45A48.77,48.77,0,0,1,497.83,688a49.75,49.75,0,0,1-26.52,26.52,49.22,49.22,0,0,1-19.45,3.87m0-75.9a26.16,26.16,0,0,0-18.59,44.65,23.55,23.55,0,0,0,8.47,5.74,27.33,27.33,0,0,0,10.12,1.92,26.64,26.64,0,0,0,10-1.92,25.69,25.69,0,0,0,8.57-5.74,26.19,26.19,0,0,0,0-37,26.25,26.25,0,0,0-18.6-7.65"/><path class="cls-3" d="M517.28,718.37V623.72h23.59v6.62a48.85,48.85,0,0,1,11-6.38,38.18,38.18,0,0,1,14-2.83l9.87,0v23.58l-9.76.07a25.25,25.25,0,0,0-17.44,7.63A26.25,26.25,0,0,0,540.87,671v47.42Z"/><path class="cls-3" d="M635.13,718.37a49.22,49.22,0,0,1-19.45-3.87A49.75,49.75,0,0,1,589.16,688a50.21,50.21,0,0,1,0-38.71,49.72,49.72,0,0,1,26.52-26.53,50.73,50.73,0,0,1,38.89,0,50,50,0,0,1,15,9.78l1.35,1.29-16.7,16.7-1.28-1.19a25.39,25.39,0,0,0-17.77-6.86,26.23,26.23,0,0,0-18.6,7.66,26.18,26.18,0,0,0,0,37,25.73,25.73,0,0,0,8.57,5.74,26.64,26.64,0,0,0,10,1.92,25,25,0,0,0,17.76-6.84l1.29-1.22,16.7,16.71-1.35,1.28a50.25,50.25,0,0,1-15,9.79,49.21,49.21,0,0,1-19.44,3.87"/><path class="cls-3" d="M730.42,718.37A49.21,49.21,0,0,1,711,714.5,49.81,49.81,0,0,1,684.45,688a50.33,50.33,0,0,1,0-38.71A49.78,49.78,0,0,1,711,622.74a50.79,50.79,0,0,1,38.89,0,49.78,49.78,0,0,1,26.53,26.53,49.4,49.4,0,0,1,3.87,19.45,47.44,47.44,0,0,1-1.1,10.37l-.32,1.42H706.94a22.8,22.8,0,0,0,4.88,6.6,25.67,25.67,0,0,0,8.57,5.75,26.68,26.68,0,0,0,10,1.92,25.79,25.79,0,0,0,12.82-3.18l.76-.43,24.43,9.77-1.8,1.95a47.68,47.68,0,0,1-15.25,11A49.68,49.68,0,0,1,730.42,718.37Zm23.49-61.45a26.08,26.08,0,0,0-23.49-14.45,26.27,26.27,0,0,0-18.6,7.66,25.18,25.18,0,0,0-4.88,6.79Z"/><path class="cls-4" d="M369.92,481V304.08H484.36c43.28,0,78.48,36.74,78.48,81.91s-35.2,81.91-78.48,81.91H470.62V433.11h13.74c24.79,0,45-21.14,45-47.12s-20.18-47.13-45-47.13H403.44V481Z"/><path class="cls-3" d="M421.31,525.57V359.87h33.52V490.78H494c54.29,0,98.45-46.21,98.45-103s-44.16-103-98.45-103H414.15V249.94H494c72.77,0,132,61.82,132,137.81S566.8,525.57,494,525.57Z"/></svg>