<svg id="图层_1" data-name="图层 1" xmlns="http://www.w3.org/2000/svg" xmlns:xlink="http://www.w3.org/1999/xlink" viewBox="0 0 1000 1000"><defs><style>.cls-1{fill:none;clip-rule:evenodd;}.cls-2{fill:#fa9a00;}.cls-2,.cls-3,.cls-4{fill-rule:evenodd;}.cls-3{fill:#242a47;}.cls-4{fill:#fa9b00;}.cls-5{clip-path:url(#clip-path);}.cls-6{clip-path:url(#clip-path-2);}.cls-7{clip-path:url(#clip-path-3);}.cls-8{clip-path:url(#clip-path-4);}.cls-9{clip-path:url(#clip-path-5);}.cls-10{clip-path:url(#clip-path-6);}.cls-11{clip-path:url(#clip-path-7);}.cls-12{clip-path:url(#clip-path-8);}</style><clipPath id="clip-path"><path class="cls-1" d="M-115.11-1674.85a8.76,8.76,0,0,1-3.53-.71,8.49,8.49,0,0,1-2.79-2,8.94,8.94,0,0,1-1.84-2.92,9.56,9.56,0,0,1-.66-3.54,9.56,9.56,0,0,1,.66-3.57,8.83,8.83,0,0,1,1.84-2.92,8.49,8.49,0,0,1,2.79-2,8.6,8.6,0,0,1,3.53-.72,8,8,0,0,1,3,.53,9.07,9.07,0,0,1,2.15,1.18v-8.12h4.33v24.26H-110V-1684a4.62,4.62,0,0,0-1.41-3.42,4.66,4.66,0,0,0-3.39-1.41,4.71,4.71,0,0,0-3.42,1.41,4.69,4.69,0,0,0-1.4,3.42,4.63,4.63,0,0,0,1.4,3.38,4.33,4.33,0,0,0,1.56,1.06,5.12,5.12,0,0,0,1.86.35,4.72,4.72,0,0,0,1.58-.26l.31-.11,1.55,3.87-.29.13a8.27,8.27,0,0,1-3.49.71"/></clipPath><clipPath id="clip-path-2"><polygon class="cls-1" points="-101.74 -1675.3 -101.74 -1699.53 -85.37 -1699.53 -85.37 -1695.19 -97.41 -1695.19 -97.41 -1689.58 -88.48 -1689.58 -87.39 -1685.24 -97.41 -1685.24 -97.41 -1675.3 -101.74 -1675.3"/></clipPath><clipPath id="clip-path-3"><path class="cls-1" d="M-76.08-1674.85a9.11,9.11,0,0,1-3.58-.71,9.26,9.26,0,0,1-2.92-2,9.15,9.15,0,0,1-2-2.92,9,9,0,0,1-.71-3.54,9.11,9.11,0,0,1,.71-3.58,9.21,9.21,0,0,1,2-2.91,9.15,9.15,0,0,1,2.92-2,8.94,8.94,0,0,1,3.58-.72,8.9,8.9,0,0,1,3.57.72,9.15,9.15,0,0,1,2.92,2,9.21,9.21,0,0,1,2,2.91,9.11,9.11,0,0,1,.71,3.58,9,9,0,0,1-.71,3.54,9.15,9.15,0,0,1-2,2.92,9.15,9.15,0,0,1-2.92,2,9.06,9.06,0,0,1-3.57.71m0-14a4.68,4.68,0,0,0-3.42,1.41,4.66,4.66,0,0,0-1.41,3.42,4.6,4.6,0,0,0,1.41,3.38,4.29,4.29,0,0,0,1.55,1.06,5.13,5.13,0,0,0,1.87.35,5,5,0,0,0,1.84-.35,4.68,4.68,0,0,0,1.58-1.06,4.63,4.63,0,0,0,1.4-3.38,4.67,4.67,0,0,0-1.4-3.42,4.85,4.85,0,0,0-3.42-1.41"/></clipPath><clipPath id="clip-path-4"><path class="cls-1" d="M-64-1675.3v-17.4h4.33v1.22a9.22,9.22,0,0,1,2-1.18,7.17,7.17,0,0,1,2.57-.52h.34v4.34h-.32a4.67,4.67,0,0,0-3.21,1.41,4.83,4.83,0,0,0-1.41,3.42v8.71Z"/></clipPath><clipPath id="clip-path-5"><path class="cls-1" d="M-41.1-1673.59a9.06,9.06,0,0,1-3.57-.71,9.15,9.15,0,0,1-2.92-2,9.15,9.15,0,0,1-2-2.92,9,9,0,0,1-.71-3.54,9,9,0,0,1,.71-3.57,9.15,9.15,0,0,1,2-2.92,9.15,9.15,0,0,1,2.92-2,9.06,9.06,0,0,1,3.57-.71,9.11,9.11,0,0,1,3.58.71,9.1,9.1,0,0,1,2.75,1.8l.25.23-3.07,3.08-.24-.22a4.64,4.64,0,0,0-3.27-1.27,4.85,4.85,0,0,0-3.42,1.41,4.69,4.69,0,0,0-1.4,3.42,4.67,4.67,0,0,0,1.4,3.39,4.8,4.8,0,0,0,1.58,1,5,5,0,0,0,1.84.35,4.62,4.62,0,0,0,3.27-1.25l.24-.23,3.07,3.07-.25.24a9.29,9.29,0,0,1-2.75,1.8,9.11,9.11,0,0,1-3.58.71"/></clipPath><clipPath id="clip-path-6"><path class="cls-1" d="M-23.57-1673.59a9.11,9.11,0,0,1-3.58-.71,9.21,9.21,0,0,1-2.91-2,9.34,9.34,0,0,1-2-2.92,9,9,0,0,1-.71-3.54,9,9,0,0,1,.71-3.57,9.34,9.34,0,0,1,2-2.92,9.1,9.1,0,0,1,2.91-2,9.11,9.11,0,0,1,3.58-.71,9.06,9.06,0,0,1,3.57.71,9.15,9.15,0,0,1,2.92,2,9.21,9.21,0,0,1,2,2.91,9.15,9.15,0,0,1,.71,3.58,8.41,8.41,0,0,1-.2,1.91l-.06.26H-27.89a4.07,4.07,0,0,0,.9,1.21,4.74,4.74,0,0,0,1.57,1.06,4.8,4.8,0,0,0,1.85.35,4.71,4.71,0,0,0,2.35-.58l.14-.08,4.5,1.8-.33.36a9,9,0,0,1-2.81,2A9.16,9.16,0,0,1-23.57-1673.59Zm4.32-11.3a4.66,4.66,0,0,0-.9-1.25,4.71,4.71,0,0,0-3.42-1.41,4.85,4.85,0,0,0-3.42,1.41,4.66,4.66,0,0,0-.9,1.25Z"/></clipPath><clipPath id="clip-path-7"><path class="cls-1" d="M-164.36-1675v-21.89h14.16a9.94,9.94,0,0,1,9.71,10.14,9.94,9.94,0,0,1-9.71,10.14h-1.7V-1681h1.7a5.71,5.71,0,0,0,5.56-5.83,5.7,5.7,0,0,0-5.56-5.83h-10V-1675Z"/></clipPath><clipPath id="clip-path-8"><path class="cls-1" d="M-158-1669.52V-1690h4.14v16.2H-149c6.71,0,12.18-5.72,12.18-12.75s-5.47-12.75-12.18-12.75h-9.89v-4.31H-149c9,0,16.33,7.65,16.33,17.06s-7.33,17-16.33,17Z"/></clipPath></defs><title>dForce - 横版</title><path class="cls-2" d="M359.63,563.51a47.28,47.28,0,0,1-19.17-3.87A46.56,46.56,0,0,1,325.25,549a49.49,49.49,0,0,1-10-15.86,54,54,0,0,1,0-38.68,49.43,49.43,0,0,1,10-15.86,46.57,46.57,0,0,1,15.21-10.67A47.12,47.12,0,0,1,359.63,464a44.25,44.25,0,0,1,16.26,2.84,50.54,50.54,0,0,1,11.67,6.42V429.14h23.59v132H387.56V513.85a26.14,26.14,0,0,0-26.06-26.24,26.16,26.16,0,0,0-18.59,44.65,23.64,23.64,0,0,0,8.46,5.74,27.39,27.39,0,0,0,10.13,1.92,25.63,25.63,0,0,0,8.59-1.41l1.65-.59,8.45,21-1.58.73a45.09,45.09,0,0,1-19,3.84"/><polygon class="cls-3" points="432.32 563.51 432.32 431.75 521.37 431.75 521.37 455.34 455.91 455.34 455.91 485.83 504.45 485.83 510.35 509.43 455.91 509.43 455.91 563.51 432.32 563.51"/><path class="cls-3" d="M571.86,563.51a49.21,49.21,0,0,1-19.44-3.87,49.81,49.81,0,0,1-26.53-26.52,50.33,50.33,0,0,1,0-38.71,49.78,49.78,0,0,1,26.53-26.53,50.79,50.79,0,0,1,38.89,0,49.78,49.78,0,0,1,26.53,26.53,49.39,49.39,0,0,1,3.87,19.44,48.78,48.78,0,0,1-3.88,19.27,49.75,49.75,0,0,1-26.52,26.52,49.22,49.22,0,0,1-19.45,3.87m0-75.9a26.16,26.16,0,0,0-18.59,44.65,23.67,23.67,0,0,0,8.47,5.74,27.33,27.33,0,0,0,10.12,1.92,26.64,26.64,0,0,0,10-1.92,25.69,25.69,0,0,0,8.57-5.74,26.19,26.19,0,0,0,0-37,26.25,26.25,0,0,0-18.6-7.65"/><path class="cls-3" d="M637.28,563.51V460.86h23.59v6.62a48.85,48.85,0,0,1,11-6.38,38.18,38.18,0,0,1,14-2.83l9.87,0V481.8l-9.76.07a25.25,25.25,0,0,0-17.44,7.63,26.25,26.25,0,0,0-7.66,18.59v55.42Z"/><path class="cls-3" d="M755.13,563.51a49.22,49.22,0,0,1-19.45-3.87,49.75,49.75,0,0,1-26.52-26.52,50.21,50.21,0,0,1,0-38.71,49.72,49.72,0,0,1,26.52-26.53,50.79,50.79,0,0,1,38.89,0,50.19,50.19,0,0,1,15,9.79l1.35,1.29-16.7,16.7-1.28-1.19a25.39,25.39,0,0,0-17.77-6.86,26.23,26.23,0,0,0-18.6,7.66,26.18,26.18,0,0,0,0,37A25.73,25.73,0,0,0,745.1,538a26.64,26.64,0,0,0,10,1.92,25.06,25.06,0,0,0,17.76-6.84l1.29-1.22,16.7,16.71-1.35,1.28a50.45,50.45,0,0,1-15,9.79,49.21,49.21,0,0,1-19.44,3.87"/><path class="cls-3" d="M850.42,563.51A49.21,49.21,0,0,1,831,559.64a49.81,49.81,0,0,1-26.53-26.52,50.33,50.33,0,0,1,0-38.71A49.78,49.78,0,0,1,831,467.88a50.79,50.79,0,0,1,38.89,0,49.78,49.78,0,0,1,26.53,26.53,49.39,49.39,0,0,1,3.87,19.44,47.47,47.47,0,0,1-1.1,10.38l-.32,1.42H826.94a22.8,22.8,0,0,0,4.88,6.6,25.67,25.67,0,0,0,8.57,5.75,26.67,26.67,0,0,0,10,1.91,25.79,25.79,0,0,0,12.82-3.17l.76-.43,24.43,9.77-1.8,1.95a47.68,47.68,0,0,1-15.25,11A49.68,49.68,0,0,1,850.42,563.51Zm23.49-61.45a26.08,26.08,0,0,0-23.49-14.45,26.27,26.27,0,0,0-18.6,7.66,25,25,0,0,0-4.88,6.79Z"/><path class="cls-4" d="M91.79,562.5V443.44h77c29.13,0,52.82,24.73,52.82,55.12s-23.69,55.13-52.82,55.13h-9.25V530.28h9.25c16.69,0,30.27-14.23,30.27-31.72s-13.58-31.71-30.27-31.71H114.34V562.5Z"/><path class="cls-3" d="M126.37,592.51V481h22.56V569.1h26.38c36.54,0,66.26-31.11,66.26-69.35s-29.72-69.34-66.26-69.34H121.55V407h53.76c49,0,88.82,41.61,88.82,92.75s-39.84,92.76-88.82,92.76Z"/></svg>