<?xml version="1.0" encoding="UTF-8"?>
<svg width="32px" height="32px" viewBox="0 0 32 32" version="1.1" xmlns="http://www.w3.org/2000/svg" xmlns:xlink="http://www.w3.org/1999/xlink">
    <title>ADA</title>
    <g id="Page-1" stroke="none" stroke-width="1" fill="none" fill-rule="evenodd">
        <g id="Artboard备份" transform="translate(-1265.000000, -4307.000000)">
            <g id="ADA" transform="translate(1265.000000, 4307.000000)">
                <circle id="椭圆形" fill="#FFFFFF" cx="16" cy="16" r="16"></circle>
                <path d="M15.9783398,28.1511898 C16.4800882,28.1511898 16.886587,28.5649544 16.886587,29.0755186 C16.886587,29.5860827 16.4800882,30 15.9783398,30 C15.4768914,30 15.0702426,29.5860827 15.0702426,29.0755186 C15.0702426,28.5649544 15.4768914,28.1511898 15.9783398,28.1511898 Z M9.43882526,28.1670686 C9.63802464,28.531212 9.50962504,28.9906281 9.15202616,29.1933881 C8.79442728,29.396148 8.34292869,29.2654533 8.14372931,28.9014626 C7.94452994,28.5374719 8.07292954,28.0779031 8.43052842,27.8751432 C8.7882773,27.6723833 9.23962588,27.8030779 9.43882526,28.1670686 Z M23.2392171,27.7616251 C23.6485658,27.7616251 23.9803647,28.0993548 23.9803647,28.5160203 C23.9803647,28.9326858 23.6485658,29.2704154 23.2392171,29.2704154 C22.8298683,29.2704154 22.4979194,28.9326858 22.4979194,28.5160203 C22.4979194,28.0993548 22.8298683,27.7616251 23.2392171,27.7616251 Z M20.3530911,24.7478004 C20.6703401,24.1882258 21.3732379,23.9963062 21.9229862,24.3193785 C22.4727345,24.6422981 22.6612839,25.357607 22.3438849,25.9171816 C22.0266359,26.4767563 21.3238881,26.6686759 20.7739898,26.3457563 C20.2242415,26.0228367 20.0358421,25.3073751 20.3530911,24.7478004 Z M10.6122866,24.1266039 C11.2469346,24.138513 11.751833,24.6718265 11.7401331,25.3178184 C11.7285831,25.9638103 11.2044847,26.4777334 10.5699867,26.465977 C9.93533871,26.4540679 9.43029029,25.9207544 9.44199025,25.2747625 C9.45369021,24.6287706 9.97763857,24.1146948 10.6122866,24.1266039 Z M15.4039616,23.0082486 C16.0977094,22.6060877 16.9804567,22.8523616 17.3757054,23.5585097 C17.7708042,24.2646578 17.5288549,25.1633361 16.8351071,25.565497 C16.1413593,25.9678106 15.258462,25.7215366 14.8633633,25.0152359 C14.4681145,24.3090878 14.7102138,23.4105621 15.4039616,23.0082486 Z M27.5884835,21.67185 C28.0242321,21.9246892 28.1760316,22.4891496 27.9277824,22.9326869 C27.6793832,23.3762242 27.1248349,23.5308898 26.6889363,23.2780506 C26.2531876,23.0252114 26.1013881,22.460751 26.3497873,22.0172137 C26.5980366,21.5736763 27.1527348,21.4190108 27.5884835,21.67185 Z M5.60413226,22.0118546 C5.85238149,22.4555446 5.70013196,23.020005 5.26423333,23.2725388 C4.82833469,23.5252253 4.27393643,23.3702544 4.0256872,22.9265644 C3.77758798,22.4830271 3.9296875,21.9185667 4.36558614,21.6658802 C4.80148477,21.4133464 5.35603304,21.5681646 5.60413226,22.0118546 Z M17.3661054,18.4500437 C18.3474024,17.8810029 19.5962985,18.2295728 20.1553467,19.2284097 C20.714245,20.2273993 20.371946,21.4984658 19.3904991,22.067354 C18.4092022,22.6363948 17.1604561,22.2879775 16.6014078,21.288988 C16.0423596,20.2901511 16.3848085,19.0190845 17.3661054,18.4500437 Z M14.634554,18.4500437 C15.6158509,19.0190845 15.9582999,20.2901511 15.3994016,21.288988 C14.8403534,22.2879775 13.5914573,22.6363948 12.6101603,22.067354 C11.6287134,21.4984658 11.2864145,20.2273993 11.8454627,19.2284097 C12.404511,18.2295728 13.6532571,17.8810029 14.634554,18.4500437 Z M8.30578881,18.8747708 C8.99953664,18.4726099 9.88228387,18.7188838 10.2775326,19.4250319 C10.6727814,20.13118 10.4306822,21.0298583 9.73693433,21.4320192 C9.0431865,21.8343328 8.16043926,21.5879062 7.7651905,20.8817581 C7.36994174,20.17561 7.61204098,19.2770843 8.30578881,18.8747708 Z M22.3586448,18.7774827 C23.0523927,18.3751691 23.9351399,18.6215957 24.3303887,19.3277438 C24.7256374,20.0338918 24.4835382,20.9324175 23.7897903,21.3347311 C23.0960425,21.7370446 22.2132953,21.490618 21.8180465,20.78447 C21.4227978,20.0783219 21.664897,19.1797962 22.3586448,18.7774827 Z M19.7082431,14.2862283 C20.68954,13.7171874 21.9384361,14.0657574 22.4974844,15.0645943 C23.0563826,16.0635839 22.7140837,17.3344977 21.7327868,17.9035385 C20.7513399,18.4725794 19.5025938,18.1241621 18.9435455,17.1251725 C18.3844973,16.1263356 18.7269462,14.8552691 19.7082431,14.2862283 Z M12.2924163,14.2862283 C13.2737133,14.8552691 13.6161622,16.1263356 13.0571139,17.1251725 C12.4982157,18.1241621 11.2493196,18.4725794 10.2680227,17.9035385 C9.28657574,17.3344977 8.94427681,16.0635839 9.50332506,15.0645943 C10.0622233,14.0657574 11.3111194,13.7171874 12.2924163,14.2862283 Z M26.0185434,15.0155533 C26.5700916,14.6958399 27.2717894,14.8915766 27.5860385,15.4529834 C27.9002875,16.0143902 27.7078381,16.728783 27.1562898,17.0484963 C26.6047415,17.3683623 25.9028937,17.172473 25.5887947,16.6110662 C25.2746957,16.0496594 25.4669951,15.3354192 26.0185434,15.0155533 Z M4.84370964,15.0155533 C5.39525792,14.6958399 6.09695572,14.8915766 6.41120474,15.4529834 C6.72530375,16.0143902 6.53300436,16.728783 5.98145608,17.0484963 C5.42990781,17.3683623 4.72806,17.172473 4.41396099,16.6110662 C4.09971197,16.0496594 4.29216137,15.3354192 4.84370964,15.0155533 Z M2.11601318,15.4000642 C2.46926207,15.6106109 2.5879117,16.0727752 2.38091235,16.4323382 C2.174063,16.7919012 1.72001442,16.9126716 1.36676553,16.7021249 C1.01351663,16.4915783 0.894867002,16.0292612 1.10171635,15.6696983 C1.30871571,15.310288 1.76276429,15.1895176 2.11601318,15.4000642 Z M30.6332789,15.3222276 C30.9865278,15.5329269 31.1051774,15.9949386 30.8981781,16.3545016 C30.6913287,16.7140646 30.2371302,16.834835 29.8840313,16.6242883 C29.5307824,16.4137417 29.4121327,15.9515773 29.6189821,15.5920144 C29.8258315,15.2324514 30.28003,15.111681 30.6332789,15.3222276 Z M17.3661054,10.1223212 C18.3474024,9.55328037 19.5962985,9.90185033 20.1553467,10.9006872 C20.714245,11.8996768 20.371946,13.1707433 19.3904991,13.7397842 C18.4092022,14.3086723 17.1604561,13.960255 16.6014078,12.9614181 C16.0423596,11.9624286 16.3848085,10.691362 17.3661054,10.1223212 Z M14.634554,10.1223212 C15.6158509,10.691362 15.9582999,11.9624286 15.3994016,12.9614181 C14.8403534,13.960255 13.5914573,14.3086723 12.6101603,13.7397842 C11.6287134,13.1707433 11.2864145,11.8996768 11.8454627,10.9006872 C12.404511,9.90185033 13.6532571,9.55328037 14.634554,10.1223212 Z M22.3586448,10.6523827 C23.0523927,10.2502218 23.9351399,10.4964957 24.3303887,11.2026438 C24.7256374,11.9087918 24.4835382,12.8074702 23.7897903,13.2096311 C23.0960425,13.6119446 22.2132953,13.3656707 21.8180465,12.65937 C21.4227978,11.9532219 21.664897,11.0546962 22.3586448,10.6523827 Z M8.21020911,10.6523827 C8.90395693,10.2502218 9.78670417,10.4964957 10.1819529,11.2026438 C10.5772017,11.9087918 10.3351025,12.8074702 9.64135463,13.2096311 C8.9476068,13.6119446 8.06485956,13.3656707 7.6696108,12.65937 C7.27436204,11.9532219 7.51646128,11.0546962 8.21020911,10.6523827 Z M27.9311424,9.07335924 C28.1793916,9.51704925 28.0271421,10.0815097 27.5912434,10.3340435 C27.1553448,10.58673 26.6007965,10.4317591 26.3526973,9.9880691 C26.1045981,9.54453177 26.2566976,8.98007136 26.6925963,8.72738486 C27.1284949,8.47485104 27.6830432,8.62966923 27.9311424,9.07335924 Z M5.26784832,8.72194943 C5.70359695,8.97478861 5.85539648,9.53924902 5.60714725,9.98278635 C5.35874803,10.4264764 4.80419977,10.5809892 4.36830113,10.32815 C3.93270249,10.0753108 3.78075297,9.51085041 4.02915219,9.06731309 C4.27740142,8.62377576 4.83209968,8.46911025 5.26784832,8.72194943 Z M15.4039616,6.58785545 C16.0977094,6.1855419 16.9804567,6.4319685 17.3757054,7.13811656 C17.7708042,7.84426463 17.5288549,8.74279034 16.8351071,9.14510389 C16.1413593,9.54741743 15.258462,9.30099084 14.8633633,8.59484277 C14.4681145,7.88869471 14.7102138,6.990169 15.4039616,6.58785545 Z M21.4301177,5.59817939 C22.0646157,5.61008848 22.5696642,6.14340204 22.5579642,6.78939393 C22.5462642,7.43538582 22.0223159,7.94930893 21.3878179,7.93755252 C20.7531698,7.92564343 20.2481214,7.39232987 20.2598214,6.74633798 C20.2715214,6.10034609 20.7954697,5.5862703 21.4301177,5.59817939 Z M9.65602458,6.14685262 C9.97342359,5.58727799 10.6761714,5.39551108 11.2260697,5.71843068 C11.7758179,6.04135029 11.9642174,6.75681188 11.6469683,7.31638651 C11.3297193,7.87596114 10.6268215,8.06772805 10.0770733,7.74480845 C9.52732498,7.42188885 9.33877557,6.70642726 9.65602458,6.14685262 Z M8.76090238,2.75389131 C9.1702511,2.75389131 9.50205006,3.09162094 9.50205006,3.50828647 C9.50205006,3.924952 9.1702511,4.26268163 8.76090238,4.26268163 C8.35140366,4.26268163 8.0196047,3.924952 8.0196047,3.50828647 C8.0196047,3.09162094 8.35140366,2.75389131 8.76090238,2.75389131 Z M23.8562101,3.12288994 C24.0554095,3.48703332 23.9270099,3.94644944 23.569411,4.14920936 C23.2118122,4.35196928 22.7603136,4.22127463 22.5611142,3.85728393 C22.3619148,3.49329323 22.4904644,3.03372443 22.8479133,2.83096451 C23.2056622,2.62820459 23.6570108,2.75889924 23.8562101,3.12288994 Z M15.9783398,2 C16.4800882,2 16.886587,2.41391728 16.886587,2.92448142 C16.886587,3.43504556 16.4800882,3.84896283 15.9783398,3.84896283 C15.4768914,3.84896283 15.0702426,3.43504556 15.0702426,2.92448142 C15.0702426,2.41391728 15.4768914,2 15.9783398,2 Z" id="形状结合" fill="#000000"></path>
            </g>
        </g>
    </g>
</svg>