<?xml version="1.0" encoding="UTF-8"?>
<svg width="32px" height="32px" viewBox="0 0 32 32" version="1.1" xmlns="http://www.w3.org/2000/svg" xmlns:xlink="http://www.w3.org/1999/xlink">
    <title>ATOM</title>
    <g id="Page-1" stroke="none" stroke-width="1" fill="none" fill-rule="evenodd">
        <g id="Artboard备份" transform="translate(-1060.000000, -4304.000000)">
            <g id="ATOM" transform="translate(1060.000000, 4304.000000)">
                <path d="M15.9999524,0 C24.8364861,0 32,7.16341875 32,15.9999524 C32,24.8364861 24.8364861,32 15.9999524,32 C7.16341875,32 0,24.8364861 0,15.9999524 C0,7.16341875 7.16341875,0 15.9999524,0 Z" id="路径" fill="#2E3148"></path>
                <path d="M15.9691747,6.76919426 C21.0671977,6.76919426 25.1999328,10.9019606 25.1999328,15.9999524 C25.1999328,21.0979442 21.0671977,25.2307106 15.9691747,25.2307106 C10.8711829,25.2307106 6.73844782,21.0979442 6.73844782,15.9999524 C6.73844782,10.9019606 10.8711829,6.76919426 15.9691747,6.76919426 Z" id="路径" fill="#161931"></path>
                <path d="M16.251278,2.73669821 C16.1241593,2.61973023 16.0585648,2.61751661 16.0475436,2.61751661 C16.0365225,2.61751661 15.970928,2.61973023 15.8438406,2.73669821 C15.7133718,2.85676588 15.5574166,3.06392865 15.3893757,3.38357893 C15.0539514,4.02158325 14.7329297,4.98593194 14.4562431,6.23025484 C13.9051554,8.70881883 13.5588665,12.1632223 13.5588665,15.9999524 C13.5588665,19.8366825 13.9051554,23.291086 14.4562431,25.7696187 C14.7329297,27.0139729 15.0539514,27.9783216 15.3893757,28.6163259 C15.5574166,28.9359699 15.7133718,29.1431483 15.8438406,29.263191 C15.970928,29.3801652 16.0365225,29.3823882 16.0475436,29.3823882 C16.0585648,29.3823882 16.1241593,29.3801652 16.251278,29.263191 C16.3817468,29.1431483 16.537702,28.9359699 16.7057429,28.6163259 C17.0411359,27.9783216 17.3621575,27.0139729 17.6388442,25.7696187 C18.1899632,23.291086 18.5362521,19.8366825 18.5362521,15.9999524 C18.5362521,12.1632223 18.1899632,8.70881883 17.6388442,6.23025484 C17.3621575,4.98593194 17.0411359,4.02158325 16.7057429,3.38357893 C16.537702,3.06392865 16.3817468,2.85676588 16.251278,2.73669821 Z M19.1624525,15.9999524 C19.1624525,8.26318328 17.7678415,1.99131617 16.0475436,1.99131617 C14.3272458,1.99131617 12.9326661,8.26318328 12.9326661,15.9999524 C12.9326661,23.7366902 14.3272458,30.0085887 16.0475436,30.0085887 C17.7678415,30.0085887 19.1624525,23.7366902 19.1624525,15.9999524 Z" id="形状" fill="#6F7390"></path>
                <path d="M27.6429599,9.54423284 C27.6807511,9.37581623 27.6498481,9.31820579 27.6444941,9.30896934 C27.6391088,9.29963895 27.6045112,9.24396973 27.4394761,9.19240212 C27.2700889,9.13948818 27.0125013,9.10808423 26.6514341,9.12245553 C25.93074,9.15116682 24.9344551,9.35552734 23.7177477,9.73822974 C21.2942893,10.5005349 18.127625,11.9280527 14.8028137,13.8464178 C11.4780337,15.7647828 8.65765825,17.7916997 6.78538154,19.5079899 C5.84539205,20.3696417 5.17022273,21.1296925 4.78501552,21.7389856 C4.59205186,22.0442583 4.49054476,22.2828093 4.45175165,22.455672 C4.41396045,22.624026 4.44483213,22.6816677 4.45021746,22.6909355 C4.45557147,22.7002659 4.49020035,22.7559351 4.65523548,22.8075027 C4.82459139,22.8604166 5.08217895,22.8918206 5.44327743,22.8774493 C6.16397153,22.8487067 7.16025644,22.6443775 8.37693259,22.2616438 C10.8003909,21.49937 13.9670866,20.0718521 17.2918665,18.1534871 C20.6166778,16.235122 23.4370533,14.2082051 25.30933,12.4919149 C26.2493195,11.6302631 26.9244888,10.8702123 27.3096647,10.2609193 C27.5026597,9.95564654 27.6041668,9.71709548 27.6429599,9.54423284 Z M3.90799049,23.0041923 C4.76817073,24.4931091 10.9004578,22.5642238 17.6048102,18.6958706 C24.309194,14.8275486 29.04687,10.4846294 28.1867211,8.99571256 C27.3265408,7.50679576 21.1942538,9.435681 14.48987,13.3040342 C7.78548627,17.1723562 3.04782903,21.5152755 3.90799049,23.0041923 Z" id="形状" fill="#6F7390"></path>
                <path d="M28.1867211,23.0041923 C29.04687,21.5152755 24.309194,17.1723562 17.6048102,13.3040342 C10.9004578,9.435681 4.76817073,7.50679576 3.90799049,8.99571256 C3.04782903,10.4846294 7.78548627,14.8275486 14.48987,18.6958706 C21.1942538,22.5642238 27.3265408,24.4931091 28.1867211,23.0041923 Z M4.45021746,9.30896934 C4.45560278,9.29960764 4.49026297,9.24393842 4.65523548,9.19240212 C4.82459139,9.13948818 5.08217895,9.10808423 5.44327743,9.12245553 C6.16397153,9.15116682 7.16025644,9.35552734 8.37693259,9.73822974 C10.8003909,10.5005349 13.9670866,11.9280527 17.2918665,13.8464178 C20.6166778,15.7647828 23.4370533,17.7916997 25.30933,19.5079899 C26.2493195,20.3696417 26.9244888,21.1296925 27.3096647,21.7389856 C27.5026597,22.0442583 27.6041668,22.2828093 27.6429599,22.455672 C27.6807511,22.6240886 27.6498481,22.681699 27.6444941,22.6909355 C27.6391088,22.7002659 27.6045112,22.7559351 27.4394761,22.8075027 C27.2700889,22.8604166 27.0125013,22.8918206 26.6514341,22.8774493 C25.93074,22.8487067 24.9344551,22.6443775 23.7177477,22.2616438 C21.2942893,21.49937 18.127625,20.0718521 14.802845,18.1534871 C11.4780337,16.235122 8.65765825,14.2082051 6.78538154,12.4919149 C5.84539205,11.6302631 5.17022273,10.8702123 4.78501552,10.2609193 C4.59205186,9.95564654 4.49054476,9.71709548 4.45175165,9.54423284 C4.41396045,9.37587885 4.44483213,9.3182371 4.45021746,9.30896934" id="形状" fill="#6F7390"></path>
                <path d="M7.09372264,12.0769005 C7.63776559,12.0769005 8.07882987,12.5181527 8.07882987,13.0624461 C8.07882987,13.6067709 7.63776559,14.048023 7.09372264,14.048023 C6.54967969,14.048023 6.10861541,13.6067709 6.10861541,13.0624461 C6.10861541,12.5181527 6.54967969,12.0769005 7.09372264,12.0769005 Z" id="路径" fill="#B7B9C8"></path>
                <path d="M22.7499549,8.70189931 C23.2942483,8.70189931 23.7355318,9.14315146 23.7355318,9.68747619 C23.7355318,10.2318009 23.2942483,10.6730531 22.7499549,10.6730531 C22.2056301,10.6730531 21.764378,10.2318009 21.764378,9.68747619 C21.764378,9.14315146 22.2056301,8.70189931 22.7499549,8.70189931 Z" id="路径" fill="#B7B9C8"></path>
                <path d="M14.0624569,24.1710855 C14.6067817,24.1710855 15.0480338,24.6121185 15.0480338,25.1561927 C15.0480338,25.7002357 14.6067817,26.1412686 14.0624569,26.1412686 C13.5181322,26.1412686 13.07688,25.7002357 13.07688,25.1561927 C13.07688,24.6121185 13.5181322,24.1710855 14.0624569,24.1710855 Z" id="路径" fill="#B7B9C8"></path>
                <path d="M15.9926572,14.3240208 C16.9142051,14.3240208 17.6612622,15.0711093 17.6612622,15.9926572 C17.6612622,16.9142051 16.9142051,17.6612622 15.9926572,17.6612622 C15.0711093,17.6612622 14.3240208,16.9142051 14.3240208,15.9926572 C14.3240208,15.0711093 15.0711093,14.3240208 15.9926572,14.3240208 Z" id="路径" fill="#B7B9C8"></path>
            </g>
        </g>
    </g>
</svg>