<?xml version="1.0" encoding="UTF-8"?>
<svg width="32px" height="32px" viewBox="0 0 32 32" version="1.1" xmlns="http://www.w3.org/2000/svg" xmlns:xlink="http://www.w3.org/1999/xlink">
    <title>BNB</title>
    <g id="Page-1" stroke="none" stroke-width="1" fill="none" fill-rule="evenodd">
        <g id="Artboard备份" transform="translate(-1329.000000, -4310.000000)">
            <g id="BNB" transform="translate(1329.000000, 4310.000000)">
                <path d="M32,16 C32,24.83664 24.83664,32 16,32 C7.16336,32 0,24.83664 0,16 C0,7.16336 7.16336,0 16,0 C24.83664,0 32,7.16336 32,16" id="Fill-158" fill="#212121"></path>
                <path d="M20.9508605,17.9205185 L23.7551748,20.7248329 L15.9999769,28.4800308 L8.28869024,20.7685901 L11.0930046,17.9642757 L15.9999769,22.8714021 L20.9508605,17.9205185 Z M16.0000077,12.9762909 L19.0237245,16.0000077 L16.0000077,19.0235704 L12.9762909,16.0000077 L16.0000077,12.9762909 Z M6.42785256,13.0920011 L9.2321669,15.8964695 L9.12862868,16.0000077 L9.18517411,16.0565531 L6.38085977,18.8608675 L3.52,16.0000077 L6.42785256,13.0920011 Z M25.6436381,13.1634917 L28.48,16.0000077 L25.6630515,18.8169562 L22.8585831,16.0126418 L22.8713713,16.0000077 L22.8391697,15.9678061 L25.6436381,13.1634917 Z M15.9999307,3.52 L23.7357152,11.2557845 L20.9314009,14.0600989 L15.9999307,9.12862868 L11.1399511,13.9886082 L8.33563681,11.1842939 L15.9999307,3.52 Z" id="形状结合" fill="#F4BB0B"></path>
            </g>
        </g>
    </g>
</svg>