<?xml version="1.0" encoding="UTF-8"?>
<svg width="32px" height="32px" viewBox="0 0 32 32" version="1.1" xmlns="http://www.w3.org/2000/svg" xmlns:xlink="http://www.w3.org/1999/xlink">
    <title>BTCB</title>
    <g id="Page-1" stroke="none" stroke-width="1" fill="none" fill-rule="evenodd">
        <g id="Artboard备份" transform="translate(-989.000000, -4304.000000)">
            <g id="BTCB" transform="translate(989.000000, 4304.000000)">
                <path d="M16,32 C7.16336,32 0,24.83664 0,16 C0,7.16336 7.16336,0 16,0 C24.83664,0 32,7.16336 32,16 C32,24.83664 24.83664,32 16,32 Z" id="Fill-504" fill="#F7931A"></path>
                <path d="M19.884752,20.676096 C19.750832,21.126176 19.449552,21.497056 19.036432,21.720416 C18.623312,21.944096 18.148112,21.993376 17.698032,21.859296 L13.192272,20.517376 L14.196112,17.147296 L18.701552,18.489376 L18.701712,18.489376 C19.630672,18.766016 20.161552,19.746976 19.884752,20.676096 M21.404432,13.769696 C21.627792,14.182816 21.677072,14.658016 21.543152,15.108256 C21.266352,16.037056 20.284912,16.567616 19.356432,16.291456 L19.356272,16.291456 L14.850672,14.949536 L15.854192,11.579456 L20.359952,12.921376 C20.810032,13.055456 21.180912,13.356576 21.404432,13.769696 M23.421392,12.678496 C22.906352,11.726656 22.051472,11.032256 21.014512,10.723456 L20.418352,10.546016 L21.252912,7.743776 L19.111632,7.106016 L18.277072,9.908256 L16.448912,9.363776 L17.283632,6.561536 L16.770672,6.408736 L14.692592,5.789856 L13.888112,8.490976 L11.355632,7.736736 L10.640912,10.136736 L13.173392,10.891136 L10.571632,19.626816 L8.039152,18.872576 L7.324432,21.272736 L9.856752,22.026816 L9.177872,24.306656 L9.690672,24.459456 L11.768752,25.078336 L12.477872,22.697376 L14.310352,23.243136 L13.601232,25.624256 L15.733872,26.259456 L16.442992,23.878336 L17.043312,24.057056 C17.426032,24.170976 17.816912,24.227456 18.205392,24.227456 C18.869392,24.227456 19.527152,24.062496 20.127632,23.737536 C21.079472,23.222496 21.773712,22.367776 22.082672,21.330496 C22.407472,20.239456 22.247152,19.118656 21.730512,18.196096 C22.668432,17.706656 23.415792,16.854336 23.740912,15.762816 C24.049872,14.725536 23.936272,13.630176 23.421392,12.678496" id="Fill-505" fill="#FFFFFF"></path>
            </g>
        </g>
    </g>
</svg>