<?xml version="1.0" encoding="UTF-8"?>
<svg width="32px" height="32px" viewBox="0 0 32 32" version="1.1" xmlns="http://www.w3.org/2000/svg" xmlns:xlink="http://www.w3.org/1999/xlink">
    <title>BUSD</title>
    <g id="Page-1" stroke="none" stroke-width="1" fill="none" fill-rule="evenodd">
        <g id="Artboard备份" transform="translate(-1488.000000, -3959.000000)">
            <g id="BUSD" transform="translate(1488.000000, 3959.000000)">
                <path d="M32,16 C32,24.83664 24.83664,32 16,32 C7.16352,32 0,24.83664 0,16 C0,7.16336 7.16352,0 16,0 C24.83664,0 32,7.16336 32,16" id="Fill-506" fill="#212121"></path>
                <path d="M24.5113038,13.3253731 C25.4003236,14.2128223 26.3229653,15.1338942 27.2,16.009252 C25.3345115,17.8749423 23.4639585,19.7456973 21.5964018,21.6134957 L16.0107814,27.2 L16.0107814,27.2 C15.1479591,26.3365216 14.2185294,25.4064341 13.3253731,24.5127271 C17.0062884,20.8314092 20.7572051,17.07977 24.5113038,13.3253731 Z M20.3383876,8.97910448 C21.2234526,9.86174056 22.147946,10.7838104 23.0208955,11.6543294 C19.3001791,15.375984 15.5408846,19.1362221 11.8242067,22.8537313 C10.9710245,21.9993685 10.0407922,21.0677325 9.14626866,20.1720227 L11.3684093,17.9498061 L11.3684093,17.9498061 L20.3383876,8.97910448 L20.3383876,8.97910448 Z M7.49018317,13.4925373 C8.33530346,14.3401061 9.25915772,15.2667743 10.1492537,16.1594975 C9.30847228,16.9993467 8.39181413,17.9149114 7.46383269,18.841791 L6.79284947,18.1713597 L6.79284947,18.1713597 L5.45520864,16.8347403 C5.23465729,16.6143519 5.01593638,16.395791 4.8,16.1800125 L6.15699693,14.824418 C6.6079976,14.3738661 7.05502983,13.9272666 7.49018317,13.4925373 Z M16.1646716,4.8 C17.0429419,5.67692744 17.9641585,6.59669146 18.841791,7.47308743 C16.5198279,9.79487242 14.1619345,12.1526911 11.8189234,14.4955224 L11.1600778,13.8362507 L11.1600778,13.8362507 L9.8146815,12.4900441 C9.59039341,12.2656288 9.3670853,12.0421983 9.14626866,11.8212657 C11.4844961,9.48215478 13.840795,7.12486752 16.1646716,4.8 Z" id="形状结合" fill="#F4BB0B"></path>
            </g>
        </g>
    </g>
</svg>