<?xml version="1.0" encoding="UTF-8"?>
<svg width="32px" height="32px" viewBox="0 0 32 32" version="1.1" xmlns="http://www.w3.org/2000/svg" xmlns:xlink="http://www.w3.org/1999/xlink">
    <title>DAI</title>
    <defs>
        <linearGradient x1="50%" y1="-14.166665%" x2="50%" y2="110.5%" id="linearGradient-1">
            <stop stop-color="#F9A606" offset="0%"></stop>
            <stop stop-color="#FBCC5F" offset="100%"></stop>
        </linearGradient>
    </defs>
    <g id="Page-1" stroke="none" stroke-width="1" fill="none" fill-rule="evenodd">
        <g id="Artboard备份" transform="translate(-1407.000000, -3959.000000)">
            <g id="DAI" transform="translate(1407.000000, 3959.000000)">
                <circle id="椭圆形" fill="url(#linearGradient-1)" fill-rule="nonzero" cx="16" cy="16" r="16"></circle>
                <path d="M9.931984,8.465232 L16.02688,8.465232 C19.73424,8.465232 22.54448,10.457904 23.58992,13.35744 L25.48848,13.35744 L25.48848,15.11008 L23.98976,15.11008 C24.01904,15.38704 24.03408,15.66912 24.03408,15.95584 L24.03408,15.99888 C24.03408,16.3216 24.01504,16.63888 23.97792,16.9496 L25.48848,16.9496 L25.48848,18.70208 L23.55376,18.70208 C22.4808,21.56128 19.69232,23.53504 16.02688,23.53504 L9.931984,23.53504 L9.931984,18.70208 L7.814064,18.70208 L7.814064,16.9496 L9.931984,16.9496 L9.931984,15.11008 L7.814064,15.11008 L7.814064,13.35744 L9.931984,13.35744 L9.931984,8.465232 Z M11.635872,18.70208 L11.635872,21.96288 L16.02688,21.96288 C18.73648,21.96288 20.7496,20.65696 21.68672,18.70208 L11.635872,18.70208 Z M22.2088,16.9496 L11.635872,16.9496 L11.635872,15.11008 L22.21152,15.11008 C22.25072,15.39952 22.27072,15.69632 22.27072,15.99888 L22.27072,16.04192 C22.27072,16.35136 22.24976,16.6544 22.2088,16.9496 Z M16.02688,10.0348 C18.74896,10.0348 20.76816,11.375232 21.69968,13.35744 L11.635872,13.35744 L11.635872,10.0348 L16.02688,10.0348 Z" id="形状" fill="#FFFFFF"></path>
            </g>
        </g>
    </g>
</svg>