<?xml version="1.0" encoding="UTF-8"?>
<svg width="32px" height="32px" viewBox="0 0 32 32" version="1.1" xmlns="http://www.w3.org/2000/svg" xmlns:xlink="http://www.w3.org/1999/xlink">
    <title>DOT</title>
    <g id="Page-1" stroke="none" stroke-width="1" fill="none" fill-rule="evenodd">
        <g id="Artboard备份" transform="translate(-1141.000000, -4304.000000)">
            <g id="DOT" transform="translate(1141.000000, 4304.000000)">
                <path d="M16,32 C7.2,32 0,24.8001486 0,15.9203318 C0.08,7.12051336 7.2,-0.0793380771 16.08,0.000660272258 C24.88,0.0806586216 32,7.20051171 32,16.1603268 C31.92,24.8801469 24.8,32 16,32" id="路径" fill="#1E1E1E"></path>
                <path d="M16.3951541,6.09976684 C16.4195846,6.10423513 16.4438714,6.11158182 16.4684608,6.11276482 C18.5745929,6.21369691 20.5555913,7.20528034 21.91043,8.80574916 C22.7284477,9.77207508 23.2722595,10.873919 23.5438023,12.1082217 C23.6858458,12.7539083 23.7432943,13.4082678 23.7108892,14.0682559 C23.6317264,15.680487 23.0995435,17.1308273 22.1041188,18.4042445 C21.0885233,19.7034467 19.7808509,20.5845812 18.1937597,21.0506999 C17.7553116,21.1794589 17.3076936,21.2645147 16.8531678,21.3105915 C16.6351392,21.3326919 16.4157941,21.3416661 16.1973266,21.3599236 C15.903835,21.3844426 15.6095036,21.3995504 15.3221631,21.4754812 C14.3487403,21.7327205 13.5828899,22.5197347 13.3681222,23.4981016 C13.2487236,24.0420047 13.1317688,24.5866838 13.0295374,25.1339475 C12.9900657,25.345223 12.9125674,25.5280461 12.7643425,25.6784383 C12.5066379,25.9399124 12.1925517,26.028487 11.830815,25.9678674 C11.7107279,25.9477413 11.5949232,25.9222426 11.4866919,25.8645542 C11.0907949,25.6535048 10.8820875,25.2083788 10.9751187,24.7706975 C11.2499678,23.4776063 11.5229859,22.1841232 11.7998551,20.891454 C12.0473002,19.7361563 12.298952,18.5817629 12.5486669,17.4269626 C12.7676413,16.4143488 12.986487,15.4017049 13.2054614,14.3890912 C13.2658983,14.1095857 13.3255409,13.8298995 13.3874457,13.550718 C13.5030008,13.0296236 13.9804893,12.682913 14.5148436,12.7305572 C15.0253046,12.7760765 15.4357662,13.2049041 15.4598487,13.7145151 C15.466711,13.8596328 15.4375669,13.9988505 15.4063421,14.1386032 C15.0994738,15.511988 14.7908881,16.8849961 14.4876288,18.259172 C14.4087384,18.6166578 14.3468488,18.9778734 14.2767576,19.3372956 C14.2700617,19.3716404 14.2602335,19.4053824 14.2524027,19.4395237 C14.2386705,19.4993898 14.2796781,19.5404182 14.3385338,19.5218141 C14.6503048,19.4232631 14.9721461,19.382408 15.2962799,19.3568189 C15.7710371,19.3193245 16.246513,19.2903145 16.7208843,19.2485703 C17.5018364,19.1798581 18.2391933,18.960068 18.9202141,18.5722386 C20.2549196,17.8121472 21.1365369,16.6933871 21.5591948,15.2201326 C21.7276209,14.6330838 21.7854628,14.0318842 21.7458928,13.4237222 C21.6289001,11.6257218 20.6746873,10.0378441 19.1404671,9.0828283 C18.5398348,8.70894628 17.8889494,8.46294926 17.1908069,8.34082858 C16.7341475,8.26094944 16.2745677,8.23393625 15.8127105,8.2711519 C14.5544666,8.3725361 13.4508031,8.83980009 12.5144687,9.68342513 C11.6355297,10.4753295 11.0713957,11.4537492 10.8185182,12.6071781 C10.7093867,13.1049666 10.6735164,13.6096874 10.7024941,14.1189593 C10.7297694,14.598287 10.8279152,15.0625746 10.9856203,15.5158083 C11.1673247,16.0379953 10.9249412,16.6113755 10.4229616,16.8459268 C10.1933722,16.9531959 9.95235819,16.9540624 9.71434027,16.8805353 C9.35319373,16.7689713 9.10642955,16.5320012 8.98727306,16.1732345 C8.80465319,15.623424 8.68638192,15.0596811 8.63262569,14.4826766 C8.48585339,12.9074954 8.79213151,11.4242871 9.56463239,10.0430885 C10.3477635,8.64285629 11.4698501,7.59044988 12.9118109,6.87857532 C13.6004732,6.53859352 14.3271091,6.31422965 15.0859988,6.19482913 C15.3647822,6.15096003 15.645215,6.11932785 15.9279251,6.11257644 C15.9577047,6.11186061 15.9873104,6.10420499 16.0169993,6.09976684 L16.3951541,6.09976684 Z" id="Fill-1" fill="#FFFFFF"></path>
                <path d="M17.8300466,25.0391773 C17.8300466,25.7416639 17.2605544,26.3111443 16.5580608,26.3111443 C15.8555523,26.3111443 15.2860601,25.7416639 15.2860601,25.0391773 C15.2860601,24.3366982 15.8555523,23.7672177 16.5580608,23.7672177 C17.2605544,23.7672177 17.8300466,24.3366982 17.8300466,25.0391773" id="Fill-3" fill="#E6007A"></path>
            </g>
        </g>
    </g>
</svg>