<?xml version="1.0" encoding="UTF-8"?>
<svg width="32px" height="32px" viewBox="0 0 32 32" version="1.1" xmlns="http://www.w3.org/2000/svg" xmlns:xlink="http://www.w3.org/1999/xlink">
    <title>EUX</title>
    <g id="Page-1" stroke="none" stroke-width="1" fill="none" fill-rule="evenodd">
        <g id="Artboard备份" transform="translate(-1663.000000, -4051.000000)">
            <g id="EUX" transform="translate(1663.000000, 4051.000000)">
                <circle id="椭圆形" fill="#FFAA1D" cx="16" cy="16" r="16"></circle>
                <circle id="椭圆形备份" fill="#242A47" cx="16" cy="16" r="13.5384615"></circle>
                <circle id="椭圆形备份-2" fill="#FFFFFF" cx="16" cy="16" r="11.0769231"></circle>
                <path d="M16.8191677,9.84615385 C17.1823455,9.84615385 17.5092055,9.88247163 17.9087011,9.95510719 C18.2718789,10.0277427 18.6350567,10.1366961 18.9982346,10.2456494 C19.3614124,10.3909206 19.6519546,10.5361917 19.9788146,10.7540984 C20.2693569,10.972005 20.5598991,11.1899117 20.741488,11.480454 L19.3250946,12.642623 C19.0345523,12.2431274 18.6713745,11.9889029 18.1992434,11.807314 C17.7271122,11.6257251 17.2912989,11.5530895 16.8554855,11.5530895 C16.3107188,11.5530895 15.8022699,11.6620429 15.3301387,11.8436318 C14.8580076,12.0615385 14.4948298,12.3157629 14.131652,12.6789407 C13.8741937,12.9650054 13.6618005,13.2736026 13.4944722,13.6224805 L17.76343,13.623203 C17.9813367,13.623203 18.1266078,13.7684741 18.1266078,13.9863808 C18.1266078,14.0590164 18.1266078,14.0953342 18.09029,14.131652 L17.7271122,14.8580076 C17.6544767,14.9669609 17.5455233,15.0759142 17.4002522,15.0759142 L13.1274634,15.0742219 C13.1188296,15.2041975 13.1147541,15.3377659 13.1147541,15.4754098 C13.1147541,15.8538321 13.1455593,16.2168518 13.2172004,16.5644689 L17.0370744,16.5649433 C17.2549811,16.5649433 17.4002522,16.7102144 17.4002522,16.9281211 C17.4002522,16.9644388 17.3639344,17.0370744 17.3639344,17.0733922 L17.0007566,17.7997478 C16.9281211,17.9087011 16.8191677,18.0176545 16.6738966,18.0176545 L13.8341258,18.0193027 C13.9168882,18.1461947 14.0043296,18.2670766 14.0953342,18.3808323 C14.4221942,18.7440101 14.785372,18.9982346 15.2575032,19.1798235 C15.6933165,19.3614124 16.2017654,19.4703657 16.7828499,19.4703657 C17.3639344,19.4703657 17.8723834,19.3614124 18.3081967,19.1435057 C18.7440101,18.925599 19.1071879,18.598739 19.3977301,18.2355612 L20.9230769,19.3250946 C20.4509458,19.9424968 19.8698613,20.3783102 19.1798235,20.7051702 C18.4897856,21.0320303 17.6907945,21.2136192 16.7465322,21.2136192 C15.9112232,21.2136192 15.112232,21.068348 14.4221942,20.7778058 C13.7321564,20.4872636 13.1147541,20.1240858 12.6063052,19.6156368 C12.1499436,19.1592752 11.7813556,18.6443979 11.5005413,18.0184836 L10.2093317,18.0176545 C9.99142497,18.0176545 9.84615385,17.8723834 9.84615385,17.6544767 C9.84615385,17.5818411 9.84615385,17.5455233 9.88247163,17.5092055 L10.2456494,16.7828499 C10.318285,16.6738966 10.4272383,16.5649433 10.5725095,16.5649433 L11.0563981,16.5658905 C11.0001361,16.221432 10.972005,15.8589701 10.972005,15.4754098 C10.972005,15.3392182 10.9755517,15.2056865 10.982645,15.0746762 L10.2093317,15.0759142 C9.99142497,15.0759142 9.84615385,14.9306431 9.84615385,14.7127364 C9.84615385,14.6764187 9.84615385,14.6401009 9.88247163,14.5674653 L10.2456494,13.8411097 C10.318285,13.7321564 10.4272383,13.623203 10.5725095,13.623203 L11.2354003,13.6230416 C11.2856757,13.4618528 11.3431485,13.304663 11.4078184,13.1510719 C11.6983607,12.461034 12.134174,11.8799496 12.642623,11.3715006 C13.1510719,10.8630517 13.7684741,10.4998739 14.4948298,10.2456494 C15.2211854,9.99142497 15.9838588,9.84615385 16.8191677,9.84615385 Z" id="形状结合" fill="#242A47" fill-rule="nonzero"></path>
            </g>
        </g>
    </g>
</svg>