<?xml version="1.0" encoding="UTF-8"?>
<svg width="32px" height="32px" viewBox="0 0 32 32" version="1.1" xmlns="http://www.w3.org/2000/svg" xmlns:xlink="http://www.w3.org/1999/xlink">
    <title>FIL</title>
    <defs>
        <polygon id="path-1" points="0 0 32 0 32 32 0 32"></polygon>
    </defs>
    <g id="Page-1" stroke="none" stroke-width="1" fill="none" fill-rule="evenodd">
        <g id="Artboard备份" transform="translate(-1205.000000, -4304.000000)">
            <g id="FIL" transform="translate(1205.000000, 4304.000000)">
                <g id="Clipped">
                    <mask id="mask-2" fill="white">
                        <use xlink:href="#path-1"></use>
                    </mask>
                    <g id="a-logo_1"></g>
                    <path d="M16,32 C7.2,32 0,24.8 0,15.92 C0.08,7.12 7.2,-0.08 16.08,2.16840434e-19 C24.88,0.08 32,7.2 32,16.16 C31.92,24.88 24.8,32 16,32" id="路径" fill="#40C2CB" mask="url(#mask-2)"></path>
                </g>
                <path d="M17.52,14.08 L17.04,16.64 L21.6,17.28 L21.28,18.48 L16.8,17.84 C16.48,18.88 16.32,20 15.92,20.96 C15.52,22.08 15.12,23.2 14.64,24.24 C14,25.6 12.88,26.56 11.36,26.8 C10.48,26.96 9.52,26.88 8.8,26.32 C8.56,26.16 8.32,25.84 8.32,25.6 C8.32,25.28 8.48,24.88 8.72,24.72 C8.88,24.64 9.28,24.72 9.52,24.8 C9.76,25.04 10,25.36 10.16,25.68 C10.64,26.32 11.28,26.4 11.92,25.92 C12.64,25.28 13.04,24.4 13.28,23.52 C13.76,21.6 14.24,19.76 14.64,17.84 L14.64,17.52 L10.4,16.88 L10.56,15.68 L14.96,16.32 L15.52,13.84 L10.96,13.12 L11.12,11.84 L15.84,12.48 C16,12 16.08,11.6 16.24,11.2 C16.64,9.76 17.04,8.32 18,7.04 C18.96,5.76 20.08,4.96 21.76,5.04 C22.48,5.04 23.2,5.28 23.68,5.84 C23.76,5.92 23.92,6.08 23.92,6.24 C23.92,6.56 23.92,6.96 23.68,7.2 C23.36,7.44 22.96,7.36 22.64,7.04 C22.4,6.8 22.24,6.56 22,6.32 C21.52,5.68 20.8,5.6 20.24,6.16 C19.84,6.56 19.44,7.12 19.2,7.68 C18.64,9.36 18.24,11.12 17.68,12.88 L22.08,13.52 L21.76,14.72 L17.52,14.08" id="路径" fill="#FFFFFF"></path>
            </g>
        </g>
    </g>
</svg>