<?xml version="1.0" encoding="UTF-8"?>
<svg width="32px" height="32px" viewBox="0 0 32 32" version="1.1" xmlns="http://www.w3.org/2000/svg" xmlns:xlink="http://www.w3.org/1999/xlink">
    <title>GOLDx</title>
    <g id="Page-1" stroke="none" stroke-width="1" fill="none" fill-rule="evenodd">
        <g id="Artboard备份" transform="translate(-1731.000000, -3959.000000)" fill-rule="nonzero">
            <g id="GOLDx" transform="translate(1731.000000, 3959.000000)">
                <g fill="#FFFFFF" id="椭圆形">
                    <circle cx="16" cy="16" r="16"></circle>
                </g>
                <g transform="translate(6.000000, 5.000000)" id="路径">
                    <path d="M11.2886451,16.2608696 L2.9851195,16.2608696 C1.33724806,16.2590574 0.00184428986,14.946937 0,13.327797 L0,1.58198857 C0,0.708280408 0.720848737,0 1.61006072,0 C2.4992727,0 3.22012143,0.708280408 3.22012143,1.58198857 L3.22012143,13.0987192 L11.2890169,13.0987192 C12.256574,13.0987192 13.0409341,12.3280349 13.0409341,11.3773476 C13.0409341,10.4266603 12.256574,9.65597595 11.2890169,9.65597595 L6.72804587,9.65597595 C5.83883389,9.65597595 5.11798515,8.94769555 5.11798515,8.07398738 C5.11798515,7.20027922 5.83883389,6.49199882 6.72804587,6.49199882 L11.2886451,6.49199882 C14.0302104,6.49199882 16.2608696,8.68413078 16.2608696,11.3775303 C16.2608696,14.0709297 14.0302104,16.2608696 11.2886451,16.2608696 Z" fill="#FFBB3B"></path>
                    <path d="M10.8011668,22.9565217 L1.56326511,22.9565217 C0.701092361,22.9565217 0.00216328277,22.2401071 0.00216328277,21.356365 C0.00216328277,20.4726228 0.701092361,19.7562082 1.56326511,19.7562082 L10.8011668,19.7562082 C15.2544534,19.7562082 18.8770751,16.042588 18.8770751,11.4782609 C18.8770751,6.91393376 15.2540929,3.20031356 10.8011668,3.20031356 L1.56110192,3.20031356 C0.698929135,3.20031356 0,2.48389897 0,1.60015678 C0,0.716414593 0.698929135,0 1.56110192,0 L10.8011668,0 C16.9759919,0 22,5.14932669 22,11.479 C22,17.8086733 16.9759919,22.9565217 10.8011668,22.9565217 Z" fill="#FA9B00"></path>
                </g>
            </g>
        </g>
    </g>
</svg>