<?xml version="1.0" encoding="UTF-8"?>
<svg width="32px" height="32px" viewBox="0 0 32 32" version="1.1" xmlns="http://www.w3.org/2000/svg" xmlns:xlink="http://www.w3.org/1999/xlink">
    <title>HBTC</title>
    <defs>
        <polygon id="path-1" points="0 0 32 0 32 32 0 32"></polygon>
    </defs>
    <g id="Page-1" stroke="none" stroke-width="1" fill="none" fill-rule="evenodd">
        <g id="Artboard备份" transform="translate(-1569.000000, -3959.000000)">
            <g id="HBTC" transform="translate(1569.000000, 3959.000000)">
                <g id="编组" transform="translate(0.000000, -0.000000)">
                    <mask id="mask-2" fill="white">
                        <use xlink:href="#path-1"></use>
                    </mask>
                    <g id="Clip-2"></g>
                    <path d="M32,16.0000229 C32,24.8366069 24.8365305,32.0000457 15.9999086,32.0000457 C7.16374379,32.0000457 -0.000182858188,24.8366069 -0.000182858188,16.0000229 C-0.000182858188,7.1634388 7.16374379,0 15.9999086,0 C24.8365305,0 32,7.1634388 32,16.0000229" id="Fill-1" fill="#3C65F0" mask="url(#mask-2)"></path>
                </g>
                <path d="M14.3735678,3.92549132 C14.4540255,6.05486579 12.8421305,9.15658451 9.53879736,13.2315618 C4.04802313,20.2916861 9.0907948,26.9294099 14.6368836,26.9294099 C20.1829725,26.9294099 25.2376299,21.0482586 20.5006886,13.9876771 C19.2755387,11.98036 16.5943805,8.91109844 16.2410071,7.80481115 C14.9943714,10.206186 15.4940314,12.5581894 14.6368836,14.5211636 C13.877565,16.5207093 17.1434122,19.4112277 14.7753987,19.2503132 C12.9673884,18.96917 13.0400745,16.7127096 13.192304,16.1828803 C14.920771,10.1970431 15.3148304,6.1106373 14.3735678,3.92549132" id="Fill-3" fill="#96CAFF"></path>
                <path d="M11.4860542,15.4174392 C9.47141412,19.8430455 11.4860542,25.6798538 14.6371579,26.9296842 C17.7878045,28.1790574 27.3416877,23.0622501 20.5009629,13.9874943 C19.2753559,11.9801771 16.5946548,8.91137273 16.2408242,7.80508544 C15.7525929,8.36142909 15.0408174,11.1417759 15.825279,13.9874943 C16.6097406,16.8332126 17.1432294,19.4110449 14.7752159,19.2505875 C12.9672055,18.9694442 13.0398917,16.7125267 13.1921211,16.1831545 C15.7850502,7.20348458 16.4410539,9.30497329 11.4860542,15.4174392" id="Fill-5" fill="#CADEFC"></path>
                <path d="M16.4784942,7.299119 C15.8019189,8.46392066 15.9344911,10.3199233 16.8766679,12.8675841 C18.2906188,16.6883896 20.9045766,21.525425 16.4784942,23.372742 C13.7356213,24.3258862 10.7637186,21.2031389 12.769673,14.1581002 C14.1068235,9.4614078 15.343402,7.17523311 16.4784942,7.299119" id="Fill-7" fill="#96CAFF"></path>
                <path d="M14.327579,3.65714808 C14.4391225,7.09669585 13.6491751,10.2848147 11.9568226,13.2205903 C9.41875096,17.6242537 6.36364779,24.5028921 12.6882554,26.6679238 C16.904508,28.111583 19.0412059,27.7499825 19.0974348,25.5826651 C16.0418745,26.9952386 13.9056337,26.0914658 12.6882554,22.8718041 C11.9920228,21.2612875 12.9547712,16.6441381 13.1924868,16.1828803 C13.350202,15.8756798 14.2041497,12.576018 15.7547872,6.28343755 L14.327579,3.65714808 Z" id="Fill-9" fill="#CADEFC"></path>
                <path d="M29.1321436,20.2130117 C29.1321436,25.0454758 25.2948645,28.9636528 20.5611232,28.9636528 C15.8273819,28.9636528 11.9901028,25.0454758 11.9901028,20.2130117 C11.9901028,15.3805477 15.8273819,11.4623707 20.5611232,11.4623707 C25.2948645,11.4623707 29.1321436,15.3805477 29.1321436,20.2130117" id="Fill-11" fill="#3C65F0"></path>
                <path d="M20.1602066,18.2357746 C20.1602066,18.2357746 20.8879822,18.4309749 21.3186132,18.5461751 C21.7501586,18.6618324 22.0075315,19.0984044 21.8941594,19.5217193 C21.7803302,19.9450342 21.3391848,20.1941774 20.9085538,20.0789773 C20.4770084,19.9633199 19.74969,19.7685768 19.74969,19.7685768 L20.1602066,18.2357746 Z M19.5627175,20.4648064 C19.5627175,20.4648064 20.6685524,20.7610354 21.1000977,20.8766927 C21.5307287,20.99235 21.7885588,21.428922 21.6747296,21.8522369 C21.5613575,22.2755518 21.1206693,22.5251522 20.6891239,22.4094949 C20.2580358,22.2938376 19.1522009,21.9976086 19.1522009,21.9976086 L19.5627175,20.4648064 Z M20.0632918,15.5719994 L19.702604,16.9187442 L18.1419094,16.5004579 C18.0632804,16.4794293 17.9832799,16.5246865 17.9627084,16.6019437 L17.8369934,17.0705158 C17.8177932,17.1422873 17.8557363,17.2190875 17.9265939,17.2451446 C18.4468254,17.4357735 18.6383694,17.8636598 18.5227116,18.2952033 L17.75105,21.1742931 C17.647278,21.5624079 17.3606478,21.8156655 16.9039595,21.7384082 C16.8390448,21.7278939 16.7745873,21.7576082 16.7462443,21.8161226 L16.5291002,22.2650375 C16.4902428,22.3454948 16.5350431,22.4414949 16.6232721,22.4648092 L18.1094521,22.8629812 L17.7487643,24.209726 C17.7277356,24.2865261 17.7748216,24.3660691 17.8529934,24.3870977 L18.3256819,24.5137264 C18.4038537,24.534755 18.4843113,24.4890407 18.5048829,24.4126977 L18.8655707,23.0654958 L19.6221464,23.2689247 L19.2614586,24.6152123 C19.2408871,24.6920124 19.2879731,24.7720125 19.3661449,24.792584 L19.8388334,24.9192127 C19.9170052,24.9402413 19.9974628,24.894527 20.0175772,24.8177269 L20.3791793,23.4714392 C20.6466094,23.5427536 20.8696964,23.6026394 21.0173544,23.6424109 C21.9183881,23.8837827 22.8550792,23.3105247 23.1092521,22.3610377 C23.2687958,21.7690368 23.1243379,21.1710931 22.7746216,20.7459496 C23.0653661,20.5091493 23.2907388,20.1749774 23.3977108,19.775434 C23.6555409,18.813604 23.1334808,17.8380598 22.232447,17.596688 C22.1606752,17.577488 22.0729033,17.5537165 21.9727884,17.526745 L22.3334762,16.1800003 C22.3540477,16.1036573 22.3065046,16.0236572 22.2287899,16.0026286 L21.7556443,15.8759998 C21.6774724,15.8549712 21.5970148,15.9011427 21.5769004,15.9774857 L21.2157555,17.3242305 L20.4587226,17.1212587 L20.8198675,15.774514 C20.8404391,15.6977139 20.7933531,15.6181709 20.7156384,15.5975994 L20.2424928,15.4705135 C20.1643209,15.4494849 20.0838633,15.4956564 20.0632918,15.5719994 L20.0632918,15.5719994 Z M20.208664,13.8087969 C23.8415991,13.8087969 26.7860731,16.7541725 26.7860731,20.3861777 C26.7860731,24.01864 23.8415991,26.9635585 20.208664,26.9635585 C16.5761861,26.9635585 13.6317122,24.01864 13.6317122,20.3861777 C13.6317122,16.7541725 16.5761861,13.8087969 20.208664,13.8087969 L20.208664,13.8087969 Z" id="Fill-13" fill="#FFB361"></path>
            </g>
        </g>
    </g>
</svg>