<?xml version="1.0" encoding="UTF-8"?>
<svg width="256px" height="256px" viewBox="0 0 256 256" version="1.1" xmlns="http://www.w3.org/2000/svg" xmlns:xlink="http://www.w3.org/1999/xlink">
    <title>logo_husd_256x256</title>
    <g id="logo_husd_256x256" stroke="none" stroke-width="1" fill="none" fill-rule="evenodd">
        <g id="husd-logo" fill-rule="nonzero">
            <path d="M126.627246,253.257143 C75.3910654,253.257143 29.2041557,222.822269 9.61777889,176.153927 C-9.96859792,129.485586 0.905954997,75.7818426 37.1672654,40.1013871 C73.4285757,4.4209316 127.929684,-6.20376065 175.239842,13.1848952 C222.55,32.5735511 253.344565,78.1541282 253.25469,128.658286 C253.131702,197.507814 196.474702,253.257143 126.627246,253.257143 L126.627246,253.257143 Z" id="路径" fill="#005EF9"></path>
            <path d="M73.6092754,87.3691429 C73.6092754,77.5314286 73.6092754,67.7302857 73.6092754,57.8925714 C73.6092754,56.576 73.906087,56.1371429 75.315942,56.1371429 C83.156715,56.1371429 90.9974879,56.1371429 98.8382609,56.1371429 C100.248116,56.1371429 100.582029,56.5394286 100.582029,57.8925714 C100.582029,72.1798095 100.582029,86.4792381 100.582029,100.790857 C100.25754,104.744152 101.723506,108.636488 104.586525,111.423331 C107.449545,114.210173 111.416418,115.606125 115.422609,115.236571 C128.408116,115.236571 141.393623,115.236571 154.342029,115.236571 C167.244207,115.966886 177.777909,125.673274 179.385507,138.313143 C179.569022,140.050389 179.655722,141.79625 179.646069,143.542857 C179.646069,162.023619 179.646069,180.504381 179.646069,198.985143 C179.646069,200.411429 179.311304,200.850286 177.827246,200.813714 C169.986473,200.813714 162.1457,200.813714 154.304928,200.813714 C152.969275,200.813714 152.635362,200.484571 152.635362,199.168 C152.635362,184.685714 152.635362,170.215619 152.635362,155.757714 C152.939532,149.616286 148.936979,144.068577 142.951884,142.336 C141.589416,141.950684 140.176686,141.765832 138.75942,141.787429 C126.144928,141.787429 113.530435,141.787429 100.915942,141.787429 C93.6368889,141.905967 86.6175072,139.123082 81.4488255,134.069548 C76.2801438,129.016014 73.3998759,122.119794 73.4599202,114.944 C73.5598068,105.752381 73.6092754,96.5607619 73.6092754,87.3691429 Z" id="路径" fill="#F8F8F8"></path>
            <path d="M178.754783,78.4822857 C178.754783,85.3942857 178.754783,92.3062857 178.754783,99.2182857 C178.754783,100.425143 178.495072,100.790857 177.196522,100.717714 C164.567489,99.9923101 154.157897,90.6905297 152.190145,78.3725714 C151.29971,71.3142857 152.004638,64.2194286 151.782029,57.1611429 C151.782029,56.3565714 152.115942,56.1737143 152.82087,56.1737143 L177.753043,56.1737143 C179.088696,56.1737143 178.717681,57.088 178.717681,57.7462857 C178.742415,64.6460952 178.754783,71.5580952 178.754783,78.4822857 Z" id="路径" fill="#F8F8F8"></path>
            <path d="M74.5368116,178.505143 C74.5368116,171.593143 74.5368116,164.681143 74.5368116,157.769143 C74.5368116,156.416 74.9078261,156.16 76.2434783,156.269714 C90.4923131,157.161161 101.560133,168.85701 101.472464,182.930286 C101.472464,188.379429 101.472464,193.901714 101.472464,199.314286 C101.472464,200.594286 101.027246,200.813714 99.84,200.813714 C91.9002899,200.813714 83.9482126,200.813714 75.9837681,200.813714 C74.7223188,200.813714 74.4255072,200.411429 74.4626087,199.241143 C74.573913,192.329143 74.5368116,185.417143 74.5368116,178.505143 Z" id="路径" fill="#F8F8F8"></path>
        </g>
    </g>
</svg>