<?xml version="1.0" encoding="UTF-8"?>
<svg width="32px" height="32px" viewBox="0 0 32 32" version="1.1" xmlns="http://www.w3.org/2000/svg" xmlns:xlink="http://www.w3.org/1999/xlink">
    <title>iADA</title>
    <defs>
        <linearGradient x1="50%" y1="100%" x2="50%" y2="0%" id="linearGradient-1">
            <stop stop-color="#FF9F31" offset="0%"></stop>
            <stop stop-color="#FFB056" offset="100%"></stop>
        </linearGradient>
        <path d="M13,25 C9.38067854,25 6.13562906,23.3977307 3.93547105,20.8638116 C2.10683435,18.757773 1,16.0081585 1,13 C1,6.37252 6.37252,1 13,1 C19.62748,1 25,6.37252 25,13 C25,19.62748 19.62748,25 13,25 Z" id="path-2"></path>
        <path d="M13,26 C9.07906842,26 5.56359815,24.2642083 3.18009363,21.5191292 C1.19907054,19.2375875 0,16.2588384 0,13 C0,5.82023 5.82023,0 13,0 C20.17977,0 26,5.82023 26,13 C26,20.17977 20.17977,26 13,26 Z" id="path-4"></path>
    </defs>
    <g id="Page-1" stroke="none" stroke-width="1" fill="none" fill-rule="evenodd">
        <g id="2442" transform="translate(-804.000000, -2988.000000)">
            <g id="ATOM" transform="translate(804.000000, 2988.000000)">
                <g id="DF备份-26"></g>
                <path d="M16,32 C11.1742381,32 6.84750542,29.8636409 3.9139614,26.4850821 C1.47577913,23.6770307 0,20.010878 0,16 C0,7.16336 7.16336,0 16,0 C24.83664,0 32,7.16336 32,16 C32,24.83664 24.83664,32 16,32 Z" id="Fill-504备份-21" fill="url(#linearGradient-1)"></path>
                <g id="ETH备份-22" transform="translate(3.000000, 3.000000)">
                    <mask id="mask-3" fill="white">
                        <use xlink:href="#path-2"></use>
                    </mask>
                    <path stroke="#FFFFFF" stroke-width="1.5" d="M13,0.25 C16.5208488,0.25 19.7083476,1.67707748 22.0156351,3.98436491 C24.3229225,6.29165234 25.75,9.47915125 25.75,13 C25.75,16.5208488 24.3229225,19.7083477 22.0156351,22.0156351 C19.7083476,24.3229225 16.5208488,25.75 13,25.75 C9.15459834,25.75 5.70677204,24.0477596 3.36915741,21.3555319 C1.42617694,19.1178038 0.25,16.1962905 0.25,13 C0.25,9.47915125 1.67707748,6.29165235 3.98436491,3.98436491 C6.29165235,1.67707748 9.47915125,0.25 13,0.25 L13,0.25 Z"></path>
                    <mask id="mask-5" fill="white">
                        <use xlink:href="#path-4"></use>
                    </mask>
                    <use id="蒙版备份" fill="#FFFFFF" xlink:href="#path-4"></use>
                </g>
                <g id="ADA" transform="translate(4.000000, 5.000000)" fill="#000000">
                    <path d="M13.1354627,6.47036418 C12.3543284,6.9153791 12.0817313,7.90940896 12.5267463,8.69066269 C12.9717612,9.47179701 13.965791,9.74427463 14.7469254,9.2993791 C15.5281791,8.85436418 15.8006567,7.86033433 15.3557612,7.0790806 C14.9107463,6.29794627 13.916597,6.02534925 13.1354627,6.47036418" id="Fill-579"></path>
                    <path d="M11.5735522,3.70625672 C11.0213134,4.02088358 10.828597,4.72357015 11.1432239,5.27580896 C11.4577313,5.82804776 12.1605373,6.02076418 12.7127761,5.70613731 C13.2650149,5.39151045 13.4576119,4.68882388 13.1431045,4.13658507 C12.8284776,3.58434627 12.125791,3.39162985 11.5735522,3.70625672" id="Fill-580"></path>
                    <path d="M11.5735522,16.5477254 C11.0213134,16.8623522 10.828597,17.5650388 11.1432239,18.1172776 C11.4577313,18.6696358 12.1605373,18.8622328 12.7127761,18.547606 C13.2650149,18.2330985 13.4576119,17.5302925 13.1431045,16.9780537 C12.8284776,16.4258149 12.125791,16.2332179 11.5735522,16.5477254" id="Fill-581"></path>
                    <path d="M17.1096358,6.88489552 C16.557397,7.19952239 16.3646806,7.90220896 16.6793075,8.45444776 C16.9939343,9.00680597 17.6966209,9.19940299 18.2488597,8.88477612 C18.8010985,8.57026866 18.9938149,7.86746269 18.6791881,7.31522388 C18.3645612,6.76298507 17.6618746,6.57038806 17.1096358,6.88489552" id="Fill-582"></path>
                    <path d="M5.92324776,13.3151642 C5.37100896,13.629791 5.17829254,14.3324776 5.4929194,14.8847164 C5.80754627,15.4369552 6.51023284,15.6296716 7.06247164,15.3150448 C7.61471045,15.0005373 7.80742687,14.2977313 7.4928,13.7454925 C7.17817313,13.1932537 6.47548657,13.0006567 5.92324776,13.3151642" id="Fill-583"></path>
                    <path d="M5.84716418,6.88489552 C5.29492537,7.19952239 5.10220896,7.90220896 5.41683582,8.45444776 C5.73146269,9.00680597 6.43414925,9.19940299 6.98638806,8.88477612 C7.53862687,8.57026866 7.73134328,7.86746269 7.41671642,7.31522388 C7.10208955,6.76298507 6.39940299,6.57038806 5.84716418,6.88489552" id="Fill-584"></path>
                    <path d="M17.1096358,13.2390806 C16.557397,13.5537075 16.3646806,14.256394 16.6793075,14.8086328 C16.9939343,15.3608716 17.6966209,15.5535881 18.2488597,15.2389612 C18.8010985,14.9243343 18.9938149,14.2216478 18.6791881,13.669409 C18.3645612,13.1171701 17.6618746,12.9244537 17.1096358,13.2390806" id="Fill-585"></path>
                    <path d="M20.022997,10.2970866 C19.5839522,10.5472358 19.4308776,11.105803 19.6809075,11.5448478 C19.9309373,11.9838925 20.4896239,12.1370866 20.9286687,11.8869373 C21.3677134,11.6369075 21.5209075,11.0782209 21.2707582,10.6391761 C21.020609,10.2001313 20.4620418,10.0470567 20.022997,10.2970866" id="Fill-586"></path>
                    <path d="M3.16735522,10.2970866 C2.72831045,10.5472358 2.57511642,11.105803 2.82526567,11.5448478 C3.07529552,11.9838925 3.63398209,12.1370866 4.07302687,11.8869373 C4.51207164,11.6369075 4.66514627,11.0782209 4.41511642,10.6391761 C4.16496716,10.2001313 3.6064,10.0470567 3.16735522,10.2970866" id="Fill-587"></path>
                    <path d="M15.4389254,3.83019701 C15.4296119,4.33539104 15.8316418,4.75246567 16.3368358,4.7617791 C16.8419104,4.77097313 17.2589851,4.36906269 17.2682985,3.86386866 C17.2776119,3.35867463 16.8755821,2.9416 16.3705075,2.93228657 C15.8653134,2.92297313 15.4482388,3.32500299 15.4389254,3.83019701" id="Fill-588"></path>
                    <path d="M6.82768955,18.3202388 C6.81837612,18.8254328 7.22040597,19.2425075 7.7256,19.2518209 C8.23067463,19.2610149 8.64786866,18.8591045 8.65706269,18.3539104 C8.66637612,17.8487164 8.26446567,17.4316418 7.75927164,17.4223284 C7.25407761,17.4130149 6.83700299,17.8150448 6.82768955,18.3202388" id="Fill-589"></path>
                    <path d="M7.33322985,4.61104478 C7.77084179,4.86358209 8.33036418,4.71361194 8.58290149,4.276 C8.83543881,3.83838806 8.68546866,3.27886567 8.24785672,3.02632836 C7.81012537,2.77379104 7.25072239,2.92376119 6.99806567,3.36137313 C6.74552836,3.79898507 6.89561791,4.35850746 7.33322985,4.61104478" id="Fill-590"></path>
                    <path d="M15.8482149,19.157803 C16.2859463,19.4103403 16.8453493,19.2602507 17.0978866,18.8226388 C17.3505433,18.3850269 17.2004537,17.8256239 16.7628418,17.5730866 C16.3252299,17.3204299 15.7657075,17.4705194 15.5131701,17.9081313 C15.2606328,18.3457433 15.410603,18.9052657 15.8482149,19.157803" id="Fill-591"></path>
                    <path d="M14.9998567,9.72672239 C14.2187224,10.1717373 13.9461254,11.1657672 14.3911403,11.9469015 C14.8361552,12.7281552 15.8301851,13.0006328 16.6114388,12.5556179 C17.3925731,12.110603 17.6650507,11.1166925 17.2201552,10.3354388 C16.7751403,9.55430448 15.780991,9.28170746 14.9998567,9.72672239" id="Fill-592"></path>
                    <path d="M13.1354627,12.983009 C12.3543284,13.4280239 12.0817313,14.4220537 12.5267463,15.2031881 C12.9717612,15.9844418 13.965791,16.2569194 14.7469254,15.8119045 C15.5281791,15.367009 15.8006567,14.3729791 15.3557612,13.5917254 C14.9107463,12.810591 13.916597,12.537994 13.1354627,12.983009" id="Fill-593"></path>
                    <path d="M10.9610866,6.47036418 C11.7422209,6.9153791 12.0148179,7.90940896 11.5699224,8.69066269 C11.1249075,9.47179701 10.1307582,9.74427463 9.34962388,9.2993791 C8.56837015,8.85436418 8.29589254,7.86033433 8.74090746,7.0790806 C9.18592239,6.29794627 10.1799522,6.02534925 10.9610866,6.47036418" id="Fill-594"></path>
                    <path d="M9.09669254,9.72672239 C9.87782687,10.1717373 10.1504239,11.1657672 9.70540896,11.9469015 C9.26051343,12.7281552 8.26636418,13.0006328 7.48522985,12.5556179 C6.70397612,12.110603 6.43149851,11.1166925 6.87651343,10.3354388 C7.32140896,9.55430448 8.31555821,9.28170746 9.09669254,9.72672239" id="Fill-595"></path>
                    <path d="M10.9610866,12.983009 C11.7422209,13.4280239 12.0148179,14.4220537 11.5699224,15.2031881 C11.1249075,15.9844418 10.1307582,16.2569194 9.34962388,15.8119045 C8.56837015,15.367009 8.29589254,14.3729791 8.74090746,13.5917254 C9.18592239,12.810591 10.1799522,12.537994 10.9610866,12.983009" id="Fill-596"></path>
                    <path d="M12.7537552,0.841337313 C12.7537552,1.2406209 12.4301731,1.56432239 12.0307701,1.56432239 C11.631606,1.56432239 11.3079045,1.2406209 11.3079045,0.841337313 C11.3079045,0.442053731 11.631606,0.118352239 12.0307701,0.118352239 C12.4301731,0.118352239 12.7537552,0.442053731 12.7537552,0.841337313" id="Fill-597"></path>
                    <path d="M12.7537552,21.292597 C12.7537552,21.6918806 12.4301731,22.0155821 12.0307701,22.0155821 C11.631606,22.0155821 11.3079045,21.6918806 11.3079045,21.292597 C11.3079045,20.8933134 11.631606,20.5697313 12.0307701,20.5697313 C12.4301731,20.5697313 12.7537552,20.8933134 12.7537552,21.292597" id="Fill-598"></path>
                    <path d="M3.5049791,5.37521194 C3.85184478,5.57294328 3.9726806,6.01437612 3.77506866,6.36124179 C3.57733731,6.70822687 3.13590448,6.82906269 2.7889194,6.63133134 C2.44217313,6.4336 2.32121791,5.99216716 2.51894925,5.64530149 C2.71656119,5.29843582 3.15811343,5.1774806 3.5049791,5.37521194" id="Fill-599"></path>
                    <path d="M21.2727045,15.502603 C21.6195701,15.7003343 21.740406,16.1417672 21.542794,16.4886328 C21.3450627,16.8354985 20.9036299,16.9564537 20.5566448,16.7587224 C20.2097791,16.560991 20.0889433,16.1195582 20.2866746,15.7726925 C20.4842866,15.4258269 20.9258388,15.3048716 21.2727045,15.502603" id="Fill-600"></path>
                    <path d="M2.78675821,15.4979343 C3.13374328,15.3004418 3.57517612,15.4215164 3.77266866,15.7685015 C3.9702806,16.1154866 3.84908657,16.5569194 3.50210149,16.7544119 C3.15511642,16.9520239 2.71380299,16.8308299 2.51619104,16.4838448 C2.31869851,16.1369791 2.43977313,15.6955463 2.78675821,15.4979343" id="Fill-601"></path>
                    <path d="M20.5595582,5.37946269 C20.9065433,5.18197015 21.3479761,5.30304478 21.5454687,5.65002985 C21.7430806,5.99701493 21.6218866,6.43844776 21.2749015,6.6359403 C20.9279164,6.83355224 20.4864836,6.71235821 20.288991,6.36537313 C20.0914985,6.01850746 20.2125731,5.57707463 20.5595582,5.37946269" id="Fill-602"></path>
                    <path d="M6.87549851,1.29789851 C6.87549851,1.62374925 6.6113791,1.88786866 6.28552836,1.88786866 C5.95955821,1.88786866 5.69543881,1.62374925 5.69543881,1.29789851 C5.69543881,0.972047761 5.95955821,0.707928358 6.28552836,0.707928358 C6.6113791,0.707928358 6.87549851,0.972047761 6.87549851,1.29789851" id="Fill-603"></path>
                    <path d="M18.4005612,20.8550448 C18.4005612,21.1808955 18.1364418,21.4450149 17.810591,21.4450149 C17.4847403,21.4450149 17.2205015,21.1808955 17.2205015,20.8550448 C17.2205015,20.529194 17.4847403,20.2650746 17.810591,20.2650746 C18.1364418,20.2650746 18.4005612,20.529194 18.4005612,20.8550448" id="Fill-604"></path>
                    <path d="M18.0734328,1.79912836 C17.7887761,1.95769552 17.4293731,1.85548657 17.270806,1.57082985 C17.1122388,1.28617313 17.2145672,0.926770149 17.4991045,0.768202985 C17.7838806,0.609635821 18.1431642,0.711844776 18.3017313,0.996501493 C18.4602985,1.28127761 18.3580896,1.64056119 18.0734328,1.79912836" id="Fill-605"></path>
                    <path d="M6.59687164,21.3847761 C6.31221493,21.5433433 5.95281194,21.4411343 5.79424478,21.1564776 C5.63567761,20.8718209 5.73788657,20.5124179 6.02254328,20.3538507 C6.3073194,20.1952836 6.66660299,20.2974925 6.82517015,20.5821493 C6.98373731,20.8669254 6.88152836,21.226209 6.59687164,21.3847761" id="Fill-606"></path>
                    <path d="M23.1000119,11.5551881 C22.8188179,11.3905313 22.7243701,11.0290985 22.8890269,10.7479045 C23.0536836,10.4667104 23.4152358,10.3722627 23.6964299,10.5369194 C23.9776239,10.7016955 24.0720716,11.063009 23.9072955,11.344203 C23.7426388,11.625397 23.3810866,11.7198448 23.1000119,11.5551881" id="Fill-607"></path>
                    <path d="M0.399629851,11.6160597 C0.118435821,11.451403 0.0239880597,11.0898507 0.188644776,10.8086567 C0.353420896,10.5275821 0.714853731,10.4331343 0.996047761,10.597791 C1.27724179,10.7624478 1.37168955,11.1238806 1.20691343,11.4050746 C1.04225672,11.6862687 0.680823881,11.7807164 0.399629851,11.6160597" id="Fill-608"></path>
                </g>
            </g>
        </g>
    </g>
</svg>