<?xml version="1.0" encoding="UTF-8"?>
<svg width="32px" height="32px" viewBox="0 0 32 32" version="1.1" xmlns="http://www.w3.org/2000/svg" xmlns:xlink="http://www.w3.org/1999/xlink">
    <title>iATOM</title>
    <defs>
        <linearGradient x1="50%" y1="100%" x2="50%" y2="0%" id="linearGradient-1">
            <stop stop-color="#FF9F31" offset="0%"></stop>
            <stop stop-color="#FFB056" offset="100%"></stop>
        </linearGradient>
        <path d="M13,25 C9.38067854,25 6.13562906,23.3977307 3.93547105,20.8638116 C2.10683435,18.757773 1,16.0081585 1,13 C1,6.37252 6.37252,1 13,1 C19.62748,1 25,6.37252 25,13 C25,19.62748 19.62748,25 13,25 Z" id="path-2"></path>
        <path d="M13,26 C9.07906842,26 5.56359815,24.2642083 3.18009363,21.5191292 C1.19907054,19.2375875 0,16.2588384 0,13 C0,5.82023 5.82023,0 13,0 C20.17977,0 26,5.82023 26,13 C26,20.17977 20.17977,26 13,26 Z" id="path-4"></path>
    </defs>
    <g id="Page-1" stroke="none" stroke-width="1" fill="none" fill-rule="evenodd">
        <g id="2442" transform="translate(-804.000000, -2833.000000)">
            <g id="iATOM" transform="translate(804.000000, 2833.000000)">
                <g id="ATOM">
                    <g id="DF备份-26"></g>
                    <path d="M16,32 C11.1742381,32 6.84750542,29.8636409 3.9139614,26.4850821 C1.47577913,23.6770307 0,20.010878 0,16 C0,7.16336 7.16336,0 16,0 C24.83664,0 32,7.16336 32,16 C32,24.83664 24.83664,32 16,32 Z" id="Fill-504备份-21" fill="url(#linearGradient-1)"></path>
                    <g id="ETH备份-22" transform="translate(3.000000, 3.000000)">
                        <mask id="mask-3" fill="white">
                            <use xlink:href="#path-2"></use>
                        </mask>
                        <path stroke="#FFFFFF" stroke-width="1.5" d="M13,0.25 C16.5208488,0.25 19.7083476,1.67707748 22.0156351,3.98436491 C24.3229225,6.29165234 25.75,9.47915125 25.75,13 C25.75,16.5208488 24.3229225,19.7083477 22.0156351,22.0156351 C19.7083476,24.3229225 16.5208488,25.75 13,25.75 C9.15459834,25.75 5.70677204,24.0477596 3.36915741,21.3555319 C1.42617694,19.1178038 0.25,16.1962905 0.25,13 C0.25,9.47915125 1.67707748,6.29165235 3.98436491,3.98436491 C6.29165235,1.67707748 9.47915125,0.25 13,0.25 L13,0.25 Z"></path>
                        <mask id="mask-5" fill="white">
                            <use xlink:href="#path-4"></use>
                        </mask>
                        <use id="蒙版备份" fill="#FFFFFF" xlink:href="#path-4"></use>
                    </g>
                </g>
                <g id="ATOM" transform="translate(4.000000, 4.000000)">
                    <path d="M12,0.02304 C18.6146953,0.02304 23.9770312,5.38530469 23.9770312,12 C23.9770312,18.6146953 18.6146953,23.9770312 12,23.9770312 C5.38530469,23.9770312 0.02304,18.6146953 0.02304,12 C0.02304,5.38530469 5.38530469,0.02304 12,0.02304 Z" id="路径" fill="#2E3148"></path>
                    <path d="M11.9769609,5.09020313 C15.7931484,5.09020313 18.8867578,8.18383594 18.8867578,12 C18.8867578,15.8161641 15.7931484,18.9097969 11.9769609,18.9097969 C8.16079687,18.9097969 5.0671875,15.8161641 5.0671875,12 C5.0671875,8.18383594 8.16079687,5.09020313 11.9769609,5.09020313 Z" id="路径" fill="#161931"></path>
                    <path d="M12.1881328,2.07162891 C12.0929766,1.98407109 12.043875,1.98241406 12.035625,1.98241406 C12.027375,1.98241406 11.9782734,1.98407109 11.8831406,2.07162891 C11.7854766,2.16150703 11.6687344,2.31658125 11.5429453,2.55585937 C11.2918594,3.03344531 11.0515547,3.75532031 10.8444375,4.68677344 C10.4319141,6.54213281 10.1726953,9.12796875 10.1726953,12 C10.1726953,14.8720312 10.4319141,17.4578672 10.8444375,19.3132031 C11.0515547,20.2446797 11.2918594,20.9665547 11.5429453,21.4441406 C11.6687344,21.6834141 11.7854766,21.8385 11.8831406,21.9283594 C11.9782734,22.0159219 12.027375,22.0175859 12.035625,22.0175859 C12.043875,22.0175859 12.0929766,22.0159219 12.1881328,21.9283594 C12.2857969,21.8385 12.4025391,21.6834141 12.5283281,21.4441406 C12.7793906,20.9665547 13.0196953,20.2446797 13.2268125,19.3132031 C13.6393594,17.4578672 13.8985781,14.8720312 13.8985781,12 C13.8985781,9.12796875 13.6393594,6.54213281 13.2268125,4.68677344 C13.0196953,3.75532031 12.7793906,3.03344531 12.5283281,2.55585937 C12.4025391,2.31658125 12.2857969,2.16150703 12.1881328,2.07162891 Z M14.3673281,12 C14.3673281,6.20854687 13.323375,1.51366406 12.035625,1.51366406 C10.747875,1.51366406 9.70394531,6.20854687 9.70394531,12 C9.70394531,17.7914297 10.747875,22.4863359 12.035625,22.4863359 C13.323375,22.4863359 14.3673281,17.7914297 14.3673281,12 Z" id="形状" fill="#6F7390"></path>
                    <path d="M20.7155156,7.16749219 C20.7438047,7.04142188 20.7206719,6.99829687 20.7166641,6.99138281 C20.7126328,6.98439844 20.6867344,6.94272656 20.5631953,6.904125 C20.4363984,6.86451563 20.2435781,6.84100781 19.9732969,6.85176562 C19.4338125,6.87325781 18.6880313,7.02623437 17.77725,7.31271094 C15.9631406,7.88334375 13.5926953,8.95192969 11.1038672,10.3879453 C8.6150625,11.8239609 6.50383594,13.3412344 5.10232031,14.6259844 C4.39867969,15.2709844 3.89327344,15.8399297 3.60492188,16.2960234 C3.46047656,16.5245391 3.38449219,16.7031094 3.35545313,16.8325078 C3.32716406,16.9585313 3.35027344,17.0016797 3.35430469,17.0086172 C3.3583125,17.0156016 3.38423438,17.0572734 3.50777344,17.095875 C3.63454688,17.1354844 3.82736719,17.1589922 4.09767188,17.1482344 C4.63715625,17.1267187 5.3829375,16.9737656 6.29369531,16.6872656 C8.10780469,16.1166562 10.4782734,15.0480703 12.9670781,13.6120547 C15.4559063,12.1760391 17.5671328,10.6587656 18.9686484,9.37401563 C19.6722891,8.72901562 20.1776953,8.16007031 20.4660234,7.70397656 C20.6104922,7.47546094 20.6864766,7.29689062 20.7155156,7.16749219 Z M2.94841406,17.2431094 C3.5923125,18.3576562 8.18271094,16.9137656 13.2013359,14.0180625 C18.2199844,11.1223828 21.7664297,7.8714375 21.1225547,6.75689062 C20.4786562,5.64234375 15.8882578,7.08623438 10.8696094,9.9819375 C5.85096094,12.8776172 2.30452969,16.1285625 2.94841406,17.2431094 Z" id="形状" fill="#6F7390"></path>
                    <path d="M21.1225547,17.2431094 C21.7664297,16.1285625 18.2199844,12.8776172 13.2013359,9.9819375 C8.18271094,7.08623437 3.5923125,5.64234375 2.94841406,6.75689062 C2.30452969,7.8714375 5.85096094,11.1223828 10.8696094,14.0180625 C15.8882578,16.9137656 20.4786562,18.3576562 21.1225547,17.2431094 Z M3.35430469,6.99138281 C3.35833594,6.984375 3.38428125,6.94270312 3.50777344,6.904125 C3.63454688,6.86451562 3.82736719,6.84100781 4.09767188,6.85176562 C4.63715625,6.87325781 5.3829375,7.02623437 6.29369531,7.31271094 C8.10780469,7.88334375 10.4782734,8.95192969 12.9670781,10.3879453 C15.4559063,11.8239609 17.5671328,13.3412344 18.9686484,14.6259844 C19.6722891,15.2709844 20.1776953,15.8399297 20.4660234,16.2960234 C20.6104922,16.5245391 20.6864766,16.7031094 20.7155156,16.8325078 C20.7438047,16.9585781 20.7206719,17.0017031 20.7166641,17.0086172 C20.7126328,17.0156016 20.6867344,17.0572734 20.5631953,17.095875 C20.4363984,17.1354844 20.2435781,17.1589922 19.9732969,17.1482344 C19.4338125,17.1267187 18.6880313,16.9737656 17.77725,16.6872656 C15.9631406,16.1166562 13.5926953,15.0480703 11.1038906,13.6120547 C8.6150625,12.1760391 6.50383594,10.6587656 5.10232031,9.37401562 C4.39867969,8.72901562 3.89327344,8.16007031 3.60492188,7.70397656 C3.46047656,7.47546094 3.38449219,7.29689062 3.35545313,7.16749219 C3.32716406,7.04146875 3.35027344,6.99832031 3.35430469,6.99138281" id="形状" fill="#6F7390"></path>
                    <path d="M5.33313281,9.06335156 C5.74038281,9.06335156 6.07054687,9.39365625 6.07054687,9.80109375 C6.07054687,10.2085547 5.74038281,10.5388594 5.33313281,10.5388594 C4.92588281,10.5388594 4.59571875,10.2085547 4.59571875,9.80109375 C4.59571875,9.39365625 4.92588281,9.06335156 5.33313281,9.06335156 Z" id="路径" fill="#B7B9C8"></path>
                    <path d="M17.0527969,6.53695313 C17.4602344,6.53695313 17.7905625,6.86725781 17.7905625,7.27471875 C17.7905625,7.68217969 17.4602344,8.01248438 17.0527969,8.01248438 C16.6453359,8.01248438 16.3150313,7.68217969 16.3150313,7.27471875 C16.3150313,6.86725781 16.6453359,6.53695313 17.0527969,6.53695313 Z" id="路径" fill="#B7B9C8"></path>
                    <path d="M10.5496641,18.1166016 C10.957125,18.1166016 11.2874297,18.4467422 11.2874297,18.8540156 C11.2874297,19.2612656 10.957125,19.5914062 10.5496641,19.5914062 C10.1422031,19.5914062 9.81189844,19.2612656 9.81189844,18.8540156 C9.81189844,18.4467422 10.1422031,18.1166016 10.5496641,18.1166016 Z" id="路径" fill="#B7B9C8"></path>
                    <path d="M11.9945391,10.7454609 C12.684375,10.7454609 13.2435937,11.3047031 13.2435937,11.9945391 C13.2435937,12.684375 12.684375,13.2435937 11.9945391,13.2435937 C11.3047031,13.2435937 10.7454609,12.684375 10.7454609,11.9945391 C10.7454609,11.3047031 11.3047031,10.7454609 11.9945391,10.7454609 Z" id="路径" fill="#B7B9C8"></path>
                </g>
            </g>
        </g>
    </g>
</svg>