<?xml version="1.0" encoding="UTF-8"?>
<svg width="32px" height="32px" viewBox="0 0 32 32" version="1.1" xmlns="http://www.w3.org/2000/svg" xmlns:xlink="http://www.w3.org/1999/xlink">
    <title>iBNB</title>
    <defs>
        <linearGradient x1="50%" y1="100%" x2="50%" y2="0%" id="linearGradient-1">
            <stop stop-color="#FF9F31" offset="0%"></stop>
            <stop stop-color="#FFB056" offset="100%"></stop>
        </linearGradient>
        <path d="M13,25 C9.38067854,25 6.13562906,23.3977307 3.93547105,20.8638116 C2.10683435,18.757773 1,16.0081585 1,13 C1,6.37252 6.37252,1 13,1 C19.62748,1 25,6.37252 25,13 C25,19.62748 19.62748,25 13,25 Z" id="path-2"></path>
        <path d="M13,26 C9.07906842,26 5.56359815,24.2642083 3.18009363,21.5191292 C1.19907054,19.2375875 0,16.2588384 0,13 C0,5.82023 5.82023,0 13,0 C20.17977,0 26,5.82023 26,13 C26,20.17977 20.17977,26 13,26 Z" id="path-4"></path>
    </defs>
    <g id="Page-1" stroke="none" stroke-width="1" fill="none" fill-rule="evenodd">
        <g id="2442" transform="translate(-486.000000, -3385.000000)">
            <g id="iBNB" transform="translate(486.000000, 3385.000000)">
                <g id="DF备份-26"></g>
                <path d="M16,32 C11.1742381,32 6.84750542,29.8636409 3.9139614,26.4850821 C1.47577913,23.6770307 0,20.010878 0,16 C0,7.16336 7.16336,0 16,0 C24.83664,0 32,7.16336 32,16 C32,24.83664 24.83664,32 16,32 Z" id="Fill-504备份-21" fill="url(#linearGradient-1)"></path>
                <g id="ETH备份-22" transform="translate(3.000000, 3.000000)">
                    <mask id="mask-3" fill="white">
                        <use xlink:href="#path-2"></use>
                    </mask>
                    <path stroke="#FFFFFF" stroke-width="1.5" d="M13,0.25 C16.5208488,0.25 19.7083476,1.67707748 22.0156351,3.98436491 C24.3229225,6.29165234 25.75,9.47915125 25.75,13 C25.75,16.5208488 24.3229225,19.7083477 22.0156351,22.0156351 C19.7083476,24.3229225 16.5208488,25.75 13,25.75 C9.15459834,25.75 5.70677204,24.0477596 3.36915741,21.3555319 C1.42617694,19.1178038 0.25,16.1962905 0.25,13 C0.25,9.47915125 1.67707748,6.29165235 3.98436491,3.98436491 C6.29165235,1.67707748 9.47915125,0.25 13,0.25 L13,0.25 Z"></path>
                    <mask id="mask-5" fill="white">
                        <use xlink:href="#path-4"></use>
                    </mask>
                    <use id="蒙版备份" fill="#FFFFFF" xlink:href="#path-4"></use>
                </g>
                <path d="M19.5703321,17.3849893 L21.5926742,19.4073314 L15.9999833,25.0000222 L10.4389593,19.4388871 L12.4613014,17.416545 L15.9999833,20.9553381 L19.5703321,17.3849893 Z M16.0000056,13.8194406 L18.1805705,16.0000056 L16.0000056,18.1804594 L13.8194406,16.0000056 L16.0000056,13.8194406 Z M9.09700906,13.9028854 L11.1193511,15.9253386 L11.0446841,16.0000056 L11.0854621,16.0407835 L9.06312003,18.0631256 L7,16.0000056 L9.09700906,13.9028854 Z M22.9545467,13.9544412 L25,16.0000056 L22.9685468,18.0314588 L20.9460936,16.0091167 L20.9553159,16.0000056 L20.9320935,15.9767832 L22.9545467,13.9544412 Z M15.99995,7 L21.5786408,12.5786908 L19.5562987,14.6010328 L15.99995,11.0446841 L12.4951571,14.5494771 L10.472815,12.527135 L15.99995,7 Z" id="形状结合" fill="#F4BB0B"></path>
            </g>
        </g>
    </g>
</svg>