<?xml version="1.0" encoding="UTF-8"?>
<svg width="32px" height="32px" viewBox="0 0 32 32" version="1.1" xmlns="http://www.w3.org/2000/svg" xmlns:xlink="http://www.w3.org/1999/xlink">
    <title>iBTCB</title>
    <defs>
        <linearGradient x1="50%" y1="100%" x2="50%" y2="0%" id="linearGradient-1">
            <stop stop-color="#FF9F31" offset="0%"></stop>
            <stop stop-color="#FFB056" offset="100%"></stop>
        </linearGradient>
        <path d="M16,32 C11.1742381,32 6.84750542,29.8636409 3.9139614,26.4850821 C1.47577913,23.6770307 0,20.010878 0,16 C0,7.16336 7.16336,0 16,0 C24.83664,0 32,7.16336 32,16 C32,24.83664 24.83664,32 16,32 Z" id="path-2"></path>
        <path d="M12,24 C8.38067854,24 5.13562906,22.3977307 2.93547105,19.8638116 C1.10683435,17.757773 0,15.0081585 0,12 C0,5.37252 5.37252,0 12,0 C18.62748,0 24,5.37252 24,12 C24,18.62748 18.62748,24 12,24 Z" id="path-4"></path>
    </defs>
    <g id="Page-1" stroke="none" stroke-width="1" fill="none" fill-rule="evenodd">
        <g id="2442" transform="translate(-804.000000, -2665.000000)">
            <g id="iBTCB" transform="translate(804.000000, 2665.000000)">
                <g id="DF备份-35"></g>
                <g id="矩形备份-2">
                    <mask id="mask-3" fill="white">
                        <use xlink:href="#path-2"></use>
                    </mask>
                    <use id="蒙版" fill="url(#linearGradient-1)" xlink:href="#path-2"></use>
                </g>
                <g id="ETH备份-29" transform="translate(4.000000, 4.000000)">
                    <mask id="mask-5" fill="white">
                        <use xlink:href="#path-4"></use>
                    </mask>
                    <path stroke="#FFFFFF" stroke-width="1.5" d="M12,-0.75 C15.5208488,-0.75 18.7083476,0.677077477 21.0156351,2.98436491 C23.3229225,5.29165234 24.75,8.47915125 24.75,12 C24.75,15.5208488 23.3229225,18.7083477 21.0156351,21.0156351 C18.7083476,23.3229225 15.5208488,24.75 12,24.75 C8.15459834,24.75 4.70677204,23.0477596 2.36915741,20.3555319 C0.426176942,18.1178038 -0.75,15.1962905 -0.75,12 C-0.75,8.47915125 0.677077479,5.29165235 2.98436491,2.98436491 C5.29165235,0.67707748 8.47915125,-0.75 12,-0.75 Z"></path>
                </g>
                <g id="BTC" transform="translate(4.000000, 4.000000)">
                    <path d="M23.8980657,11.9398687 C23.8980657,18.5343761 18.5522746,23.8801672 11.9577672,23.8801672 C5.3632597,23.8801672 0.0174686567,18.5343761 0.0174686567,11.9398687 C0.0174686567,5.34536119 5.3632597,-0.000429850746 11.9577672,-0.000429850746 C18.5522746,-0.000429850746 23.8980657,5.34536119 23.8980657,11.9398687 L11.9566661,10.2372142" id="Fill-504" fill="#F7931A"></path>
                    <path d="M14.8568358,15.4294925 C14.7568955,15.7653731 14.5320597,16.0421493 14.2237612,16.2088358 C13.9154627,16.3757612 13.5608358,16.4125373 13.2249552,16.3124776 L9.86244776,15.3110448 L10.6115821,12.7960597 L13.9738507,13.7976119 L13.9739701,13.7976119 C14.6672239,14.0040597 15.063403,14.7361194 14.8568358,15.4294925 M15.9909254,10.2754627 C16.1576119,10.5837612 16.1943881,10.9383881 16.0944478,11.2743881 C15.8878806,11.9675224 15.1554627,12.3634627 14.4625672,12.1573731 L14.4624478,12.1573731 L11.1000597,11.1559403 L11.8489552,8.64095522 L15.2114627,9.64238806 C15.5473433,9.74244776 15.8241194,9.96716418 15.9909254,10.2754627 M15.6999403,8.00214925 L15.2550448,7.86973134 L15.8778507,5.77850746 L14.2798806,5.30256716 L13.6570746,7.39379104 L12.2927761,6.98746269 L12.9157015,4.89623881 L12.5328955,4.78220896 L10.9820896,4.32035821 L10.3817313,6.3361194 L8.4918209,5.77325373 L7.95844776,7.56429851 L9.84835821,8.12728358 L7.90674627,14.6464478 L6.01683582,14.0835821 L5.48346269,15.8747463 L7.37325373,16.4374925 L6.86662687,18.1388657 C6.60481892,18.06092 6.73238111,18.0989299 7.24931343,18.2528955 C7.76624576,18.4068611 8.28318108,18.5608113 8.8001194,18.7147463 L9.32931343,16.9379104 L10.6968358,17.345194 L10.1676418,19.1221493 L11.7591642,19.5961791 L12.2883582,17.8192239 L12.7363582,17.952597 C13.0219701,18.0376119 13.3136716,18.0797612 13.6035821,18.0797612 C14.0991045,18.0797612 14.5899701,17.9566567 15.0380896,17.7141493 C15.7484179,17.329791 16.2665075,16.6919403 16.4970746,15.9178507 C16.7394627,15.1036418 16.6198209,14.2672239 16.2342687,13.5787463 C16.934209,13.2134925 17.4919403,12.5774328 17.7345672,11.7628657 C17.9651343,10.9887761 17.8803582,10.1713433 17.4961194,9.46113433 C17.1117612,8.75080597 16.473791,8.23259701 15.6999403,8.00214925 Z" id="Fill-505" fill="#FFFFFF"></path>
                </g>
            </g>
        </g>
    </g>
</svg>