<?xml version="1.0" encoding="UTF-8"?>
<svg width="32px" height="32px" viewBox="0 0 32 32" version="1.1" xmlns="http://www.w3.org/2000/svg" xmlns:xlink="http://www.w3.org/1999/xlink">
    <title>iBUSD</title>
    <defs>
        <linearGradient x1="50%" y1="100%" x2="50%" y2="0%" id="linearGradient-1">
            <stop stop-color="#FF9F31" offset="0%"></stop>
            <stop stop-color="#FFB056" offset="100%"></stop>
        </linearGradient>
        <filter color-interpolation-filters="auto" id="filter-2">
            <feColorMatrix in="SourceGraphic" type="matrix" values="0 0 0 0 1.000000 0 0 0 0 1.000000 0 0 0 0 1.000000 0 0 0 1.000000 0"></feColorMatrix>
        </filter>
        <path d="M12,24 C8.38067854,24 5.13562906,22.3977307 2.93547105,19.8638116 C1.10683435,17.757773 0,15.0081585 0,12 C0,5.37252 5.37252,0 12,0 C18.62748,0 24,5.37252 24,12 C24,18.62748 18.62748,24 12,24 Z" id="path-3"></path>
    </defs>
    <g id="Page-1" stroke="none" stroke-width="1" fill="none" fill-rule="evenodd">
        <g id="2442" transform="translate(-804.000000, -2313.000000)">
            <g id="iBUSD" transform="translate(804.000000, 2313.000000)">
                <g id="DF备份-28"></g>
                <path d="M16,32 C11.1742381,32 6.84750542,29.8636409 3.9139614,26.4850821 C1.47577913,23.6770307 0,20.010878 0,16 C0,7.16336 7.16336,0 16,0 C24.83664,0 32,7.16336 32,16 C32,24.83664 24.83664,32 16,32 Z" id="Fill-504备份-23" fill="url(#linearGradient-1)"></path>
                <g filter="url(#filter-2)" id="ETH备份-24">
                    <g transform="translate(4.000000, 4.000000)">
                        <mask id="mask-4" fill="white">
                            <use xlink:href="#path-3"></use>
                        </mask>
                        <path stroke="#FFFFFF" stroke-width="1.5" d="M12,-0.75 C15.5208488,-0.75 18.7083476,0.677077477 21.0156351,2.98436491 C23.3229225,5.29165234 24.75,8.47915125 24.75,12 C24.75,15.5208488 23.3229225,18.7083477 21.0156351,21.0156351 C18.7083476,23.3229225 15.5208488,24.75 12,24.75 C8.15459834,24.75 4.70677204,23.0477596 2.36915741,20.3555319 C0.426176942,18.1178038 -0.75,15.1962905 -0.75,12 C-0.75,8.47915125 0.677077479,5.29165235 2.98436491,2.98436491 C5.29165235,0.67707748 8.47915125,-0.75 12,-0.75 Z"></path>
                    </g>
                </g>
                <g id="BUSD备份-2" transform="translate(4.000000, 4.000000)">
                    <path d="M24,12 C24,18.62748 18.62748,24 12,24 C5.37264,24 0,18.62748 0,12 C0,5.37252 5.37264,0 12,0 C18.62748,0 24,5.37252 24,12" id="Fill-506" fill="#212121"></path>
                    <path d="M18.3834779,9.99402985 C19.0502427,10.6596167 19.742224,11.3504207 20.4,12.006939 L14.7976068,17.6100086 C13.8652751,18.5424767 12.9348377,19.473068 12.008086,20.4 C11.3609694,19.7523912 10.663897,19.0548256 9.99402985,18.3845453 L12.0736056,16.3047068 L12.0736056,16.3047068 L18.3834779,9.99402985 L18.3834779,9.99402985 Z M15.2537907,6.73432836 C15.9175895,7.39630542 16.6109595,8.08785781 17.2656716,8.74074704 C14.4751344,11.531988 11.6556635,14.3521665 8.86815504,17.1402985 C8.22826834,16.4995264 7.53059416,15.8007994 6.85970149,15.129017 C8.24452854,13.7441585 9.64011601,12.3484981 11.0409641,10.9475465 L15.2537907,6.73432836 L15.2537907,6.73432836 Z M5.61763738,10.119403 C6.2514776,10.7550796 6.94436829,11.4500807 7.6119403,12.1196231 L6.83101994,12.8996537 C6.43000053,13.3002066 6.01546617,13.7142474 5.59787452,14.1313433 L4.25725111,12.7917768 C4.03558547,12.5702763 3.81593638,12.3507878 3.6,12.1350094 C4.2765407,11.4592015 4.96490736,10.7714969 5.61763738,10.119403 Z M12.1235037,3.6 C12.7822065,4.25769558 13.4731189,4.9475186 14.1313433,5.60481557 L8.86419257,10.8716418 L8.86419257,10.8716418 L7.52943019,9.53604882 C7.30465674,9.31114498 7.08051814,9.08688186 6.85970149,8.86594929 C8.61337208,7.11161608 10.3805962,5.34365064 12.1235037,3.6 Z" id="形状结合" fill="#F4BB0B"></path>
                </g>
            </g>
        </g>
    </g>
</svg>