<?xml version="1.0" encoding="UTF-8"?>
<svg width="32px" height="32px" viewBox="0 0 32 32" version="1.1" xmlns="http://www.w3.org/2000/svg" xmlns:xlink="http://www.w3.org/1999/xlink">
    <title>iDAI</title>
    <defs>
        <linearGradient x1="50%" y1="100%" x2="50%" y2="0%" id="linearGradient-1">
            <stop stop-color="#FF9F31" offset="0%"></stop>
            <stop stop-color="#FFB056" offset="100%"></stop>
        </linearGradient>
        <path d="M12,24 C8.38067854,24 5.13562906,22.3977307 2.93547105,19.8638116 C1.10683435,17.757773 0,15.0081585 0,12 C0,5.37252 5.37252,0 12,0 C18.62748,0 24,5.37252 24,12 C24,18.62748 18.62748,24 12,24 Z" id="path-2"></path>
        <linearGradient x1="50%" y1="-14.166665%" x2="50%" y2="110.5%" id="linearGradient-4">
            <stop stop-color="#F9A606" offset="0%"></stop>
            <stop stop-color="#FBCC5F" offset="100%"></stop>
        </linearGradient>
    </defs>
    <g id="Page-1" stroke="none" stroke-width="1" fill="none" fill-rule="evenodd">
        <g id="2442" transform="translate(-804.000000, -2485.000000)">
            <g id="iDAI" transform="translate(804.000000, 2485.000000)">
                <g id="DF备份-29"></g>
                <path d="M16,32 C11.1742381,32 6.84750542,29.8636409 3.9139614,26.4850821 C1.47577913,23.6770307 0,20.010878 0,16 C0,7.16336 7.16336,0 16,0 C24.83664,0 32,7.16336 32,16 C32,24.83664 24.83664,32 16,32 Z" id="Fill-504备份-24" fill="url(#linearGradient-1)"></path>
                <g id="ETH备份-25" transform="translate(4.000000, 4.000000)">
                    <mask id="mask-3" fill="white">
                        <use xlink:href="#path-2"></use>
                    </mask>
                    <path stroke="#FFFFFF" stroke-width="1.5" d="M12,-0.75 C15.5208488,-0.75 18.7083476,0.677077477 21.0156351,2.98436491 C23.3229225,5.29165234 24.75,8.47915125 24.75,12 C24.75,15.5208488 23.3229225,18.7083477 21.0156351,21.0156351 C18.7083476,23.3229225 15.5208488,24.75 12,24.75 C8.15459834,24.75 4.70677204,23.0477596 2.36915741,20.3555319 C0.426176942,18.1178038 -0.75,15.1962905 -0.75,12 C-0.75,8.47915125 0.677077479,5.29165235 2.98436491,2.98436491 C5.29165235,0.67707748 8.47915125,-0.75 12,-0.75 Z"></path>
                </g>
                <g id="DAI备份-2" transform="translate(4.000000, 4.000000)">
                    <circle id="椭圆形" fill="url(#linearGradient-4)" fill-rule="nonzero" cx="11.973582" cy="11.973582" r="11.973582"></circle>
                    <path d="M7.43258904,6.33494683 L11.9936976,6.33494683 C14.7680963,6.33494683 16.8711362,7.82616068 17.6534901,9.99602517 L19.0742753,9.99602517 L19.0742753,11.3076113 L17.9527099,11.3076113 C17.9746215,11.514874 17.9858767,11.7259683 17.9858767,11.9405349 L17.9858767,11.9727438 C17.9858767,12.214251 17.9716281,12.4516871 17.9438494,12.6842141 L19.0742753,12.6842141 L19.0742753,13.9956805 L17.6264298,13.9956805 C16.8234814,16.1353596 14.7367255,17.6124207 11.9936976,17.6124207 L7.43258904,17.6124207 L7.43258904,13.9956805 L5.84764599,13.9956805 L5.84764599,12.6842141 L7.43258904,12.6842141 L7.43258904,11.3076113 L5.84764599,11.3076113 L5.84764599,9.99602517 L7.43258904,9.99602517 L7.43258904,6.33494683 Z M8.7076917,13.9956805 L8.7076917,16.4358965 L11.9936976,16.4358965 C14.0214237,16.4358965 15.5279398,15.4586127 16.2292325,13.9956805 L8.7076917,13.9956805 Z M16.6199305,12.6842141 L8.7076917,12.6842141 L8.7076917,11.3076113 L16.621966,11.3076113 C16.6513012,11.5242134 16.6662682,11.7463234 16.6662682,11.9727438 L16.6662682,12.0049528 C16.6662682,12.2365218 16.6505828,12.4633015 16.6199305,12.6842141 Z M11.9936976,7.50953127 C14.0307631,7.50953127 15.5418291,8.51264205 16.2389311,9.99602517 L8.7076917,9.99602517 L8.7076917,7.50953127 L11.9936976,7.50953127 Z" id="形状" fill="#FFFFFF"></path>
                </g>
            </g>
        </g>
    </g>
</svg>