<?xml version="1.0" encoding="UTF-8"?>
<svg width="32px" height="32px" viewBox="0 0 32 32" version="1.1" xmlns="http://www.w3.org/2000/svg" xmlns:xlink="http://www.w3.org/1999/xlink">
    <title>iDF</title>
    <defs>
        <linearGradient x1="50%" y1="100%" x2="50%" y2="0%" id="linearGradient-1">
            <stop stop-color="#FF9F31" offset="0%"></stop>
            <stop stop-color="#FFB056" offset="100%"></stop>
        </linearGradient>
        <path d="M12,24 C8.38067854,24 5.13562906,22.3977307 2.93547105,19.8638116 C1.10683435,17.757773 0,15.0081585 0,12 C0,5.37252 5.37252,0 12,0 C18.62748,0 24,5.37252 24,12 C24,18.62748 18.62748,24 12,24 Z" id="path-2"></path>
        <path d="M12,25 C8.07906842,25 4.56359815,23.2642083 2.18009363,20.5191292 C0.199070541,18.2375875 -1,15.2588384 -1,12 C-1,4.82023 4.82023,-1 12,-1 C19.17977,-1 25,4.82023 25,12 C25,19.17977 19.17977,25 12,25 Z" id="path-4"></path>
    </defs>
    <g id="Page-1" stroke="none" stroke-width="1" fill="none" fill-rule="evenodd">
        <g id="2442" transform="translate(-804.000000, -2545.000000)">
            <g id="iDF" transform="translate(804.000000, 2545.000000)">
                <g id="DF备份-24"></g>
                <path d="M16,32 C11.1742381,32 6.84750542,29.8636409 3.9139614,26.4850821 C1.47577913,23.6770307 0,20.010878 0,16 C0,7.16336 7.16336,0 16,0 C24.83664,0 32,7.16336 32,16 C32,24.83664 24.83664,32 16,32 Z" id="Fill-504备份-17" fill="url(#linearGradient-1)"></path>
                <g id="ETH备份-20" transform="translate(4.000000, 4.000000)">
                    <mask id="mask-3" fill="white">
                        <use xlink:href="#path-2"></use>
                    </mask>
                    <path stroke="#FFFFFF" stroke-width="1.5" d="M12,-0.75 C15.5208488,-0.75 18.7083476,0.677077477 21.0156351,2.98436491 C23.3229225,5.29165234 24.75,8.47915125 24.75,12 C24.75,15.5208488 23.3229225,18.7083477 21.0156351,21.0156351 C18.7083476,23.3229225 15.5208488,24.75 12,24.75 C8.15459834,24.75 4.70677204,23.0477596 2.36915741,20.3555319 C0.426176942,18.1178038 -0.75,15.1962905 -0.75,12 C-0.75,8.47915125 0.677077479,5.29165235 2.98436491,2.98436491 C5.29165235,0.67707748 8.47915125,-0.75 12,-0.75 Z"></path>
                    <mask id="mask-5" fill="white">
                        <use xlink:href="#path-4"></use>
                    </mask>
                    <use id="蒙版备份-3" fill="#FFFFFF" xlink:href="#path-4"></use>
                </g>
                <g id="编组-2备份-3" transform="translate(9.000000, 8.000000)" fill-rule="nonzero">
                    <path d="M0.0289978667,14.4400806 L0.0289978667,3.46865204 L7.07934833,3.46865204 C9.74562478,3.46865204 11.9147122,5.74761916 11.9147122,8.54879005 C11.9147122,11.349961 9.74562478,13.6289281 7.07934833,13.6289281 L6.23258664,13.6289281 L6.23258664,11.4714572 L7.07934833,11.4714572 C8.60689542,11.4714572 9.84974492,10.1603658 9.84974492,8.54879005 C9.84974492,6.93727642 8.60689542,5.626185 7.07934833,5.626185 L2.09390353,5.626185 L2.09390353,14.4400806 L0.0289978667,14.4400806 Z" id="Fill-1" fill="#FA9C00"></path>
                    <path d="M3.21641872,17.2972235 L3.21641872,6.92311579 L5.29574361,6.92311579 L5.29574361,15.1191848 L7.72744394,15.1191848 C11.0952964,15.1191848 13.8353252,12.2255891 13.8353252,8.66865204 C13.8353252,5.11184018 11.0952964,2.21805657 7.72744394,2.21805657 L2.77185501,2.21805657 L2.77185501,0.0400806095 L7.72744394,0.0400806095 C12.2418812,0.0400806095 15.9147122,3.91081352 15.9147122,8.6685894 C15.9147122,13.4264906 12.2418812,17.2972235 7.72744394,17.2972235 L3.21641872,17.2972235 Z" id="Fill-3" fill="#242A47"></path>
                </g>
            </g>
        </g>
    </g>
</svg>