<?xml version="1.0" encoding="UTF-8"?>
<svg width="32px" height="32px" viewBox="0 0 32 32" version="1.1" xmlns="http://www.w3.org/2000/svg" xmlns:xlink="http://www.w3.org/1999/xlink">
    <title>iDOT</title>
    <defs>
        <linearGradient x1="50%" y1="100%" x2="50%" y2="0%" id="linearGradient-1">
            <stop stop-color="#FF9F31" offset="0%"></stop>
            <stop stop-color="#FFB056" offset="100%"></stop>
        </linearGradient>
        <path d="M13,25 C9.38067854,25 6.13562906,23.3977307 3.93547105,20.8638116 C2.10683435,18.757773 1,16.0081585 1,13 C1,6.37252 6.37252,1 13,1 C19.62748,1 25,6.37252 25,13 C25,19.62748 19.62748,25 13,25 Z" id="path-2"></path>
        <path d="M13,26 C9.07906842,26 5.56359815,24.2642083 3.18009363,21.5191292 C1.19907054,19.2375875 0,16.2588384 0,13 C0,5.82023 5.82023,0 13,0 C20.17977,0 26,5.82023 26,13 C26,20.17977 20.17977,26 13,26 Z" id="path-4"></path>
    </defs>
    <g id="Page-1" stroke="none" stroke-width="1" fill="none" fill-rule="evenodd">
        <g id="2442" transform="translate(-804.000000, -2883.000000)">
            <g id="iDOT" transform="translate(804.000000, 2883.000000)">
                <g id="ATOM">
                    <g id="DF备份-26"></g>
                    <path d="M16,32 C11.1742381,32 6.84750542,29.8636409 3.9139614,26.4850821 C1.47577913,23.6770307 0,20.010878 0,16 C0,7.16336 7.16336,0 16,0 C24.83664,0 32,7.16336 32,16 C32,24.83664 24.83664,32 16,32 Z" id="Fill-504备份-21" fill="url(#linearGradient-1)"></path>
                    <g id="ETH备份-22" transform="translate(3.000000, 3.000000)">
                        <mask id="mask-3" fill="white">
                            <use xlink:href="#path-2"></use>
                        </mask>
                        <path stroke="#FFFFFF" stroke-width="1.5" d="M13,0.25 C16.5208488,0.25 19.7083476,1.67707748 22.0156351,3.98436491 C24.3229225,6.29165234 25.75,9.47915125 25.75,13 C25.75,16.5208488 24.3229225,19.7083477 22.0156351,22.0156351 C19.7083476,24.3229225 16.5208488,25.75 13,25.75 C9.15459834,25.75 5.70677204,24.0477596 3.36915741,21.3555319 C1.42617694,19.1178038 0.25,16.1962905 0.25,13 C0.25,9.47915125 1.67707748,6.29165235 3.98436491,3.98436491 C6.29165235,1.67707748 9.47915125,0.25 13,0.25 L13,0.25 Z"></path>
                        <mask id="mask-5" fill="white">
                            <use xlink:href="#path-4"></use>
                        </mask>
                        <use id="蒙版备份" fill="#FFFFFF" xlink:href="#path-4"></use>
                    </g>
                </g>
                <g id="DOT" transform="translate(4.000000, 4.000000)">
                    <path d="M12,24 C5.4,24 0,18.6 0,11.94 C0.06,5.34 5.4,-0.06 12.06,2.16840434e-19 C18.66,0.06 24,5.4 24,12.12 C23.94,18.66 18.6,24 12,24" id="路径" fill="#1E1E1E"></path>
                    <path d="M12.2963656,4.57442432 C12.3146885,4.5777756 12.3329036,4.58328573 12.3513456,4.584173 C13.9309447,4.65987363 15.4166935,5.40357655 16.4328225,6.60395293 C17.0463358,7.32871232 17.4541946,8.15511232 17.6578517,9.08085845 C17.7643844,9.5651334 17.8074707,10.0559131 17.7831669,10.5509145 C17.7237948,11.7601127 17.3246576,12.8478904 16.5780891,13.802973 C15.8163925,14.7773947 14.8356382,15.4382592 13.6453198,15.7878555 C13.3164837,15.8844267 12.9807702,15.9482199 12.6398758,15.9827782 C12.4763544,15.9993538 12.3118456,16.0060846 12.147995,16.019778 C11.9278763,16.0381677 11.7071277,16.0494988 11.4916223,16.106448 C10.7615552,16.2993815 10.1871674,16.8896543 10.0260916,17.6234446 C9.93654269,18.0313804 9.84882659,18.4398982 9.77215303,18.8503544 C9.74254927,19.0088143 9.68442559,19.1459344 9.57325687,19.2587309 C9.37997844,19.4548405 9.14441379,19.5212728 8.87311127,19.4758072 C8.78304594,19.4607123 8.69619236,19.4415879 8.61501894,19.3983207 C8.31809615,19.2400304 8.16156565,18.906179 8.23133904,18.5779112 C8.43747584,17.6080728 8.64223942,16.6379405 8.8498913,15.6684186 C9.03547514,14.8019275 9.22421399,13.9361145 9.41150017,13.0699964 C9.57573094,12.3105204 9.73986525,11.5510218 9.90409602,10.7915458 C9.94942376,10.5819124 9.99415567,10.3721434 10.0405843,10.162753 C10.1272506,9.77192413 10.485367,9.51188582 10.8861327,9.54761968 C11.2689785,9.58175985 11.5768246,9.90338723 11.5948865,10.2856034 C11.6000332,10.3944439 11.5781751,10.4988593 11.5547566,10.603676 C11.3246054,11.6337359 11.0931661,12.6635131 10.8657216,13.6941664 C10.8065538,13.9622862 10.7601366,14.2332035 10.7075682,14.5027757 C10.7025463,14.5285349 10.6951751,14.5538419 10.6893021,14.5794484 C10.6790029,14.6243489 10.7097586,14.6551208 10.7539003,14.6411675 C10.9877286,14.5672527 11.2291096,14.5366107 11.4722099,14.5174185 C11.8282778,14.4892971 12.1848848,14.4675392 12.5406633,14.4362304 C13.1263773,14.3846952 13.679395,14.2198492 14.1901605,13.9289712 C15.1911897,13.3588909 15.8524027,12.5198034 16.1693961,11.4148398 C16.2957157,10.9745441 16.3390971,10.5236351 16.3094196,10.0675042 C16.2216751,8.71897607 15.5060155,7.5280432 14.3553503,6.81176657 C13.9048761,6.53134927 13.416712,6.3468477 12.8931051,6.2552553 C12.5506106,6.1953447 12.2059257,6.1750844 11.8595328,6.20299671 C10.91585,6.27903643 10.0881023,6.62949165 9.38585152,7.26222349 C8.72664729,7.85616405 8.30354679,8.58999395 8.11388868,9.4550835 C8.03203999,9.82843258 8.00513729,10.206981 8.02687054,10.5889428 C8.04732704,10.9484459 8.12093638,11.2966688 8.23921522,11.6366011 C8.37549351,12.0282495 8.1937059,12.4582935 7.81722124,12.6342106 C7.64502917,12.714664 7.46426864,12.715314 7.28575521,12.6601675 C7.0148953,12.5764927 6.82982216,12.3987615 6.74045479,12.129681 C6.60348989,11.7173146 6.51478644,11.2944987 6.47446926,10.8617363 C6.36439005,9.68032608 6.59409863,8.56789694 7.17347429,7.53197658 C7.76082259,6.48178076 8.60238755,5.69245966 9.68385814,5.15854272 C10.2003549,4.90355112 10.7453319,4.73527474 11.3144991,4.6457225 C11.5235867,4.61281999 11.7339112,4.58909538 11.9459438,4.58403171 C11.9682786,4.58349483 11.9904828,4.577753 12.0127494,4.57442432 L12.2963656,4.57442432 Z" id="Fill-1" fill="#FFFFFF"></path>
                    <path d="M13.3725349,18.7792752 C13.3725349,19.306151 12.9454158,19.7332702 12.4185456,19.7332702 C11.8916642,19.7332702 11.4645451,19.306151 11.4645451,18.7792752 C11.4645451,18.252405 11.8916642,17.8252859 12.4185456,17.8252859 C12.9454158,17.8252859 13.3725349,18.252405 13.3725349,18.7792752" id="Fill-3" fill="#E6007A"></path>
                </g>
            </g>
        </g>
    </g>
</svg>