<?xml version="1.0" encoding="UTF-8"?>
<svg width="32px" height="32px" viewBox="0 0 32 32" version="1.1" xmlns="http://www.w3.org/2000/svg" xmlns:xlink="http://www.w3.org/1999/xlink">
    <title>iETH</title>
    <defs>
        <linearGradient x1="50%" y1="100%" x2="50%" y2="0%" id="linearGradient-1">
            <stop stop-color="#FF9F31" offset="0%"></stop>
            <stop stop-color="#FFB056" offset="100%"></stop>
        </linearGradient>
        <path d="M16,32 C11.1742381,32 6.84750542,29.8636409 3.9139614,26.4850821 C1.47577913,23.6770307 0,20.010878 0,16 C0,7.16336 7.16336,0 16,0 C24.83664,0 32,7.16336 32,16 C32,24.83664 24.83664,32 16,32 Z" id="path-2"></path>
        <path d="M12,24 C8.38067854,24 5.13562906,22.3977307 2.93547105,19.8638116 C1.10683435,17.757773 0,15.0081585 0,12 C0,5.37252 5.37252,0 12,0 C18.62748,0 24,5.37252 24,12 C24,18.62748 18.62748,24 12,24 Z" id="path-4"></path>
    </defs>
    <g id="Page-1" stroke="none" stroke-width="1" fill="none" fill-rule="evenodd">
        <g id="2442" transform="translate(-804.000000, -2719.000000)">
            <g id="iETH" transform="translate(804.000000, 2719.000000)">
                <g id="DF备份-35"></g>
                <g id="矩形备份-2">
                    <mask id="mask-3" fill="white">
                        <use xlink:href="#path-2"></use>
                    </mask>
                    <use id="蒙版" fill="url(#linearGradient-1)" xlink:href="#path-2"></use>
                </g>
                <g id="ETH备份-29" transform="translate(4.000000, 4.000000)">
                    <mask id="mask-5" fill="white">
                        <use xlink:href="#path-4"></use>
                    </mask>
                    <path stroke="#FFFFFF" stroke-width="1.5" d="M12,-0.75 C15.5208488,-0.75 18.7083476,0.677077477 21.0156351,2.98436491 C23.3229225,5.29165234 24.75,8.47915125 24.75,12 C24.75,15.5208488 23.3229225,18.7083477 21.0156351,21.0156351 C18.7083476,23.3229225 15.5208488,24.75 12,24.75 C8.15459834,24.75 4.70677204,23.0477596 2.36915741,20.3555319 C0.426176942,18.1178038 -0.75,15.1962905 -0.75,12 C-0.75,8.47915125 0.677077479,5.29165235 2.98436491,2.98436491 C5.29165235,0.67707748 8.47915125,-0.75 12,-0.75 Z"></path>
                </g>
                <g id="ETH" transform="translate(4.000000, 4.000000)">
                    <path d="M12,24 C8.38067854,24 5.13562906,22.3977307 2.93547105,19.8638116 C1.10683435,17.757773 0,15.0081585 0,12 C0,5.37252 5.37252,0 12,0 C18.62748,0 24,5.37252 24,12 C24,18.62748 18.62748,24 12,24 Z" id="Fill-504备份" fill="#627EEA"></path>
                    <polygon id="Fill-507" fill="#FFFFFF" points="6.76244776 13.5387463 11.8838806 2.98913433 11.8838806 16.2346269"></polygon>
                    <polygon id="Fill-508" fill="#C2CCF7" points="17.3363224 13.5387463 12.1967403 16.2346269 12.1967403 2.98555224"></polygon>
                    <polygon id="Fill-509" fill="#C2CCF7" points="6.76244776 13.9246567 11.8838806 16.4889552 11.8838806 20.6124179"></polygon>
                    <polygon id="Fill-510" fill="#8098EE" points="17.3363224 13.9246567 12.1967403 20.6124179 12.1967403 16.4889552"></polygon>
                </g>
            </g>
        </g>
    </g>
</svg>