<?xml version="1.0" encoding="UTF-8"?>
<svg width="32px" height="32px" viewBox="0 0 32 32" version="1.1" xmlns="http://www.w3.org/2000/svg" xmlns:xlink="http://www.w3.org/1999/xlink">
    <title>iEUX</title>
    <defs>
        <linearGradient x1="50%" y1="100%" x2="50%" y2="0%" id="linearGradient-1">
            <stop stop-color="#FF9F31" offset="0%"></stop>
            <stop stop-color="#FFB056" offset="100%"></stop>
        </linearGradient>
        <path d="M13,25 C9.38067854,25 6.13562906,23.3977307 3.93547105,20.8638116 C2.10683435,18.757773 1,16.0081585 1,13 C1,6.37252 6.37252,1 13,1 C19.62748,1 25,6.37252 25,13 C25,19.62748 19.62748,25 13,25 Z" id="path-2"></path>
        <path d="M13,26 C9.07906842,26 5.56359815,24.2642083 3.18009363,21.5191292 C1.19907054,19.2375875 0,16.2588384 0,13 C0,5.82023 5.82023,0 13,0 C20.17977,0 26,5.82023 26,13 C26,20.17977 20.17977,26 13,26 Z" id="path-4"></path>
    </defs>
    <g id="Page-1" stroke="none" stroke-width="1" fill="none" fill-rule="evenodd">
        <g id="2442" transform="translate(-486.000000, -3191.000000)">
            <g id="iEUX" transform="translate(486.000000, 3191.000000)">
                <g id="DF备份-26"></g>
                <path d="M16,32 C11.1742381,32 6.84750542,29.8636409 3.9139614,26.4850821 C1.47577913,23.6770307 0,20.010878 0,16 C0,7.16336 7.16336,0 16,0 C24.83664,0 32,7.16336 32,16 C32,24.83664 24.83664,32 16,32 Z" id="Fill-504备份-21" fill="url(#linearGradient-1)"></path>
                <g id="ETH备份-22" transform="translate(3.000000, 3.000000)">
                    <mask id="mask-3" fill="white">
                        <use xlink:href="#path-2"></use>
                    </mask>
                    <path stroke="#FFFFFF" stroke-width="1.5" d="M13,0.25 C16.5208488,0.25 19.7083476,1.67707748 22.0156351,3.98436491 C24.3229225,6.29165234 25.75,9.47915125 25.75,13 C25.75,16.5208488 24.3229225,19.7083477 22.0156351,22.0156351 C19.7083476,24.3229225 16.5208488,25.75 13,25.75 C9.15459834,25.75 5.70677204,24.0477596 3.36915741,21.3555319 C1.42617694,19.1178038 0.25,16.1962905 0.25,13 C0.25,9.47915125 1.67707748,6.29165235 3.98436491,3.98436491 C6.29165235,1.67707748 9.47915125,0.25 13,0.25 L13,0.25 Z"></path>
                    <mask id="mask-5" fill="white">
                        <use xlink:href="#path-4"></use>
                    </mask>
                    <use id="蒙版备份" fill="#FFFFFF" xlink:href="#path-4"></use>
                </g>
                <path d="M16.8131148,9 C17.2721311,9 17.6852459,9.04590164 18.1901639,9.13770492 C18.6491803,9.2295082 19.1081967,9.36721311 19.5672131,9.50491803 C20.0262295,9.68852459 20.3934426,9.87213115 20.8065574,10.147541 C21.1737705,10.4229508 21.5409836,10.6983607 21.7704918,11.0655738 L19.9803279,12.5344262 C19.6131148,12.0295082 19.1540984,11.7081967 18.557377,11.4786885 C17.9606557,11.2491803 17.4098361,11.157377 16.8590164,11.157377 C16.1704918,11.157377 15.5278689,11.295082 14.9311475,11.5245902 C14.3344262,11.8 13.8754098,12.1213115 13.4163934,12.5803279 C13.0910656,12.9418033 12.8226701,13.3317449 12.611207,13.7725698 L18.0065574,13.7737705 C18.2819672,13.7737705 18.4655738,13.957377 18.4655738,14.2327869 C18.4655738,14.3245902 18.4655738,14.3704918 18.4196721,14.4163934 L17.9606557,15.3344262 C17.8688525,15.4721311 17.7311475,15.6098361 17.547541,15.6098361 L12.1471594,15.6084703 C12.1362824,15.7725015 12.1311475,15.9410604 12.1311475,16.1147541 C12.1311475,16.5933974 12.1701405,17.0525442 12.2608326,17.4921946 L17.0885246,17.4918033 C17.3639344,17.4918033 17.547541,17.6754098 17.547541,17.9508197 C17.547541,17.9967213 17.5016393,18.0885246 17.5016393,18.1344262 L17.042623,19.052459 C16.9508197,19.1901639 16.8131148,19.3278689 16.6295082,19.3278689 L13.0394981,19.3286402 C13.1443533,19.4894964 13.2551586,19.6427187 13.3704918,19.7868852 C13.7836066,20.2459016 14.242623,20.5672131 14.8393443,20.7967213 C15.3901639,21.0262295 16.0327869,21.1639344 16.7672131,21.1639344 C17.5016393,21.1639344 18.1442623,21.0262295 18.695082,20.7508197 C19.2459016,20.4754098 19.704918,20.0622951 20.0721311,19.6032787 L22,20.9803279 C21.4032787,21.7606557 20.6688525,22.3114754 19.7967213,22.7245902 C18.9245902,23.1377049 17.9147541,23.3672131 16.7213115,23.3672131 C15.6655738,23.3672131 14.6557377,23.1836066 13.7836066,22.8163934 C12.9114754,22.4491803 12.1311475,21.9901639 11.4885246,21.347541 C10.9115729,20.7705893 10.4456194,20.1196388 10.090664,19.3282528 L8.45901639,19.3278689 C8.18360656,19.3278689 8,19.1442623 8,18.8688525 C8,18.7770492 8,18.7311475 8.04590164,18.6852459 L8.50491803,17.7672131 C8.59672131,17.6295082 8.73442623,17.4918033 8.91803279,17.4918033 L9.52932522,17.4912297 C9.45840895,17.0564011 9.42295082,16.5988744 9.42295082,16.1147541 C9.42295082,15.942623 9.4274334,15.7738537 9.43639857,15.6082714 L8.45901639,15.6098361 C8.18360656,15.6098361 8,15.4262295 8,15.1508197 C8,15.104918 8,15.0590164 8.04590164,14.9672131 L8.50491803,14.0491803 C8.59672131,13.9114754 8.73442623,13.7737705 8.91803279,13.7737705 L9.75585469,13.7735615 C9.81939693,13.5698384 9.89203553,13.3711697 9.97377049,13.1770492 C10.3409836,12.304918 10.8918033,11.5704918 11.5344262,10.9278689 C12.1770492,10.2852459 12.957377,9.82622951 13.8754098,9.50491803 C14.7934426,9.18360656 15.757377,9 16.8131148,9 Z" id="形状结合" fill="#242A47" fill-rule="nonzero"></path>
            </g>
        </g>
    </g>
</svg>