<?xml version="1.0" encoding="UTF-8"?>
<svg width="32px" height="32px" viewBox="0 0 32 32" version="1.1" xmlns="http://www.w3.org/2000/svg" xmlns:xlink="http://www.w3.org/1999/xlink">
    <title>iFIL</title>
    <defs>
        <linearGradient x1="50%" y1="100%" x2="50%" y2="0%" id="linearGradient-1">
            <stop stop-color="#FF9F31" offset="0%"></stop>
            <stop stop-color="#FFB056" offset="100%"></stop>
        </linearGradient>
        <path d="M13,25 C9.38067854,25 6.13562906,23.3977307 3.93547105,20.8638116 C2.10683435,18.757773 1,16.0081585 1,13 C1,6.37252 6.37252,1 13,1 C19.62748,1 25,6.37252 25,13 C25,19.62748 19.62748,25 13,25 Z" id="path-2"></path>
        <path d="M13,26 C9.07906842,26 5.56359815,24.2642083 3.18009363,21.5191292 C1.19907054,19.2375875 0,16.2588384 0,13 C0,5.82023 5.82023,0 13,0 C20.17977,0 26,5.82023 26,13 C26,20.17977 20.17977,26 13,26 Z" id="path-4"></path>
        <polygon id="path-6" points="0 0 24 0 24 24 0 24"></polygon>
    </defs>
    <g id="Page-1" stroke="none" stroke-width="1" fill="none" fill-rule="evenodd">
        <g id="2442" transform="translate(-804.000000, -2938.000000)">
            <g id="ATOM" transform="translate(804.000000, 2938.000000)">
                <g id="DF备份-26"></g>
                <path d="M16,32 C11.1742381,32 6.84750542,29.8636409 3.9139614,26.4850821 C1.47577913,23.6770307 0,20.010878 0,16 C0,7.16336 7.16336,0 16,0 C24.83664,0 32,7.16336 32,16 C32,24.83664 24.83664,32 16,32 Z" id="Fill-504备份-21" fill="url(#linearGradient-1)"></path>
                <g id="ETH备份-22" transform="translate(3.000000, 3.000000)">
                    <mask id="mask-3" fill="white">
                        <use xlink:href="#path-2"></use>
                    </mask>
                    <path stroke="#FFFFFF" stroke-width="1.5" d="M13,0.25 C16.5208488,0.25 19.7083476,1.67707748 22.0156351,3.98436491 C24.3229225,6.29165234 25.75,9.47915125 25.75,13 C25.75,16.5208488 24.3229225,19.7083477 22.0156351,22.0156351 C19.7083476,24.3229225 16.5208488,25.75 13,25.75 C9.15459834,25.75 5.70677204,24.0477596 3.36915741,21.3555319 C1.42617694,19.1178038 0.25,16.1962905 0.25,13 C0.25,9.47915125 1.67707748,6.29165235 3.98436491,3.98436491 C6.29165235,1.67707748 9.47915125,0.25 13,0.25 L13,0.25 Z"></path>
                    <mask id="mask-5" fill="white">
                        <use xlink:href="#path-4"></use>
                    </mask>
                    <use id="蒙版备份" fill="#FFFFFF" xlink:href="#path-4"></use>
                </g>
                <g id="FIL" transform="translate(4.000000, 4.000000)">
                    <g id="Clipped">
                        <mask id="mask-7" fill="white">
                            <use xlink:href="#path-6"></use>
                        </mask>
                        <g id="a-logo_1"></g>
                        <path d="M12,24 C5.4,24 0,18.6 0,11.94 C0.06,5.34 5.4,-0.06 12.06,2.16840434e-19 C18.66,0.06 24,5.4 24,12.12 C23.94,18.66 18.6,24 12,24" id="路径" fill="#40C2CB" mask="url(#mask-7)"></path>
                    </g>
                    <path d="M13.14,10.56 L12.78,12.48 L16.2,12.96 L15.96,13.86 L12.6,13.38 C12.36,14.16 12.24,15 11.94,15.72 C11.64,16.56 11.34,17.4 10.98,18.18 C10.5,19.2 9.66,19.92 8.52,20.1 C7.86,20.22 7.14,20.16 6.6,19.74 C6.42,19.62 6.24,19.38 6.24,19.2 C6.24,18.96 6.36,18.66 6.54,18.54 C6.66,18.48 6.96,18.54 7.14,18.6 C7.32,18.78 7.5,19.02 7.62,19.26 C7.98,19.74 8.46,19.8 8.94,19.44 C9.48,18.96 9.78,18.3 9.96,17.64 C10.32,16.2 10.68,14.82 10.98,13.38 L10.98,13.14 L7.8,12.66 L7.92,11.76 L11.22,12.24 L11.64,10.38 L8.22,9.84 L8.34,8.88 L11.88,9.36 C12,9 12.06,8.7 12.18,8.4 C12.48,7.32 12.78,6.24 13.5,5.28 C14.22,4.32 15.06,3.72 16.32,3.78 C16.86,3.78 17.4,3.96 17.76,4.38 C17.82,4.44 17.94,4.56 17.94,4.68 C17.94,4.92 17.94,5.22 17.76,5.4 C17.52,5.58 17.22,5.52 16.98,5.28 C16.8,5.1 16.68,4.92 16.5,4.74 C16.14,4.26 15.6,4.2 15.18,4.62 C14.88,4.92 14.58,5.34 14.4,5.76 C13.98,7.02 13.68,8.34 13.26,9.66 L16.56,10.14 L16.32,11.04 L13.14,10.56" id="路径" fill="#FFFFFF"></path>
                </g>
            </g>
        </g>
    </g>
</svg>