<?xml version="1.0" encoding="UTF-8"?>
<svg width="32px" height="32px" viewBox="0 0 32 32" version="1.1" xmlns="http://www.w3.org/2000/svg" xmlns:xlink="http://www.w3.org/1999/xlink">
    <title>iGLODX</title>
    <defs>
        <linearGradient x1="50%" y1="100%" x2="50%" y2="0%" id="linearGradient-1">
            <stop stop-color="#FF9F31" offset="0%"></stop>
            <stop stop-color="#FFB056" offset="100%"></stop>
        </linearGradient>
        <path d="M12,24 C8.38067854,24 5.13562906,22.3977307 2.93547105,19.8638116 C1.10683435,17.757773 0,15.0081585 0,12 C0,5.37252 5.37252,0 12,0 C18.62748,0 24,5.37252 24,12 C24,18.62748 18.62748,24 12,24 Z" id="path-2"></path>
        <path d="M12,25 C8.07906842,25 4.56359815,23.2642083 2.18009363,20.5191292 C0.199070541,18.2375875 -1,15.2588384 -1,12 C-1,4.82023 4.82023,-1 12,-1 C19.17977,-1 25,4.82023 25,12 C25,19.17977 19.17977,25 12,25 Z" id="path-4"></path>
    </defs>
    <g id="Page-1" stroke="none" stroke-width="1" fill="none" fill-rule="evenodd">
        <g id="2442" transform="translate(-804.000000, -2599.000000)">
            <g id="iGLODX" transform="translate(804.000000, 2599.000000)">
                <g id="DF备份-25"></g>
                <path d="M16,32 C11.1742381,32 6.84750542,29.8636409 3.9139614,26.4850821 C1.47577913,23.6770307 0,20.010878 0,16 C0,7.16336 7.16336,0 16,0 C24.83664,0 32,7.16336 32,16 C32,24.83664 24.83664,32 16,32 Z" id="Fill-504备份-20" fill="url(#linearGradient-1)"></path>
                <g id="ETH备份-21" transform="translate(4.000000, 4.000000)">
                    <mask id="mask-3" fill="white">
                        <use xlink:href="#path-2"></use>
                    </mask>
                    <path stroke="#FFFFFF" stroke-width="1.5" d="M12,-0.75 C15.5208488,-0.75 18.7083476,0.677077477 21.0156351,2.98436491 C23.3229225,5.29165234 24.75,8.47915125 24.75,12 C24.75,15.5208488 23.3229225,18.7083477 21.0156351,21.0156351 C18.7083476,23.3229225 15.5208488,24.75 12,24.75 C8.15459834,24.75 4.70677204,23.0477596 2.36915741,20.3555319 C0.426176942,18.1178038 -0.75,15.1962905 -0.75,12 C-0.75,8.47915125 0.677077479,5.29165235 2.98436491,2.98436491 C5.29165235,0.67707748 8.47915125,-0.75 12,-0.75 Z"></path>
                    <mask id="mask-5" fill="white">
                        <use xlink:href="#path-4"></use>
                    </mask>
                    <use id="蒙版备份-2" fill="#FFFFFF" xlink:href="#path-4"></use>
                </g>
                <g id="GOLDx备份-2" transform="translate(9.000000, 8.000000)" fill-rule="nonzero">
                    <path d="M8.27320507,11.9172414 L2.18772984,11.9172414 C0.980040325,11.9159133 0.00135164035,10.9542885 5.88035368e-15,9.76765561 L5.88035368e-15,1.15940538 C5.88035368e-15,0.519083469 0.528294527,0 1.17997885,0 C1.83166318,0 2.3599577,0.519083469 2.3599577,1.15940538 L2.3599577,9.59976943 L8.27347759,9.59976943 C8.98257936,9.59976943 9.55741993,9.03495147 9.55741993,8.33821321 C9.55741993,7.64147494 8.98257936,7.07665698 8.27347759,7.07665698 L4.93084003,7.07665698 C4.27915571,7.07665698 3.75086118,6.55757352 3.75086118,5.91725161 C3.75086118,5.2769297 4.27915571,4.75784623 4.93084003,4.75784623 L8.27320507,4.75784623 C10.2824393,4.75784623 11.9172414,6.36441257 11.9172414,8.33834709 C11.9172414,10.3122816 10.2824393,11.9172414 8.27320507,11.9172414 Z" id="路径" fill="#FFBB3B"></path>
                    <path d="M7.80121891,16.5517241 L1.12907925,16.5517241 C0.506368903,16.5517241 0.00156244624,16.0351869 0.00156244624,15.3980061 C0.00156244624,14.7608252 0.506368903,14.2442881 1.12907925,14.244288 L7.80121891,14.244288 C11.0176366,14.244288 13.6341006,11.5667562 13.6341006,8.27586207 C13.6341006,4.98496792 11.0173762,2.30743611 7.80121891,2.30743611 L1.12751687,2.30743611 C0.504806497,2.30743611 2.94017684e-15,1.79089894 2.94017684e-15,1.15371805 C2.94017684e-15,0.516537167 0.504806497,0 1.12751687,0 L7.80121891,0 C12.2610299,0 15.8896552,3.71268068 15.8896552,8.27639496 C15.8896552,12.8401092 12.2610299,16.5517241 7.80121891,16.5517241 Z" id="路径" fill="#FA9B00"></path>
                </g>
            </g>
        </g>
    </g>
</svg>