<?xml version="1.0" encoding="UTF-8"?>
<svg width="32px" height="32px" viewBox="0 0 32 32" version="1.1" xmlns="http://www.w3.org/2000/svg" xmlns:xlink="http://www.w3.org/1999/xlink">
    <title>iHBTC</title>
    <defs>
        <linearGradient x1="50%" y1="100%" x2="50%" y2="0%" id="linearGradient-1">
            <stop stop-color="#FF9F31" offset="0%"></stop>
            <stop stop-color="#FFB056" offset="100%"></stop>
        </linearGradient>
        <path d="M12,24 C8.38067854,24 5.13562906,22.3977307 2.93547105,19.8638116 C1.10683435,17.757773 0,15.0081585 0,12 C0,5.37252 5.37252,0 12,0 C18.62748,0 24,5.37252 24,12 C24,18.62748 18.62748,24 12,24 Z" id="path-2"></path>
        <polygon id="path-4" points="0 0 23.9998629 0 23.9998629 23.9999657 0 23.9999657"></polygon>
    </defs>
    <g id="Page-1" stroke="none" stroke-width="1" fill="none" fill-rule="evenodd">
        <g id="2442" transform="translate(-425.000000, -2691.000000)">
            <g id="iHBTC" transform="translate(425.000000, 2691.000000)">
                <g id="DF备份-27"></g>
                <path d="M16,32 C11.1742381,32 6.84750542,29.8636409 3.9139614,26.4850821 C1.47577913,23.6770307 0,20.010878 0,16 C0,7.16336 7.16336,0 16,0 C24.83664,0 32,7.16336 32,16 C32,24.83664 24.83664,32 16,32 Z" id="Fill-504备份-22" fill="url(#linearGradient-1)"></path>
                <g id="ETH备份-23" transform="translate(4.000000, 4.000000)">
                    <mask id="mask-3" fill="white">
                        <use xlink:href="#path-2"></use>
                    </mask>
                    <path stroke="#FFFFFF" stroke-width="1.5" d="M12,-0.75 C15.5208488,-0.75 18.7083476,0.677077477 21.0156351,2.98436491 C23.3229225,5.29165234 24.75,8.47915125 24.75,12 C24.75,15.5208488 23.3229225,18.7083477 21.0156351,21.0156351 C18.7083476,23.3229225 15.5208488,24.75 12,24.75 C8.15459834,24.75 4.70677204,23.0477596 2.36915741,20.3555319 C0.426176942,18.1178038 -0.75,15.1962905 -0.75,12 C-0.75,8.47915125 0.677077479,5.29165235 2.98436491,2.98436491 C5.29165235,0.67707748 8.47915125,-0.75 12,-0.75 Z"></path>
                </g>
                <g id="HBTC备份-2" transform="translate(4.000000, 4.000034)">
                    <g id="编组">
                        <mask id="mask-5" fill="white">
                            <use xlink:href="#path-4"></use>
                        </mask>
                        <g id="Clip-2"></g>
                        <path d="M23.9998629,12 C23.9998629,18.6274286 18.6272914,24 11.9998629,24 C5.37277714,24 -0.000137142857,18.6274286 -0.000137142857,12 C-0.000137142857,5.37257143 5.37277714,0 11.9998629,0 C18.6272914,0 23.9998629,5.37257143 23.9998629,12" id="Fill-1" fill="#3C65F0" mask="url(#mask-5)"></path>
                    </g>
                    <path d="M10.7801143,2.94411429 C10.8404571,4.54114286 9.63154286,6.86742857 7.15405714,9.92365714 C3.036,15.2187429 6.81805714,20.1970286 10.9776,20.1970286 C15.1371429,20.1970286 18.9281143,15.7861714 15.3754286,10.4907429 C14.4565714,8.98525714 12.4457143,6.68331429 12.1806857,5.8536 C11.2457143,7.65462857 11.6204571,9.41862857 10.9776,10.8908571 C10.4081143,12.3905143 12.8574857,14.5584 11.0814857,14.4377143 C9.72548571,14.2268571 9.78,12.5345143 9.89417143,12.1371429 C11.1905143,7.64777143 11.4860571,4.58297143 10.7801143,2.94411429" id="Fill-3" fill="#96CAFF"></path>
                    <path d="M8.61449143,11.5630629 C7.10352,14.8822629 8.61449143,19.2598629 10.9778057,20.1972343 C13.3407771,21.1342629 20.5061486,17.2966629 15.3756343,10.4906057 C14.4564343,8.98512 12.44592,6.68352 12.1805486,5.85380571 C11.8143771,6.27106286 11.2805486,8.35632 11.8688914,10.4906057 C12.4572343,12.6248914 12.8573486,14.5582629 11.0813486,14.43792 C9.72534857,14.2270629 9.77986286,12.5343771 9.89403429,12.1373486 C11.83872,5.40260571 12.33072,6.97872 8.61449143,11.5630629" id="Fill-5" fill="#CADEFC"></path>
                    <path d="M12.3588,5.47433143 C11.8513714,6.34793143 11.9508,7.73993143 12.6574286,9.65067429 C13.7178857,12.5162743 15.6783429,16.1440457 12.3588,17.5295314 C10.3016571,18.2443886 8.07274286,15.9023314 9.5772,10.61856 C10.5800571,7.09604571 11.5074857,5.38141714 12.3588,5.47433143" id="Fill-7" fill="#96CAFF"></path>
                    <path d="M10.7456229,2.74285714 C10.82928,5.32251429 10.2368229,7.7136 8.96756571,9.91542857 C7.06402286,13.2181714 4.77270857,18.3771429 9.51613714,20.0009143 C12.6783086,21.0836571 14.2808229,20.8124571 14.3229943,19.1869714 C12.0313371,20.2464 10.4291657,19.5685714 9.51613714,17.1538286 C8.99396571,15.9459429 9.71602286,12.4830857 9.89430857,12.1371429 C10.0125943,11.9067429 10.6530514,9.432 11.8160229,4.71257143 L10.7456229,2.74285714 Z" id="Fill-9" fill="#CADEFC"></path>
                    <path d="M21.8489829,15.1597371 C21.8489829,18.78408 18.97104,21.7227086 15.4207543,21.7227086 C11.8704686,21.7227086 8.99252571,18.78408 8.99252571,15.1597371 C8.99252571,11.5353943 11.8704686,8.59676571 15.4207543,8.59676571 C18.97104,8.59676571 21.8489829,11.5353943 21.8489829,15.1597371" id="Fill-11" fill="#3C65F0"></path>
                    <path d="M15.1200686,13.6768114 C15.1200686,13.6768114 15.6658971,13.8232114 15.9888686,13.9096114 C16.3125257,13.9963543 16.5055543,14.3237829 16.4205257,14.6412686 C16.3351543,14.9587543 16.0042971,15.1456114 15.6813257,15.0592114 C15.3576686,14.9724686 14.8121829,14.8264114 14.8121829,14.8264114 L15.1200686,13.6768114 Z M14.6719543,15.3485829 C14.6719543,15.3485829 15.5013257,15.5707543 15.8249829,15.6574971 C16.1479543,15.74424 16.3413257,16.0716686 16.2559543,16.3891543 C16.1709257,16.70664 15.8404114,16.89384 15.5167543,16.8070971 C15.19344,16.7203543 14.3640686,16.4981829 14.3640686,16.4981829 L14.6719543,15.3485829 Z M15.0473829,11.6789829 L14.7768686,12.68904 L13.6063543,12.3753257 C13.5473829,12.3595543 13.4873829,12.3934971 13.4719543,12.45144 L13.3776686,12.8028686 C13.3632686,12.8566971 13.3917257,12.9142971 13.4448686,12.93384 C13.83504,13.0768114 13.9786971,13.3977257 13.8919543,13.7213829 L13.3132114,15.8806971 C13.2353829,16.1717829 13.0204114,16.3617257 12.6778971,16.3037829 C12.6292114,16.2958971 12.5808686,16.3181829 12.5596114,16.3620686 L12.3967543,16.6987543 C12.3676114,16.7590971 12.4012114,16.8310971 12.4673829,16.8485829 L13.5820114,17.1472114 L13.3114971,18.1572686 C13.2957257,18.2148686 13.33104,18.2745257 13.3896686,18.2902971 L13.7441829,18.3852686 C13.8028114,18.40104 13.8631543,18.3667543 13.8785829,18.3094971 L14.1490971,17.2990971 L14.7165257,17.4516686 L14.4460114,18.4613829 C14.4305829,18.5189829 14.4658971,18.5789829 14.5245257,18.5944114 L14.87904,18.6893829 C14.9376686,18.7051543 14.9980114,18.6708686 15.0130971,18.6132686 L15.2842971,17.6035543 C15.4848686,17.65704 15.6521829,17.7019543 15.7629257,17.7317829 C16.4386971,17.9128114 17.1412114,17.4828686 17.33184,16.7707543 C17.4514971,16.3267543 17.3431543,15.8782971 17.0808686,15.55944 C17.2989257,15.38184 17.4679543,15.1312114 17.5481829,14.8315543 C17.7415543,14.1101829 17.3500114,13.3785257 16.67424,13.1974971 C16.6204114,13.1830971 16.5545829,13.1652686 16.4794971,13.14504 L16.7500114,12.1349829 C16.76544,12.0777257 16.7297829,12.0177257 16.6714971,12.0019543 L16.31664,11.9069829 C16.2580114,11.8912114 16.1976686,11.92584 16.1825829,11.9830971 L15.9117257,12.9931543 L15.3439543,12.8409257 L15.6148114,11.8308686 C15.63024,11.7732686 15.5949257,11.7136114 15.53664,11.6981829 L15.1817829,11.6028686 C15.1231543,11.5870971 15.0628114,11.6217257 15.0473829,11.6789829 L15.0473829,11.6789829 Z M15.1564114,10.3565829 C17.8810971,10.3565829 20.08944,12.5656114 20.08944,15.2896114 C20.08944,18.0139543 17.8810971,20.22264 15.1564114,20.22264 C12.4320686,20.22264 10.2237257,18.0139543 10.2237257,15.2896114 C10.2237257,12.5656114 12.4320686,10.3565829 15.1564114,10.3565829 L15.1564114,10.3565829 Z" id="Fill-13" fill="#FFB361"></path>
                </g>
            </g>
        </g>
    </g>
</svg>