<?xml version="1.0" encoding="UTF-8"?>
<svg width="32px" height="32px" viewBox="0 0 32 32" version="1.1" xmlns="http://www.w3.org/2000/svg" xmlns:xlink="http://www.w3.org/1999/xlink">
    <title>iMxAPPL</title>
    <defs>
        <path d="M13,25 C9.38067854,25 6.13562906,23.3977307 3.93547105,20.8638116 C2.10683435,18.757773 1,16.0081585 1,13 C1,6.37252 6.37252,1 13,1 C19.62748,1 25,6.37252 25,13 C25,19.62748 19.62748,25 13,25 Z" id="path-1"></path>
        <path d="M13,26 C9.07906842,26 5.56359815,24.2642083 3.18009363,21.5191292 C1.19907054,19.2375875 0,16.2588384 0,13 C0,5.82023 5.82023,0 13,0 C20.17977,0 26,5.82023 26,13 C26,20.17977 20.17977,26 13,26 Z" id="path-3"></path>
    </defs>
    <g id="Page-1" stroke="none" stroke-width="1" fill="none" fill-rule="evenodd">
        <g id="2442" transform="translate(-820.000000, -3504.000000)">
            <g id="iMxAPPL" transform="translate(820.000000, 3504.000000)">
                <g id="DF备份-26"></g>
                <path d="M16,32 C11.1742381,32 6.84750542,29.8636409 3.9139614,26.4850821 C1.47577913,23.6770307 0,20.010878 0,16 C0,7.16336 7.16336,0 16,0 C24.83664,0 32,7.16336 32,16 C32,24.83664 24.83664,32 16,32 Z" id="Fill-504备份-21" fill="#242A47"></path>
                <g id="ETH备份-22" transform="translate(3.000000, 3.000000)">
                    <mask id="mask-2" fill="white">
                        <use xlink:href="#path-1"></use>
                    </mask>
                    <path stroke="#FFFFFF" stroke-width="1.5" d="M13,0.25 C16.5208488,0.25 19.7083476,1.67707748 22.0156351,3.98436491 C24.3229225,6.29165234 25.75,9.47915125 25.75,13 C25.75,16.5208488 24.3229225,19.7083477 22.0156351,22.0156351 C19.7083476,24.3229225 16.5208488,25.75 13,25.75 C9.15459834,25.75 5.70677204,24.0477596 3.36915741,21.3555319 C1.42617694,19.1178038 0.25,16.1962905 0.25,13 C0.25,9.47915125 1.67707748,6.29165235 3.98436491,3.98436491 C6.29165235,1.67707748 9.47915125,0.25 13,0.25 L13,0.25 Z"></path>
                    <mask id="mask-4" fill="white">
                        <use xlink:href="#path-3"></use>
                    </mask>
                    <use id="蒙版备份" fill="#FFFFFF" xlink:href="#path-3"></use>
                </g>
                <path d="M20.6888528,16.6788718 L20.6888528,16.6788713 C20.720964,15.3887961 21.4248511,14.2092903 22.5449821,13.5685235 L22.5449821,13.5685235 C21.7972987,12.5818189 20.642964,11.9868398 19.4055444,11.9503528 C18.0662348,11.822019 16.7934216,12.6993555 16.1132715,12.6993555 C15.4331167,12.6993555 14.3866422,11.9690198 13.2759952,11.9888527 L13.2759954,11.9888527 C11.817421,12.014303 10.4743199,12.7876627 9.72006503,14.0363653 C8.20342538,16.5353751 9.33157144,20.2383827 10.809712,22.2660687 C11.5318655,23.2589064 12.3928514,24.373077 13.5233262,24.3322435 C14.6118072,24.29141 15.0236328,23.6625742 16.339612,23.6625742 C17.6555881,23.6625742 18.0254088,24.3322435 19.1780687,24.3112429 C20.3447155,24.2902429 21.0913637,23.2997383 21.8088533,22.3045639 L21.8088536,22.3045635 C22.3192149,21.5938342 22.7206825,20.810935 23,19.9817279 L23,19.981728 C21.6348876,19.4465588 20.7239647,18.1447631 20.6888742,16.6788886 L20.6888528,16.6788718 Z M18.5247244,10.6121791 L18.5247243,10.6121792 C19.1696372,9.90168915 19.4929453,8.95665218 19.4183748,8 L19.4183746,8 C18.4506433,8.08508633 17.5487354,8.52565787 16.8867526,9.23667107 L16.8867528,9.23667086 C16.2401014,9.91278258 15.908815,10.8304085 15.9744358,11.7636739 L15.9744357,11.7636739 C16.9550994,11.7824458 17.8919734,11.3581415 18.5247194,10.6086698 L18.5247244,10.6121791 Z" id="形状" fill="#242A47" fill-rule="nonzero"></path>
            </g>
        </g>
    </g>
</svg>