<?xml version="1.0" encoding="UTF-8"?>
<svg width="32px" height="32px" viewBox="0 0 32 32" version="1.1" xmlns="http://www.w3.org/2000/svg" xmlns:xlink="http://www.w3.org/1999/xlink">
    <title>iMxAMZN</title>
    <defs>
        <path d="M13,25 C9.38067854,25 6.13562906,23.3977307 3.93547105,20.8638116 C2.10683435,18.757773 1,16.0081585 1,13 C1,6.37252 6.37252,1 13,1 C19.62748,1 25,6.37252 25,13 C25,19.62748 19.62748,25 13,25 Z" id="path-1"></path>
        <path d="M13,26 C9.07906842,26 5.56359815,24.2642083 3.18009363,21.5191292 C1.19907054,19.2375875 0,16.2588384 0,13 C0,5.82023 5.82023,0 13,0 C20.17977,0 26,5.82023 26,13 C26,20.17977 20.17977,26 13,26 Z" id="path-3"></path>
    </defs>
    <g id="Page-1" stroke="none" stroke-width="1" fill="none" fill-rule="evenodd">
        <g id="2442" transform="translate(-820.000000, -3600.000000)">
            <g id="iMxAMZN" transform="translate(820.000000, 3600.000000)">
                <g id="DF备份-26"></g>
                <path d="M16,32 C11.1742381,32 6.84750542,29.8636409 3.9139614,26.4850821 C1.47577913,23.6770307 0,20.010878 0,16 C0,7.16336 7.16336,0 16,0 C24.83664,0 32,7.16336 32,16 C32,24.83664 24.83664,32 16,32 Z" id="Fill-504备份-21" fill="#242A47"></path>
                <g id="ETH备份-22" transform="translate(3.000000, 3.000000)">
                    <mask id="mask-2" fill="white">
                        <use xlink:href="#path-1"></use>
                    </mask>
                    <path stroke="#FFFFFF" stroke-width="1.5" d="M13,0.25 C16.5208488,0.25 19.7083476,1.67707748 22.0156351,3.98436491 C24.3229225,6.29165234 25.75,9.47915125 25.75,13 C25.75,16.5208488 24.3229225,19.7083477 22.0156351,22.0156351 C19.7083476,24.3229225 16.5208488,25.75 13,25.75 C9.15459834,25.75 5.70677204,24.0477596 3.36915741,21.3555319 C1.42617694,19.1178038 0.25,16.1962905 0.25,13 C0.25,9.47915125 1.67707748,6.29165235 3.98436491,3.98436491 C6.29165235,1.67707748 9.47915125,0.25 13,0.25 L13,0.25 Z"></path>
                    <mask id="mask-4" fill="white">
                        <use xlink:href="#path-3"></use>
                    </mask>
                    <use id="蒙版备份" fill="#FFFFFF" xlink:href="#path-3"></use>
                </g>
                <g id="编组-2" transform="translate(8.000000, 8.000000)" fill-rule="nonzero">
                    <path d="M12.4518227,9.27650785 C12.0074721,8.72599563 11.8170361,8.11469066 11.8304001,7.40206442 C11.8537869,6.0511142 11.8504459,4.69678661 11.8304001,3.34245901 C11.8070132,1.687545 11.1120889,0.728370342 9.62201097,0.269047268 C8.40589353,-0.105841418 7.18309412,-0.08895454 5.97699963,0.319707901 C4.73081335,0.741879844 3.89222687,1.5760916 3.58485653,2.90002282 C3.48128609,3.33908164 3.55478769,3.45728978 4.00247928,3.51808254 C4.48692166,3.58225268 4.97136405,3.63291331 5.45246546,3.69370607 C5.90349802,3.75112146 5.97365865,3.71059295 6.11397989,3.27153413 C6.41466827,2.32586898 7.49046446,1.84290427 8.36246076,2.30222735 C8.58630655,2.42043549 8.8368802,2.65009703 8.89701788,2.87638119 C9.02731617,3.35934589 9.03733912,3.87270697 9.10081778,4.39282281 C8.88699493,4.41308706 8.77674253,4.41646444 8.66649012,4.43335132 C7.84794954,4.54818208 7.019386,4.60897484 6.21420935,4.7947305 C4.16284641,5.26756308 3.127142,6.62189067 3.20398458,8.63818387 C3.25409931,9.99588884 4.02252517,11.0597621 5.26202948,11.3400843 C6.65187799,11.6541802 7.94483801,11.4312734 9.02397519,10.4011739 C9.15427349,10.276211 9.28457179,10.1478707 9.39816517,10.0397947 C9.73560435,10.4248155 10.0496567,10.8165911 10.3971188,11.1712155 C10.6777613,11.4582925 10.8581743,11.4481603 11.1655446,11.184725 C11.5731444,10.8368553 11.9740623,10.4822309 12.3749801,10.1276065 C12.762534,9.7797368 12.7792389,9.68517029 12.4518227,9.27650785 L12.4518227,9.27650785 Z M8.64310325,8.59090061 C8.42259844,8.9522798 8.14529693,9.24273409 7.74103811,9.38796124 C6.96593029,9.66828341 6.2609831,9.25286622 6.12066185,8.42878659 C5.92354392,7.2669694 6.45476005,6.41249339 7.59403491,6.14230334 C8.04840845,6.03422732 8.52950986,6.02071782 9.0406801,5.95992506 C9.05404403,6.92585447 9.12754563,7.80059473 8.64310325,8.59090061 Z" id="形状结合" fill="#242A47"></path>
                    <path d="M0.0822428176,11.3922348 C0.259730835,11.1032479 0.485941053,11.1915495 0.71215127,11.3240018 C1.80492063,11.9581674 2.8802892,12.6445113 4.00089982,13.2144576 C6.23516074,14.3463229 8.54598512,14.3101995 10.8602897,13.5957597 C11.7442496,13.3228277 12.6003683,12.9254707 13.4704076,12.5843057 C13.5260901,12.5642371 13.5782924,12.5321275 13.6339749,12.5080452 C13.922828,12.3755929 14.1768795,12.4077026 14.3369667,12.7408402 C14.4866135,13.0539093 14.3508873,13.3027591 14.1281573,13.4753485 C13.7488201,13.7723628 13.369483,14.0733908 12.9657848,14.3262543 C11.2813887,15.3898866 9.47170694,15.9397644 7.78035054,16 C5.59133166,16.0039837 3.86169353,15.2052561 2.27822201,13.9248837 C1.57523026,13.3509236 0.920960702,12.7047169 0.245810206,12.086606 C0.0474412457,11.9059892 -0.0987253566,11.6852354 0.0822428176,11.3922348 Z M13.1133371,11.5427268 C13.87174,11.1104228 14.6835987,11.0631395 15.5188442,11.2218762 C15.8529424,11.2860463 16.0032865,11.4853115 15.9999456,11.823049 C15.9932636,12.731563 15.7059392,13.5286237 15.1012214,14.2040988 C15.0410837,14.2716463 14.9709231,14.3628354 14.8940805,14.3763449 C14.7604413,14.3999866 14.5766872,14.4236282 14.4898217,14.3527033 C14.4062972,14.2851558 14.3662054,14.0825132 14.3962742,13.9643051 C14.5065266,13.532001 14.6602118,13.1132065 14.7871691,12.6876571 C14.8239199,12.5728264 14.8239199,12.4444861 14.8573297,12.1979377 C14.3261136,12.2384662 13.8550351,12.2688626 13.3839567,12.3060137 C13.3602357,12.3077024 13.3359468,12.3106745 13.3113204,12.3143288 L13.1613571,12.3396321 C12.9859789,12.3674819 12.8166579,12.3698461 12.7324652,12.1405223 C12.6088489,11.8129169 12.8861504,11.6710671 13.1133371,11.5427268 Z" id="形状结合" fill="#F59700"></path>
                </g>
            </g>
        </g>
    </g>
</svg>