<?xml version="1.0" encoding="UTF-8"?>
<svg width="32px" height="32px" viewBox="0 0 32 32" version="1.1" xmlns="http://www.w3.org/2000/svg" xmlns:xlink="http://www.w3.org/1999/xlink">
    <title>iMxTSLA</title>
    <defs>
        <path d="M13,25 C9.38067854,25 6.13562906,23.3977307 3.93547105,20.8638116 C2.10683435,18.757773 1,16.0081585 1,13 C1,6.37252 6.37252,1 13,1 C19.62748,1 25,6.37252 25,13 C25,19.62748 19.62748,25 13,25 Z" id="path-1"></path>
        <path d="M13,26 C9.07906842,26 5.56359815,24.2642083 3.18009363,21.5191292 C1.19907054,19.2375875 0,16.2588384 0,13 C0,5.82023 5.82023,0 13,0 C20.17977,0 26,5.82023 26,13 C26,20.17977 20.17977,26 13,26 Z" id="path-3"></path>
    </defs>
    <g id="Page-1" stroke="none" stroke-width="1" fill="none" fill-rule="evenodd">
        <g id="2442" transform="translate(-820.000000, -3414.000000)">
            <g id="iMxTSLA" transform="translate(820.000000, 3414.000000)">
                <g id="DF备份-26"></g>
                <path d="M16,32 C11.1742381,32 6.84750542,29.8636409 3.9139614,26.4850821 C1.47577913,23.6770307 0,20.010878 0,16 C0,7.16336 7.16336,0 16,0 C24.83664,0 32,7.16336 32,16 C32,24.83664 24.83664,32 16,32 Z" id="Fill-504备份-21" fill="#242A47"></path>
                <g id="ETH备份-22" transform="translate(3.000000, 3.000000)">
                    <mask id="mask-2" fill="white">
                        <use xlink:href="#path-1"></use>
                    </mask>
                    <path stroke="#FFFFFF" stroke-width="1.5" d="M13,0.25 C16.5208488,0.25 19.7083476,1.67707748 22.0156351,3.98436491 C24.3229225,6.29165234 25.75,9.47915125 25.75,13 C25.75,16.5208488 24.3229225,19.7083477 22.0156351,22.0156351 C19.7083476,24.3229225 16.5208488,25.75 13,25.75 C9.15459834,25.75 5.70677204,24.0477596 3.36915741,21.3555319 C1.42617694,19.1178038 0.25,16.1962905 0.25,13 C0.25,9.47915125 1.67707748,6.29165235 3.98436491,3.98436491 C6.29165235,1.67707748 9.47915125,0.25 13,0.25 L13,0.25 Z"></path>
                    <mask id="mask-4" fill="white">
                        <use xlink:href="#path-3"></use>
                    </mask>
                    <use id="蒙版备份" fill="#FFFFFF" xlink:href="#path-3"></use>
                </g>
                <path d="M14.9571917,11.1953282 C15.2194045,11.6513015 15.6235162,12.0256162 15.9996021,12.4791735 C16.4868225,11.8949919 16.9245957,11.3464065 17.3924884,10.8248797 C17.5097434,10.6942563 17.7204153,10.584571 17.8929164,10.5770006 C19.2081693,10.5209501 22.0163275,11.2198088 23.2391286,11.8985356 C22.7709135,12.7191598 21.9837905,13.0958905 21.1852404,13.4845344 C20.7450504,12.4038719 19.9375741,12.3520495 19.091822,12.3508034 L18.8089383,12.3509193 C18.6200059,12.3504561 18.4309886,12.3471228 18.2454969,12.3301841 L16.0530837,24.5723834 L15.9743231,24.5754436 L15.5522623,22.4435701 C15.4831477,22.0880698 15.4156974,21.7322759 15.351486,21.375889 C14.8613667,18.6526075 14.3949227,15.9251421 13.8961069,13.2033077 C13.7337541,12.3168075 13.6989632,12.2878159 12.7763855,12.353047 L12.5267671,12.3699118 C11.8165333,12.4193477 11.1005802,12.514544 10.8793622,13.4642323 C9.9936746,13.1938206 9.09847315,12.5113912 8.73543291,11.769846 C9.88511171,11.4407913 11.0066011,11.1067427 12.1361452,10.8034584 C12.5449268,10.6936123 12.9720705,10.6494806 13.3926095,10.5884371 C14.0243052,10.4967914 14.5767568,10.5341584 14.9571917,11.1953282 Z M24,10.543977 L23.5532062,11.4568915 C18.5091474,9.48416472 13.4977891,9.4571109 8.45420217,11.46575 C8.30988829,11.17229 8.1741102,10.8963867 8,10.5417221 C13.3402509,8.49878125 18.6223676,8.4726869 24,10.543977 Z" id="形状结合" fill="#E31837" fill-rule="nonzero"></path>
            </g>
        </g>
    </g>
</svg>