<?xml version="1.0" encoding="UTF-8"?>
<svg width="32px" height="32px" viewBox="0 0 32 32" version="1.1" xmlns="http://www.w3.org/2000/svg" xmlns:xlink="http://www.w3.org/1999/xlink">
    <title>iUNI</title>
    <defs>
        <linearGradient x1="50%" y1="100%" x2="50%" y2="0%" id="linearGradient-1">
            <stop stop-color="#FF9F31" offset="0%"></stop>
            <stop stop-color="#FFB056" offset="100%"></stop>
        </linearGradient>
        <path d="M13,25 C9.38067854,25 6.13562906,23.3977307 3.93547105,20.8638116 C2.10683435,18.757773 1,16.0081585 1,13 C1,6.37252 6.37252,1 13,1 C19.62748,1 25,6.37252 25,13 C25,19.62748 19.62748,25 13,25 Z" id="path-2"></path>
        <path d="M13,26 C9.07906842,26 5.56359815,24.2642083 3.18009363,21.5191292 C1.19907054,19.2375875 0,16.2588384 0,13 C0,5.82023 5.82023,0 13,0 C20.17977,0 26,5.82023 26,13 C26,20.17977 20.17977,26 13,26 Z" id="path-4"></path>
    </defs>
    <g id="Page-1" stroke="none" stroke-width="1" fill="none" fill-rule="evenodd">
        <g id="2442" transform="translate(-804.000000, -2773.000000)">
            <g id="iUNI" transform="translate(804.000000, 2773.000000)">
                <g id="DF备份-26"></g>
                <path d="M16,32 C11.1742381,32 6.84750542,29.8636409 3.9139614,26.4850821 C1.47577913,23.6770307 0,20.010878 0,16 C0,7.16336 7.16336,0 16,0 C24.83664,0 32,7.16336 32,16 C32,24.83664 24.83664,32 16,32 Z" id="Fill-504备份-21" fill="url(#linearGradient-1)"></path>
                <g id="ETH备份-22" transform="translate(3.000000, 3.000000)">
                    <mask id="mask-3" fill="white">
                        <use xlink:href="#path-2"></use>
                    </mask>
                    <path stroke="#FFFFFF" stroke-width="1.5" d="M13,0.25 C16.5208488,0.25 19.7083476,1.67707748 22.0156351,3.98436491 C24.3229225,6.29165234 25.75,9.47915125 25.75,13 C25.75,16.5208488 24.3229225,19.7083477 22.0156351,22.0156351 C19.7083476,24.3229225 16.5208488,25.75 13,25.75 C9.15459834,25.75 5.70677204,24.0477596 3.36915741,21.3555319 C1.42617694,19.1178038 0.25,16.1962905 0.25,13 C0.25,9.47915125 1.67707748,6.29165235 3.98436491,3.98436491 C6.29165235,1.67707748 9.47915125,0.25 13,0.25 L13,0.25 Z"></path>
                    <mask id="mask-5" fill="white">
                        <use xlink:href="#path-4"></use>
                    </mask>
                    <use id="蒙版备份" fill="#FFFFFF" xlink:href="#path-4"></use>
                </g>
                <path d="M15.9692557,20.0022156 C16.5446453,20.1485773 17.0593566,20.4764227 17.327039,20.8669602 C17.5886441,21.2486274 17.7008787,21.5812676 17.8177283,22.321347 C17.8638304,22.6133512 17.9139602,22.9064342 17.9291357,22.9728423 C18.0168928,23.3564274 18.1876601,23.6629359 18.3992792,23.8169692 C18.7353836,24.0615047 19.3141416,24.0766084 19.8834897,23.8559271 C19.9801172,23.8184077 20.0639905,23.7925157 20.0698641,23.7983893 C20.0906017,23.8187673 19.8038599,24.009481 19.6016146,24.1099323 C19.329461,24.2450262 19.1130591,24.2972897 18.8255141,24.2972897 C18.3040662,24.2972897 17.8711545,24.0336948 17.5099132,23.4960764 C17.4388181,23.3902308 17.2790429,23.0734135 17.1548453,22.7918381 C16.7734299,21.9272134 16.5851016,21.6638582 16.1422526,21.3755701 C15.7568575,21.1248013 15.2598391,21.07985 14.8859395,21.2620529 C14.3947828,21.5014339 14.2577471,22.1252392 14.6095185,22.5205715 C14.7493353,22.6777216 15.0100533,22.813175 15.2232427,22.8395465 C15.6220873,22.8889331 15.9648445,22.5873393 15.9648445,22.1870923 C15.9648445,21.9272134 15.8643452,21.7789338 15.6113589,21.6654166 C15.2658206,21.5104242 14.8944144,21.6915483 14.8961885,22.0142392 C14.8969556,22.1518504 14.9572264,22.238157 15.0959763,22.3006095 C15.1849921,22.3406462 15.1870538,22.3437628 15.1144723,22.328779 C14.7974393,22.2634497 14.7231676,21.8835806 14.9780719,21.6313734 C15.2841248,21.3287008 15.9169683,21.4622363 16.1342932,21.8755493 C16.2255984,22.0491215 16.236195,22.3948276 16.1565891,22.6035218 C15.9784498,23.0707764 15.4590037,23.3163907 14.9320656,23.1827353 C14.5733057,23.0916338 14.4272197,22.9931004 13.9946796,22.5502994 C13.2430686,21.7807318 12.9512802,21.6316131 11.8677003,21.4635549 L11.6600609,21.4313098 L11.8963374,21.2330443 C12.6899509,20.5670447 13.6774068,20.0939164 14.5768779,19.9486336 C14.9645265,19.8860613 15.610292,19.9108744 15.9692557,20.0022156 Z M19.7949535,16.1113443 C19.8110521,16.1113443 19.8781076,16.1473654 19.9439284,16.1913818 C20.0748987,16.278995 20.3375346,16.4265434 21.0370979,16.8056693 C21.9101136,17.2787616 22.4079351,17.6450853 22.7464489,18.0636126 C23.0428883,18.4301162 23.2262899,18.8476245 23.3146343,19.3567139 C23.3646202,19.645002 23.335252,20.3388115 23.2608125,20.6291375 C23.0261064,21.5447071 22.4805765,22.2638093 21.7024981,22.6834753 C21.5885014,22.7449688 21.4861322,22.7954342 21.4751041,22.7956744 C21.4639562,22.7959137 21.5055512,22.6909073 21.5674043,22.5624063 C21.8290812,22.0185546 21.8589289,21.4895668 21.661023,20.9007637 C21.5398341,20.5401937 21.2927813,20.1002696 20.7940009,19.3567139 C20.2139483,18.4923289 20.0717821,18.2622857 19.9291244,17.9574554 C19.6449837,17.3503601 19.5797383,16.7642062 19.7354139,16.2175615 C19.7520759,16.1591486 19.7788429,16.1113443 19.7949535,16.1113443 Z M8.00019232,7 C8.01573942,7 9.243712,8.05009712 10.530956,9.17338707 L10.9380793,9.5294038 C12.0895563,10.5385547 13.1913083,11.5239778 13.4173481,11.7859311 L13.4173481,11.7859311 L13.5568772,11.9476122 L13.5446984,12.1990163 C13.5286717,12.5307095 13.4241927,12.7510432 13.1745268,12.9797198 C12.8867181,13.2433147 12.5365768,13.3847137 11.9866956,13.459369 C11.6494165,13.5051714 11.5267292,13.5557088 11.3904366,13.7049233 C11.2597659,13.8480246 11.209804,14.0262957 11.173723,14.4783388 C11.1178634,15.1780219 11.0352848,15.4738259 10.7020692,16.1679831 C10.3801334,16.8386097 10.3147921,17.0920395 10.3711192,17.451231 C10.4397689,17.8889975 10.6883321,18.2073132 11.2702666,18.6027294 C11.7144102,18.9044431 11.9159242,19.0991125 12.0266125,19.3332193 C12.0946149,19.4770637 12.1034613,19.529447 12.1021428,19.7794965 C12.1001409,20.1616432 12.0383238,20.3156766 11.7750166,20.5946148 C11.3495848,21.0453273 10.593131,21.4130895 9.66153473,21.6221434 C9.27225581,21.7095288 9.25506641,21.709409 9.25506641,21.6199857 C9.25506641,21.5075473 9.11042007,21.2200983 8.85920421,20.8333965 C8.56810389,20.3853212 8.45423546,20.1612836 8.34514746,19.8219306 C8.22054104,19.4343898 8.1853543,19.1724732 8.20342116,18.7670717 C8.22051467,18.3837143 8.26268865,18.2136543 8.41606994,17.9100347 C8.53784142,17.6689395 8.6168072,17.5592941 9.09939799,16.9610932 C9.92382302,15.9391746 10.2213172,15.3420884 10.3271028,14.4968108 C10.4214767,13.7427664 10.5522073,13.3784205 10.844655,13.0541593 C11.0200852,12.8596697 11.0588752,12.785374 11.0588752,12.6440349 C11.0588752,12.5745581 11.229235,12.3954838 11.016585,11.9076474 C10.1117303,10.2984931 9.82865154,9.79506006 9.75256839,9.64926351 L9.73193898,9.60767334 C9.72323904,9.58789198 9.72976905,9.59398998 9.73816784,9.60186958 C9.75476988,9.61745273 10.3634355,10.5479342 11.0907368,11.6696089 C11.6146181,12.5938452 11.672072,12.5770274 11.7740816,12.6731994 C11.7740816,12.6731994 11.8344963,12.7406504 12.01043,12.7406504 C12.1659857,12.7406504 12.4766776,12.654152 12.6277982,12.5687803 C12.8995442,12.4152264 12.9592396,12.2192983 12.8006152,12.0013621 C12.608499,11.7374316 10.879705,10.4881789 8.36965974,7.46028292 C8.15981713,7.20714074 7.99354972,7 8.00019232,7 Z M8.94011908,18.7323093 C8.94011908,18.7797779 8.96651813,18.8143006 9.02601457,18.8447476 C9.1261986,18.8959323 9.13347113,18.9535899 9.0546468,19.0713026 C8.97482154,19.1905736 8.98126338,19.2954601 9.07282873,19.3666631 C9.2203999,19.4814989 9.42929794,19.4183272 9.5387036,19.2258155 C9.65294003,19.024673 9.59223769,18.7662326 9.40115239,18.6398892 C9.22060368,18.5206183 8.94011908,18.5768374 8.94011908,18.7323093 Z M18.7909316,15.6156565 L18.8922819,15.7287182 C19.0325542,15.885185 19.1433863,16.0854164 19.2373287,16.3521039 C19.3090231,16.5556438 19.3170904,16.6161783 19.3165749,16.9469245 C19.3159996,17.2716413 19.3070453,17.3397156 19.2408409,17.5229135 C19.1364578,17.811813 19.00689,18.0166594 18.7894931,18.2365375 C18.3988357,18.6317381 17.896579,18.8505014 17.171795,18.9412433 C17.0458112,18.9569463 16.6786124,18.9835575 16.3557896,19.0002195 C15.5422416,19.042294 15.0067928,19.1292 14.5256573,19.2971383 C14.4564921,19.3212322 14.3947229,19.3359763 14.3884537,19.329743 C14.3689867,19.3104439 14.6965684,19.1163738 14.9671397,18.986794 C15.348651,18.8041116 15.7284362,18.7044994 16.5793478,18.5636517 C16.9996851,18.494007 17.4337716,18.4096183 17.5440043,18.3760426 C18.5849464,18.0588298 19.1200236,17.2402352 18.9487768,16.2269952 C18.9219738,16.0685147 18.8755001,15.8661256 18.8454965,15.7772417 L18.7909316,15.6156565 Z M17.5724975,12.6839997 C17.5802891,12.6839997 17.6630356,12.7448698 17.7563666,12.8192853 C18.1900335,13.1649914 18.6756522,13.3126477 20.0199981,13.5075808 C20.8111423,13.6222967 21.2563407,13.7149565 21.6670165,13.8503141 C22.9722846,14.2805767 23.7798511,15.1537242 23.9724827,16.3430058 C24.0284622,16.68858 23.9956177,17.336623 23.9048758,17.6781695 C23.8333133,17.9479377 23.6146698,18.4341917 23.5566525,18.4528915 C23.5405899,18.4580459 23.5248869,18.3967922 23.5206914,18.3134703 C23.4987551,17.8668934 23.2717207,17.4321357 22.8904132,17.1064599 C22.4568422,16.7361925 21.8743922,16.4413833 20.4500929,15.8714598 C18.3115341,15.0156456 17.5583288,14.2727851 17.5583288,13.0193729 C17.5583288,12.8349164 17.5647179,12.6839997 17.5724975,12.6839997 Z M13.9038898,13.5912503 C14.0680403,13.5411805 14.4073213,13.5731499 14.5668567,13.6537387 C14.8760263,13.8099777 15.1004835,14.1658608 15.0517802,14.422659 C14.9923604,14.7359281 14.4813052,14.9865171 13.8934371,14.9905927 C13.5931739,14.9926904 13.4822819,14.9525938 13.3676139,14.8003944 C13.2966387,14.7061643 13.2697518,14.4010464 13.3171365,14.2271025 C13.3948125,13.9419789 13.645749,13.6700531 13.9038898,13.5912503 Z M13.750276,14.010329 C13.750276,14.1475566 13.9818295,14.2972866 14.1940719,14.2972866 C14.3353391,14.2972866 14.528666,14.2135572 14.5911065,14.1253566 C14.6817644,13.9973231 14.6420993,13.8589567 14.4879221,13.765374 C14.1942997,13.5871747 13.750276,13.7346392 13.750276,14.010329 Z M13.8624626,8.29474349 C14.6346913,8.47718614 15.3373712,8.9445486 16.0874479,9.77459075 L16.2867203,9.99510422 L16.571784,9.9495535 C17.7727169,9.75773698 18.9944354,9.91018808 20.0162821,10.3793606 C20.297378,10.508437 20.7406586,10.765379 20.7960386,10.8314036 C20.8136596,10.8524409 20.8460246,10.9878943 20.8679608,11.132434 C20.9438388,11.6324851 20.9058399,12.0157825 20.7520462,12.3020688 C20.6682569,12.4578523 20.6635819,12.5072269 20.719921,12.6405467 C20.7648724,12.7469436 20.8901369,12.8256864 21.0142027,12.8255186 C21.268088,12.825171 21.5415123,12.4171803 21.6680954,11.8494864 L21.7184409,11.6239983 L21.8180531,11.7361849 C22.3646619,12.3517191 22.7940374,13.1911591 22.8677577,13.7886768 L22.8869369,13.9444722 L22.7951163,13.8028454 C22.6370073,13.559137 22.4780592,13.3932365 22.2746393,13.2594252 C21.907836,13.0182341 21.5200555,12.9361589 20.4931263,12.8823611 C19.5655576,12.8337896 19.0405975,12.7550468 18.5200725,12.5863413 C17.6344345,12.2993477 17.1879775,11.9171292 16.1359474,10.5452851 C15.6686809,9.9359602 15.3798653,9.59883686 15.092572,9.32734254 C14.4397702,8.71044183 13.79832,8.38691179 12.9772202,8.26032871 C12.751804,8.2255783 12.7422983,8.22150271 12.8483716,8.20529624 C13.0516597,8.17422585 13.5316804,8.21657604 13.8624626,8.29474349 Z M21.2885859,8.52021959 C21.294939,8.52021959 21.2756399,8.59206987 21.2456723,8.67988688 C21.1642803,8.9185727 21.1508548,9.24505155 21.2069542,9.62489667 C21.2781571,10.1068474 21.3186733,10.1763841 21.8312389,10.696993 C22.0715789,10.9411928 22.3512364,11.2491637 22.4525268,11.3813927 L22.6368874,11.6218166 L22.4525268,11.4499945 C22.2271706,11.2398738 21.7088513,10.830097 21.5943751,10.7715164 C21.5175382,10.7322349 21.5061505,10.7329181 21.4588017,10.7797635 C21.4151689,10.8229288 21.4059389,10.8877906 21.3999454,11.1944429 C21.3904756,11.6723779 21.3249066,11.9791381 21.1667976,12.2858623 C21.0812102,12.4517629 21.0676648,12.4163532 21.1451011,12.2291037 C21.2028786,12.089287 21.2087522,12.0278294 21.2083926,11.5651659 C21.2074336,10.6355594 21.0964337,10.4120732 20.445298,10.0292313 C20.2803565,9.93224422 20.0084905,9.79237951 19.8412594,9.71839554 C19.6740163,9.64441157 19.541176,9.57996927 19.5460068,9.57515048 C19.5644429,9.55691821 20.199444,9.74113494 20.4551274,9.83886523 C20.8353561,9.98422 20.8980483,10.0030636 20.9441984,9.98552658 C20.9752448,9.9737673 20.9902286,9.88417621 21.0052124,9.6208091 C21.0285871,9.21250675 21.0842069,8.94319407 21.1962857,8.69724411 C21.2406377,8.59989741 21.2821129,8.52021959 21.2885859,8.52021959 Z M12.754573,8.68504131 L12.8587403,8.70393287 C13.0543567,8.73939052 13.3916359,8.86416355 13.5495651,8.95950842 C13.9829683,9.22111344 14.1706013,9.56554887 14.3614828,10.4500002 C14.4174024,10.7090639 14.490763,11.0022308 14.5245185,11.1014835 C14.5788557,11.2612347 14.7842056,11.634391 14.951161,11.8767329 C15.0714149,12.0512761 14.9915333,12.1339866 14.7257089,12.1101324 C14.319744,12.0737158 13.7698388,11.6965078 13.4150826,11.2110929 C12.9574656,10.5849142 12.6743198,9.62483674 12.7356215,8.90713707 L12.754573,8.68504131 Z" id="形状结合备份-2" fill="#FF007A" fill-rule="nonzero"></path>
            </g>
        </g>
    </g>
</svg>