<?xml version="1.0" encoding="UTF-8"?>
<svg width="32px" height="32px" viewBox="0 0 32 32" version="1.1" xmlns="http://www.w3.org/2000/svg" xmlns:xlink="http://www.w3.org/1999/xlink">
    <title>iUSDT</title>
    <defs>
        <linearGradient x1="50%" y1="100%" x2="50%" y2="0%" id="linearGradient-1">
            <stop stop-color="#FF9F31" offset="0%"></stop>
            <stop stop-color="#FFB056" offset="100%"></stop>
        </linearGradient>
        <path d="M12,24 C8.38067854,24 5.13562906,22.3977307 2.93547105,19.8638116 C1.10683435,17.757773 0,15.0081585 0,12 C0,5.37252 5.37252,0 12,0 C18.62748,0 24,5.37252 24,12 C24,18.62748 18.62748,24 12,24 Z" id="path-2"></path>
    </defs>
    <g id="Page-1" stroke="none" stroke-width="1" fill="none" fill-rule="evenodd">
        <g id="2442" transform="translate(-804.000000, -2429.000000)">
            <g id="iUSDT" transform="translate(804.000000, 2429.000000)">
                <g id="DF备份-33"></g>
                <path d="M16,32 C11.1742381,32 6.84750542,29.8636409 3.9139614,26.4850821 C1.47577913,23.6770307 0,20.010878 0,16 C0,7.16336 7.16336,0 16,0 C24.83664,0 32,7.16336 32,16 C32,24.83664 24.83664,32 16,32 Z" id="Fill-504备份-26" fill="url(#linearGradient-1)"></path>
                <g id="ETH备份-28" transform="translate(4.000000, 4.000000)">
                    <mask id="mask-3" fill="white">
                        <use xlink:href="#path-2"></use>
                    </mask>
                    <path stroke="#FFFFFF" stroke-width="1.5" d="M12,-0.75 C15.5208488,-0.75 18.7083476,0.677077477 21.0156351,2.98436491 C23.3229225,5.29165234 24.75,8.47915125 24.75,12 C24.75,15.5208488 23.3229225,18.7083477 21.0156351,21.0156351 C18.7083476,23.3229225 15.5208488,24.75 12,24.75 C8.15459834,24.75 4.70677204,23.0477596 2.36915741,20.3555319 C0.426176942,18.1178038 -0.75,15.1962905 -0.75,12 C-0.75,8.47915125 0.677077479,5.29165235 2.98436491,2.98436491 C5.29165235,0.67707748 8.47915125,-0.75 12,-0.75 Z"></path>
                </g>
                <g id="USDT备份-2" transform="translate(4.000000, 4.000000)">
                    <path d="M24,12 C24,18.62748 18.62748,24 12,24 C5.37252,24 0,18.62748 0,12 C0,5.37252 5.37252,0 12,0 C18.62748,0 24,5.37252 24,12" id="Fill-692" fill="#1BA27A"></path>
                    <path d="M17.6421731,6.07658507 L17.6421731,8.80601791 L13.3536955,8.80601791 L13.3541372,10.6110481 C16.6976434,10.7518104 19.2274866,11.409884 19.2274866,12.2004179 C19.2274866,12.9909851 16.6973373,13.6488955 13.3536955,13.7896716 L13.3536955,13.7896716 L13.3536955,19.5466866 L10.6242627,19.5466866 L10.6242627,13.787403 C7.30629254,13.6420896 4.80229254,12.986806 4.80229254,12.2004179 C4.80229254,11.4140336 7.30573857,10.7587228 10.6231717,10.6133074 L10.6242627,8.80601791 L6.33578507,8.80601791 L6.33578507,6.07658507 L17.6421731,6.07658507 Z M13.3545303,10.7645693 L13.3536955,12.8179582 L10.6242627,12.8179582 L10.6232449,10.7667711 C7.74473389,10.890921 5.59142687,11.3920958 5.59142687,11.9913433 C5.59142687,12.684 8.46736716,13.2454328 12.0149493,13.2454328 C15.5624119,13.2454328 18.4383522,12.684 18.4383522,11.9913433 C18.4383522,11.3884871 16.2590322,10.8848883 13.3545303,10.7645693 Z" id="形状结合" fill="#FFFFFF"></path>
                </g>
            </g>
        </g>
    </g>
</svg>