<?xml version="1.0" encoding="UTF-8"?>
<svg width="32px" height="32px" viewBox="0 0 32 32" version="1.1" xmlns="http://www.w3.org/2000/svg" xmlns:xlink="http://www.w3.org/1999/xlink">
    <title>iUSDC</title>
    <defs>
        <linearGradient x1="50%" y1="100%" x2="50%" y2="0%" id="linearGradient-1">
            <stop stop-color="#FF9F31" offset="0%"></stop>
            <stop stop-color="#FFB056" offset="100%"></stop>
        </linearGradient>
        <path d="M12,24 C8.38067854,24 5.13562906,22.3977307 2.93547105,19.8638116 C1.10683435,17.757773 0,15.0081585 0,12 C0,5.37252 5.37252,0 12,0 C18.62748,0 24,5.37252 24,12 C24,18.62748 18.62748,24 12,24 Z" id="path-2"></path>
        <polygon id="path-4" points="7.1641791e-05 0.0968358209 23.9031164 0.0968358209 23.9031164 24 7.1641791e-05 24"></polygon>
    </defs>
    <g id="Page-1" stroke="none" stroke-width="1" fill="none" fill-rule="evenodd">
        <g id="2442" transform="translate(-804.000000, -2369.000000)">
            <g id="iUSDC" transform="translate(804.000000, 2369.000000)">
                <g id="DF备份-32"></g>
                <path d="M16,32 C11.1742381,32 6.84750542,29.8636409 3.9139614,26.4850821 C1.47577913,23.6770307 0,20.010878 0,16 C0,7.16336 7.16336,0 16,0 C24.83664,0 32,7.16336 32,16 C32,24.83664 24.83664,32 16,32 Z" id="Fill-504备份-25" fill="url(#linearGradient-1)"></path>
                <g id="ETH备份-27" transform="translate(4.000000, 4.000000)">
                    <mask id="mask-3" fill="white">
                        <use xlink:href="#path-2"></use>
                    </mask>
                    <path stroke="#FFFFFF" stroke-width="1.5" d="M12,-0.75 C15.5208488,-0.75 18.7083476,0.677077477 21.0156351,2.98436491 C23.3229225,5.29165234 24.75,8.47915125 24.75,12 C24.75,15.5208488 23.3229225,18.7083477 21.0156351,21.0156351 C18.7083476,23.3229225 15.5208488,24.75 12,24.75 C8.15459834,24.75 4.70677204,23.0477596 2.36915741,20.3555319 C0.426176942,18.1178038 -0.75,15.1962905 -0.75,12 C-0.75,8.47915125 0.677077479,5.29165235 2.98436491,2.98436491 C5.29165235,0.67707748 8.47915125,-0.75 12,-0.75 Z"></path>
                </g>
                <g id="编组-2备份-4" transform="translate(4.000000, 4.000000)">
                    <g id="编组">
                        <mask id="mask-5" fill="white">
                            <use xlink:href="#path-4"></use>
                        </mask>
                        <g id="Clip-2"></g>
                        <path d="M24.0000716,12.0967761 C24.0000716,18.7240802 18.6275618,24.0967761 12.0000716,24.0967761 C5.37258148,24.0967761 7.1641791e-05,18.7240802 7.1641791e-05,12.0967761 C7.1641791e-05,5.46935217 5.37258148,0.0967761194 12.0000716,0.0967761194 C18.6275618,0.0967761194 24.0000716,5.46935217 24.0000716,12.0967761" id="Fill-1" fill="#2775C9" mask="url(#mask-5)"></path>
                    </g>
                    <path d="M11.1654806,17.1408955 C11.1687045,17.1408955 11.1721672,17.1410149 11.175391,17.1410149 C11.175391,17.2934925 11.1740776,17.4460896 11.1757493,17.5986866 C11.1784955,17.8783284 11.3100776,18.0336716 11.5924657,18.0528955 C11.8299582,18.0690149 12.0704358,18.0691343 12.3080478,18.0530149 C12.5972418,18.0333134 12.7239284,17.8786866 12.7256,17.5794627 C12.7272716,17.3140299 12.7414806,17.0476418 12.7211821,16.7838806 C12.7043463,16.5627463 12.780406,16.4820299 12.9985552,16.4336716 C13.7853015,16.2588657 14.4356896,15.8624478 14.8743761,15.1670448 C15.2058388,14.641791 15.2967045,14.065791 15.2361672,13.4525373 C15.166794,12.7491343 14.8795104,12.1832836 14.2631522,11.8103881 C13.6247045,11.424 12.9044657,11.3116418 12.1857791,11.1836418 C11.7645254,11.1086567 11.3430328,11.0117015 10.9376597,10.8766567 C10.4790328,10.7239403 10.3153313,10.3494925 10.3388537,9.88632836 C10.3617791,9.43904478 10.582197,9.12752239 10.9968836,8.95331343 C11.3185552,8.81814925 11.6559881,8.82364179 11.9947343,8.83235821 C12.6821373,8.84979104 13.1751522,9.13385075 13.3867343,9.82364179 C13.444406,10.0120597 13.5819582,10.1158209 13.7906746,10.1127164 C14.0493015,10.1087761 14.3080478,10.1153433 14.5666746,10.1106866 C14.8333015,10.1060299 15.0088239,9.89755224 14.9350328,9.64489552 C14.8594507,9.38579104 14.7745552,9.12274627 14.6469134,8.88680597 C14.2983761,8.24214925 13.7279881,7.87725373 13.0336597,7.68979104 C12.7265552,7.60692537 12.7259582,7.60907463 12.7259582,7.28477612 C12.7259582,7.02602985 12.7272716,6.76740299 12.7256,6.50865672 C12.7235701,6.20143284 12.5800478,6.05564179 12.2783164,6.05349254 C12.0594507,6.0519403 11.8404657,6.0520597 11.6216,6.05349254 C11.3173612,6.05552239 11.1776597,6.19773134 11.1757493,6.50841791 C11.1739582,6.79355224 11.1688239,7.07892537 11.1778985,7.3639403 C11.182794,7.51737313 11.1350328,7.58447761 10.9743164,7.61408955 C10.4927642,7.70304478 10.0485851,7.888 9.65849552,8.19128358 C8.87652537,8.79928358 8.6454806,9.61516418 8.77145075,10.5609552 C8.8776,11.3571343 9.32834627,11.910806 10.0601672,12.192 C10.5624955,12.3848358 11.1017194,12.4835821 11.6263761,12.6162388 C12.0743761,12.7295522 12.5308537,12.8124179 12.9731224,12.944 C13.2858388,13.0371343 13.5062567,13.2582687 13.5891224,13.5917612 C13.7493612,14.2371343 13.4626746,14.8181493 12.8569433,15.0963582 C12.5128239,15.2543284 12.1523463,15.2613731 11.7860179,15.2515821 C10.8945552,15.2277015 10.302197,14.799403 10.1610627,14.001791 C10.1195104,13.767403 9.95879403,13.6594627 9.71724179,13.6567164 C9.45849552,13.6538507 9.19974925,13.6528955 8.94112239,13.6568358 C8.64595821,13.6614925 8.48906269,13.8489552 8.54100299,14.1369552 C8.75449552,15.3226269 9.46136119,16.055403 10.6087045,16.3819701 C10.7947343,16.4347463 11.0577791,16.4361791 11.1443463,16.5598806 C11.2376,16.6931343 11.1654806,16.9423284 11.1654806,17.1408955" id="Fill-3" fill="#FFFFFF"></path>
                    <path d="M9.7409194,4.22023881 L9.74020299,4.22023881 C9.74020299,4.08770149 9.74509851,3.95480597 9.73900896,3.82250746 C9.7288597,3.60292537 9.58760597,3.4641791 9.36993433,3.46883573 C9.2727403,3.47098507 9.17208358,3.49056716 9.08002388,3.52220896 C7.5966806,4.03170149 6.31536716,4.85140299 5.26533731,6.02202985 C3.79106866,7.66549254 3.03417313,9.60089552 2.94318806,11.7982687 C2.90999403,12.6020896 3.00611343,13.3985075 3.2009791,14.179403 C3.67118806,16.0632239 4.64193433,17.6420896 6.11978507,18.9029851 C7.02271045,19.6733731 8.04360597,20.2381493 9.17411343,20.6024478 C9.51405373,20.7120597 9.73817313,20.5514627 9.7406806,20.1985075 C9.74199403,20.0128358 9.74115821,19.8271642 9.7409194,19.6414925 C9.74032239,19.2714627 9.63584478,19.1208955 9.28718806,18.9839403 C8.04539701,18.4959403 6.98712836,17.7481194 6.16193433,16.6986866 C4.84432239,15.0231045 4.31094925,13.1205373 4.60241194,11.0017313 C4.82557612,9.37940299 5.52921791,7.98871642 6.67429254,6.82191045 C7.42844179,6.05355224 8.31584478,5.48686567 9.31966567,5.09904478 C9.63488955,4.97725373 9.73948657,4.81319403 9.7409194,4.47886567 C9.74127761,4.39265672 9.7409194,4.30644776 9.7409194,4.22023881" id="Fill-5" fill="#FFFFFF"></path>
                    <path d="M14.1603463,19.8793433 C14.1603463,19.9656716 14.1706149,20.0533134 14.1585552,20.1377313 C14.1069731,20.5001194 14.381003,20.7275821 14.7836299,20.5889552 C16.8015403,19.8943881 18.407391,18.6728955 19.5464955,16.8689552 C20.8672119,14.7773731 21.2754507,12.5037015 20.7339582,10.0888955 C20.1819582,7.62692537 18.8030925,5.73032836 16.6688836,4.38632836 C16.0666149,4.00698507 15.4202866,3.7161194 14.7426746,3.49808955 C14.3769433,3.38035821 14.1618985,3.54262687 14.1604657,3.92591045 C14.1598687,4.09832836 14.1602269,4.27074627 14.1604657,4.44316418 C14.1609433,4.83492537 14.2607642,4.97844776 14.6200478,5.1158806 C15.5289433,5.46370149 16.3499582,5.96161194 17.0427343,6.64292537 C18.9284657,8.49713433 19.7176,10.7452537 19.2475104,13.3539701 C18.7761075,15.9706866 17.2545552,17.8106866 14.8261373,18.8909254 C14.1672716,19.1840597 14.1603463,19.1687761 14.1603463,19.8793433" id="Fill-7" fill="#FFFFFF"></path>
                </g>
            </g>
        </g>
    </g>
</svg>