<?xml version="1.0" encoding="UTF-8"?>
<svg width="32px" height="32px" viewBox="0 0 32 32" version="1.1" xmlns="http://www.w3.org/2000/svg" xmlns:xlink="http://www.w3.org/1999/xlink">
    <title>iUSX</title>
    <defs>
        <linearGradient x1="50%" y1="100%" x2="50%" y2="0%" id="linearGradient-1">
            <stop stop-color="#FF9F31" offset="0%"></stop>
            <stop stop-color="#FFB056" offset="100%"></stop>
        </linearGradient>
        <path d="M13,25 C9.38067854,25 6.13562906,23.3977307 3.93547105,20.8638116 C2.10683435,18.757773 1,16.0081585 1,13 C1,6.37252 6.37252,1 13,1 C19.62748,1 25,6.37252 25,13 C25,19.62748 19.62748,25 13,25 Z" id="path-2"></path>
        <path d="M13,26 C9.07906842,26 5.56359815,24.2642083 3.18009363,21.5191292 C1.19907054,19.2375875 0,16.2588384 0,13 C0,5.82023 5.82023,0 13,0 C20.17977,0 26,5.82023 26,13 C26,20.17977 20.17977,26 13,26 Z" id="path-4"></path>
    </defs>
    <g id="Page-1" stroke="none" stroke-width="1" fill="none" fill-rule="evenodd">
        <g id="2442" transform="translate(-486.000000, -3124.000000)">
            <g id="iUSX" transform="translate(486.000000, 3124.000000)">
                <g id="DF备份-26"></g>
                <path d="M16,32 C11.1742381,32 6.84750542,29.8636409 3.9139614,26.4850821 C1.47577913,23.6770307 0,20.010878 0,16 C0,7.16336 7.16336,0 16,0 C24.83664,0 32,7.16336 32,16 C32,24.83664 24.83664,32 16,32 Z" id="Fill-504备份-21" fill="url(#linearGradient-1)"></path>
                <g id="ETH备份-22" transform="translate(3.000000, 3.000000)">
                    <mask id="mask-3" fill="white">
                        <use xlink:href="#path-2"></use>
                    </mask>
                    <path stroke="#FFFFFF" stroke-width="1.5" d="M13,0.25 C16.5208488,0.25 19.7083476,1.67707748 22.0156351,3.98436491 C24.3229225,6.29165234 25.75,9.47915125 25.75,13 C25.75,16.5208488 24.3229225,19.7083477 22.0156351,22.0156351 C19.7083476,24.3229225 16.5208488,25.75 13,25.75 C9.15459834,25.75 5.70677204,24.0477596 3.36915741,21.3555319 C1.42617694,19.1178038 0.25,16.1962905 0.25,13 C0.25,9.47915125 1.67707748,6.29165235 3.98436491,3.98436491 C6.29165235,1.67707748 9.47915125,0.25 13,0.25 L13,0.25 Z"></path>
                    <mask id="mask-5" fill="white">
                        <use xlink:href="#path-4"></use>
                    </mask>
                    <use id="蒙版备份" fill="#FFFFFF" xlink:href="#path-4"></use>
                </g>
                <path d="M17.0094855,24 L15.3396602,24 L15.3396602,22.1481485 C14.1859625,22.0148151 12.8956327,21.5111115 12,20.7111122 L13.0929764,19.0814826 C14.018971,19.7925936 14.9146038,20.2074088 15.8861472,20.2074088 C17.0702044,20.2074088 17.6166938,19.688891 17.6166938,18.7555581 C17.6166938,16.5333368 12.4705932,16.7259277 12.4705932,13.2740705 C12.4705932,11.4814787 13.5635696,10.2370403 15.3396626,9.91111112 L15.3396626,8 L17.0094879,8 L17.0094879,9.88148012 C18.223907,10.0444431 19.0891803,10.6370365 19.8178336,11.3777761 L18.5730551,12.7703695 C17.8747636,12.1481468 17.2675553,11.7925912 16.402282,11.7925912 C15.4003864,11.7925912 14.8538994,12.2518494 14.8538994,13.1555536 C14.8538994,15.1999983 20,14.8888858 20,18.5777792 C19.9848198,20.3851853 18.9525652,21.7333334 17.0094831,22.0888818 L17.0094855,24 Z" id="路径" fill="#242A47" fill-rule="nonzero"></path>
            </g>
        </g>
    </g>
</svg>