<?xml version="1.0" encoding="UTF-8"?>
<svg width="32px" height="32px" viewBox="0 0 32 32" version="1.1" xmlns="http://www.w3.org/2000/svg" xmlns:xlink="http://www.w3.org/1999/xlink">
    <title>ixBTC</title>
    <defs>
        <linearGradient x1="50%" y1="100%" x2="50%" y2="0%" id="linearGradient-1">
            <stop stop-color="#FF9F31" offset="0%"></stop>
            <stop stop-color="#FFB056" offset="100%"></stop>
        </linearGradient>
        <path d="M13,25 C9.38067854,25 6.13562906,23.3977307 3.93547105,20.8638116 C2.10683435,18.757773 1,16.0081585 1,13 C1,6.37252 6.37252,1 13,1 C19.62748,1 25,6.37252 25,13 C25,19.62748 19.62748,25 13,25 Z" id="path-2"></path>
        <path d="M13,26 C9.07906842,26 5.56359815,24.2642083 3.18009363,21.5191292 C1.19907054,19.2375875 0,16.2588384 0,13 C0,5.82023 5.82023,0 13,0 C20.17977,0 26,5.82023 26,13 C26,20.17977 20.17977,26 13,26 Z" id="path-4"></path>
    </defs>
    <g id="Page-1" stroke="none" stroke-width="1" fill="none" fill-rule="evenodd">
        <g id="2442" transform="translate(-486.000000, -3248.000000)">
            <g id="ixBTC" transform="translate(486.000000, 3248.000000)">
                <g id="DF备份-26"></g>
                <path d="M16,32 C11.1742381,32 6.84750542,29.8636409 3.9139614,26.4850821 C1.47577913,23.6770307 0,20.010878 0,16 C0,7.16336 7.16336,0 16,0 C24.83664,0 32,7.16336 32,16 C32,24.83664 24.83664,32 16,32 Z" id="Fill-504备份-21" fill="url(#linearGradient-1)"></path>
                <g id="ETH备份-22" transform="translate(3.000000, 3.000000)">
                    <mask id="mask-3" fill="white">
                        <use xlink:href="#path-2"></use>
                    </mask>
                    <path stroke="#FFFFFF" stroke-width="1.5" d="M13,0.25 C16.5208488,0.25 19.7083476,1.67707748 22.0156351,3.98436491 C24.3229225,6.29165234 25.75,9.47915125 25.75,13 C25.75,16.5208488 24.3229225,19.7083477 22.0156351,22.0156351 C19.7083476,24.3229225 16.5208488,25.75 13,25.75 C9.15459834,25.75 5.70677204,24.0477596 3.36915741,21.3555319 C1.42617694,19.1178038 0.25,16.1962905 0.25,13 C0.25,9.47915125 1.67707748,6.29165235 3.98436491,3.98436491 C6.29165235,1.67707748 9.47915125,0.25 13,0.25 L13,0.25 Z"></path>
                    <mask id="mask-5" fill="white">
                        <use xlink:href="#path-4"></use>
                    </mask>
                    <use id="蒙版备份" fill="#FFFFFF" xlink:href="#path-4"></use>
                </g>
                <path d="M19.1773935,19.649393 C19.0799483,19.967687 18.8607256,20.2299712 18.5601238,20.3879301 C18.2595221,20.5461153 17.9137487,20.5809658 17.5862535,20.4861452 L14.3076923,19.5371472 L15.0381242,17.1538462 L18.3164525,18.1029573 L18.3165689,18.1029573 C18.9925153,18.2985955 19.3788037,18.9923248 19.1773935,19.649393 M20.153013,14.7030563 C20.3155258,14.9952661 20.351381,15.3313867 20.2539432,15.6498524 C20.0525485,16.3068153 19.3384705,16.6820933 18.6629252,16.4867586 L18.6628087,16.4867586 L15.3846154,15.5375859 L16.1147585,13.1538462 L19.3930682,14.1030189 C19.7205383,14.1978569 19.9903839,14.4108464 20.153013,14.7030563 M19.904224,12.5596923 L19.4729261,12.4316657 L20.0766968,10.4097928 L18.5275666,9.94963608 L17.9237959,11.971509 L16.6011954,11.5786556 L17.2050819,9.55678274 L16.8339759,9.44653445 L15.3305683,9 L14.7485593,10.9489128 L12.9164116,10.4047133 L12.3993403,12.1363619 L14.231488,12.6806768 L12.349219,18.9836467 L10.5170713,18.4394473 L10,20.1712113 L11.832032,20.7152953 L11.3408895,22.360246 C11.0870834,22.2848853 11.2107468,22.3216347 11.7118798,22.4704943 C12.2130127,22.619354 12.7141486,22.7681988 13.2152873,22.9170288 L13.7283072,21.1991179 L15.054033,21.5928948 L14.5410131,23.3109211 L16.0838927,23.7692308 L16.5969125,22.0512045 L17.03122,22.1801546 C17.3081026,22.2623502 17.5908886,22.3031016 17.8719383,22.3031016 C18.3523157,22.3031016 18.8281786,22.1840797 19.2626018,21.9496144 C19.9512199,21.5780027 20.4534747,20.9613049 20.6769949,20.2128864 C20.9119747,19.4256789 20.7959896,18.616999 20.4222213,17.9513533 C21.1007688,17.5982124 21.6414538,16.9832463 21.876665,16.1956925 C22.1001852,15.447274 22.0180002,14.6569496 21.6455051,13.9702932 C21.2728943,13.2835214 20.6544229,12.7824977 19.904224,12.5596923 Z" id="Fill-505" fill="#242A47"></path>
            </g>
        </g>
    </g>
</svg>