<?xml version="1.0" encoding="UTF-8"?>
<svg width="32px" height="32px" viewBox="0 0 32 32" version="1.1" xmlns="http://www.w3.org/2000/svg" xmlns:xlink="http://www.w3.org/1999/xlink">
    <title>UNI</title>
    <defs>
        <linearGradient x1="77.8406104%" y1="89.8787602%" x2="13.841085%" y2="15.986748%" id="linearGradient-1">
            <stop stop-color="#FFF3F9" offset="0%"></stop>
            <stop stop-color="#FFFFFF" offset="100%"></stop>
        </linearGradient>
    </defs>
    <g id="Page-1" stroke="none" stroke-width="1" fill="none" fill-rule="evenodd">
        <g id="Artboard备份" transform="translate(-1812.000000, -3959.000000)" fill-rule="nonzero">
            <g id="UNI" transform="translate(1812.000000, 3959.000000)">
                <circle id="椭圆形" fill="url(#linearGradient-1)" cx="16" cy="16" r="16"></circle>
                <path d="M15.9577266,21.8780465 C16.7488873,22.0792938 17.4566153,22.5300812 17.8246787,23.0670703 C18.1843856,23.5918627 18.3387081,24.0492429 18.4993764,25.0668522 C18.5627668,25.4683579 18.6316952,25.871347 18.6525617,25.9626582 C18.7732276,26.4900877 19.0080326,26.9115368 19.2990089,27.1233327 C19.7611525,27.459569 20.5569447,27.4803365 21.3397984,27.1768998 C21.4726612,27.1253106 21.5879869,27.0897091 21.5960632,27.0977853 C21.6245774,27.125805 21.2303073,27.3880364 20.9522201,27.526157 C20.5780089,27.7119111 20.2804563,27.7837733 19.8850819,27.7837733 C19.168091,27.7837733 18.5728374,27.4213304 18.0761307,26.682105 C17.9783749,26.5365674 17.7586841,26.1009436 17.5879123,25.7137774 C17.0634661,24.5249184 16.8045147,24.1628051 16.1955973,23.7664089 C15.665679,23.4216018 14.9822788,23.3597937 14.4681669,23.6103227 C13.7928264,23.9394717 13.6044022,24.7972039 14.088088,25.3407859 C14.280336,25.5568671 14.6388233,25.7431157 14.9319587,25.7793765 C15.48037,25.847283 15.9516612,25.4325916 15.9516612,24.8822519 C15.9516612,24.5249184 15.8134747,24.3210339 15.4656184,24.1649478 C14.9905034,23.9518333 14.4798198,24.2008789 14.4822591,24.644579 C14.483314,24.8337943 14.5661863,24.9524659 14.7569675,25.038338 C14.8793641,25.0933885 14.882199,25.0976738 14.7823995,25.0770711 C14.346479,24.9872433 14.2443555,24.4649233 14.5948488,24.1181384 C15.0156716,23.7019636 15.8858314,23.885575 16.1846532,24.4538802 C16.3101979,24.6925421 16.3247681,25.1678879 16.21531,25.4548425 C15.9703685,26.0973175 15.25613,26.4350372 14.5315903,26.251261 C14.0382954,26.1259965 13.8374271,25.9905131 13.2426845,25.3816617 C12.2092194,24.3235063 11.8080103,24.118468 10.318088,23.887388 L10.0325838,23.843051 L10.3574639,23.5704358 C11.4486825,22.6546864 12.8064344,22.0041351 14.043207,21.8043712 C14.576224,21.7183342 15.4641515,21.7524523 15.9577266,21.8780465 Z M21.2180611,16.5280985 C21.2401966,16.5280985 21.3323979,16.5776274 21.4229015,16.6381499 C21.6029857,16.7586181 21.9641101,16.9614972 22.9260096,17.4827953 C24.1264061,18.1332971 24.8109107,18.6369923 25.2763672,19.2124673 C25.6839713,19.7164097 25.9361486,20.2904837 26.0576222,20.9904816 C26.1263528,21.3868778 26.0859715,22.3408659 25.9836172,22.7400641 C25.6608963,23.9989723 24.9107927,24.9877378 23.8409349,25.5647786 C23.6841895,25.6493321 23.5434317,25.7187221 23.5282681,25.7190523 C23.5129397,25.7193814 23.5701329,25.5749975 23.6551809,25.3983087 C24.0149867,24.6505125 24.0560273,23.9231543 23.7839066,23.1135501 C23.6291744,22.6531795 23.3252196,22.0987276 22.7334785,21.2032871 L22.5917512,20.9904816 C21.7941789,19.8019522 21.5987003,19.4856428 21.402546,19.0665012 C21.0118526,18.2317452 20.9221402,17.4257835 21.1361941,16.674147 C21.1591043,16.5938294 21.195909,16.5280985 21.2180611,16.5280985 Z M5.00026443,4 C5.02075098,4 6.57229305,5.32606665 8.25935859,6.79596309 L8.70161932,7.18189968 C10.4017019,8.66787058 12.1159574,10.1948681 12.4488536,10.5806553 L12.4488536,10.5806553 L12.6407061,10.8029668 L12.6239602,11.1486474 C12.6019236,11.6047255 12.458265,11.9076843 12.1149743,12.2221147 C11.7192374,12.5845577 11.2377931,12.7789814 10.4817065,12.8816323 C10.0179476,12.9446107 9.84925261,13.0140995 9.66185032,13.2192696 C9.48217817,13.4160338 9.41348048,13.6611566 9.36386914,14.2827158 C9.28706222,15.2447801 9.17351655,15.6515107 8.71534515,16.6059767 C8.27268347,17.5280883 8.18283915,17.8765544 8.26028888,18.3704426 C8.35468227,18.9723715 8.69645658,19.4100556 9.49661655,19.953753 C10.107314,20.3686092 10.3843957,20.6362797 10.5365921,20.9581765 C10.6300955,21.1559626 10.6422593,21.2279896 10.6404463,21.5718077 C10.6376938,22.0972594 10.5526952,22.3090553 10.1906478,22.6925954 C9.60567908,23.312325 8.56555517,23.8179981 7.28461026,24.1054471 C6.74935174,24.2256022 6.72571631,24.2254373 6.72571631,24.1024803 C6.72571631,23.9478776 6.52682759,23.5526351 6.18140578,23.0209203 C5.78114284,22.4048167 5.62457375,22.0967649 5.47457775,21.6301546 C5.30324393,21.097286 5.25486217,20.7371506 5.2797041,20.1797235 C5.30320767,19.6526072 5.3611969,19.4187747 5.57209617,19.0012977 C5.73953195,18.6697918 5.84810991,18.5190294 6.51167224,17.6965031 C7.64525665,16.291365 8.05431118,15.4703716 8.19976634,14.3081148 C8.32953048,13.2713038 8.50928504,12.7703282 8.91140057,12.324469 C9.15261715,12.0570458 9.20595346,11.9548893 9.20595346,11.760548 C9.20595346,11.6650173 9.44019808,11.4187902 9.14780436,10.7480152 C7.92625048,8.57565681 7.52883243,7.86888184 7.41577347,7.65416593 L7.39511067,7.61415534 C7.37047953,7.56510202 7.37300123,7.56270938 7.38268405,7.57092097 C7.41280859,7.5989975 8.2497238,8.87840957 9.24976307,10.4207123 C9.97009989,11.6915371 10.0490989,11.6684127 10.1893622,11.8006491 C10.1893622,11.8006491 10.2724324,11.8933943 10.5143412,11.8933943 C10.7282303,11.8933943 11.1554317,11.7744589 11.3632225,11.6570729 C11.7368733,11.4459363 11.8189545,11.1765352 11.6008459,10.8768729 C11.3366862,10.5139684 8.95959444,8.79624595 5.50828215,4.63288901 C5.21974855,4.28481851 4.99113086,4 5.00026443,4 Z M6.29266374,20.1319252 C6.29266374,20.1971946 6.32896242,20.2446633 6.41077003,20.286528 C6.54852308,20.3569069 6.55852281,20.4361861 6.45013935,20.5980411 C6.34037962,20.7620387 6.34923714,20.9062577 6.4751395,21.0041618 C6.67804987,21.162061 6.96528467,21.0751999 7.11571745,20.8104962 C7.27279254,20.5339254 7.18932683,20.1785698 6.92658453,20.0048477 C6.67833007,19.8408501 6.29266374,19.9181515 6.29266374,20.1319252 Z M19.8375309,15.8465277 L19.9768876,16.0019876 C20.169762,16.2171293 20.3221562,16.4924475 20.4513269,16.8591429 C20.5499068,17.1390102 20.5609993,17.2222451 20.5602904,17.6770212 C20.5594994,18.1235067 20.5471873,18.217109 20.4561562,18.469006 C20.3126295,18.8662428 20.1344737,19.1479067 19.835553,19.4502391 C19.2983991,19.9936398 18.6077961,20.2944395 17.6112181,20.4192095 C17.4379904,20.4408011 16.9330921,20.4773916 16.4892107,20.5003018 C15.3705822,20.5581542 14.6343401,20.6776499 13.9727787,20.9085652 C13.8776766,20.9416943 13.792744,20.9619674 13.7841238,20.9533967 C13.7573567,20.9268604 14.2077815,20.660014 14.5798171,20.4818417 C15.1043952,20.2306535 15.6265998,20.0936866 16.7966032,19.9000211 C17.374567,19.8042597 17.9714359,19.6882252 18.123006,19.6420586 C19.5543012,19.2058909 20.2900324,18.0803234 20.0545681,16.6871185 C20.017714,16.4692077 19.9538126,16.1909227 19.9125577,16.0687074 L19.8375309,15.8465277 Z M18.1621841,11.8154995 C18.1728975,11.8154995 18.2866739,11.899196 18.4150041,12.0015173 C19.0112961,12.4768632 19.6790218,12.6798905 21.5274974,12.9479236 C22.6153207,13.105658 23.2274685,13.2330652 23.7921477,13.4191819 C25.5868914,14.0107929 26.6972952,15.2113708 26.9621637,16.8466329 C27.0391355,17.3217974 26.9939743,18.2128566 26.8692043,18.6824831 C26.7708057,19.0534144 26.4701709,19.7220136 26.3903972,19.7477258 C26.3683111,19.7548132 26.3467195,19.6705893 26.3409507,19.5560217 C26.3107883,18.9419784 25.998616,18.3441865 25.4743181,17.8963824 C24.878158,17.3872646 24.0772893,16.9819021 22.1188777,16.1982573 C19.1783594,15.0215126 18.1427022,14.0000795 18.1427022,12.2766377 C18.1427022,12.0230101 18.1514872,11.8154995 18.1621841,11.8154995 Z M13.1178485,13.0629692 C13.3435554,12.9941231 13.8100667,13.0380811 14.029428,13.1488907 C14.4545361,13.3637194 14.7631648,13.8530585 14.6961977,14.2061561 C14.6144956,14.6369012 13.9117947,14.981461 13.103476,14.9870649 C12.6906141,14.9899493 12.5381376,14.9348164 12.3804691,14.7255423 C12.2828782,14.5959759 12.2459087,14.1764387 12.3110627,13.937266 C12.4178672,13.545221 12.7629049,13.171323 13.1178485,13.0629692 Z M12.9066295,13.6392024 C12.9066295,13.8278903 13.2250156,14.0337691 13.5168489,14.0337691 C13.7110913,14.0337691 13.9769158,13.9186411 14.0627714,13.7973653 C14.187426,13.6213192 14.1328865,13.4310655 13.9208929,13.3023892 C13.5171621,13.0573652 12.9066295,13.2601289 12.9066295,13.6392024 Z M13.0608861,5.7802723 C14.1227006,6.03113094 15.0888854,6.67375433 16.1202408,7.81506228 L16.3942405,8.11826831 L16.786203,8.05563606 C18.4374858,7.79188835 20.1173487,8.00150861 21.5223879,8.64662079 C21.9088948,8.82410082 22.5184055,9.17739616 22.5945531,9.26817996 C22.6187819,9.29710617 22.6632838,9.48335471 22.6934462,9.68209673 C22.7977783,10.369667 22.7455298,10.8967009 22.5340636,11.2903446 C22.4188532,11.5045469 22.4124251,11.572437 22.4898914,11.7557517 C22.5516995,11.9020474 22.7239382,12.0103188 22.8945287,12.0100881 C23.243621,12.0096101 23.6195794,11.4486229 23.7936311,10.6680437 L23.8628562,10.3579976 L23.9998231,10.5122543 C24.7514101,11.3586138 25.3418015,12.5128437 25.4431668,13.3344305 L25.4695383,13.5486493 L25.3432849,13.3539125 C25.125885,13.0188134 24.9073314,12.7907002 24.627629,12.6067097 C24.1232745,12.2750719 23.5900763,12.1622185 22.1780487,12.0882465 C20.9026418,12.0214608 20.1808215,11.9131894 19.4650997,11.6812193 C18.2473475,11.2866032 17.633469,10.7610526 16.1869277,8.87476701 C15.5444362,8.03694527 15.1473147,7.57340069 14.7522865,7.20009599 C13.854684,6.35185752 12.97269,5.90700371 11.8436778,5.73295198 C11.5337305,5.68517017 11.5206602,5.67956623 11.6665109,5.65728233 C11.946032,5.61456055 12.6060606,5.67279206 13.0608861,5.7802723 Z M23.2718056,6.09030194 C23.2805411,6.09030194 23.2540048,6.18909608 23.2127994,6.30984446 C23.1008854,6.63803746 23.0824254,7.08694588 23.159562,7.60923293 C23.2574661,8.27191511 23.3131758,8.36752819 24.0179535,9.08336537 C24.348421,9.41914017 24.7329501,9.84260012 24.8722244,10.0244149 L25.1257202,10.3549979 L24.8722244,10.1187424 C24.5623596,9.82982643 23.8496705,9.2663834 23.6922658,9.18583503 C23.586615,9.13182296 23.570957,9.13276244 23.5058524,9.19717477 C23.4458573,9.25652706 23.433166,9.34571209 23.4249249,9.767359 C23.411904,10.4245197 23.3217465,10.8463149 23.1043467,11.2680607 C22.986664,11.496174 22.9680391,11.4474856 23.074514,11.1900176 C23.153958,10.9977696 23.1620343,10.9132655 23.1615398,10.2771031 C23.1602213,8.99889424 23.0075964,8.69160064 22.1122848,8.16519305 C21.8854901,8.0318358 21.5116745,7.83952183 21.2817317,7.73779386 C21.0517724,7.6360659 20.869117,7.54745775 20.8757593,7.54083192 C20.9011089,7.51576253 21.7742355,7.76906054 22.1258002,7.90343969 C22.6486147,8.1033025 22.7348164,8.12921247 22.7982728,8.10509905 C22.8409616,8.08893004 22.8615643,7.96574229 22.882167,7.60361251 C22.9143073,7.04219678 22.9907845,6.67189184 23.1448928,6.33371065 C23.2058769,6.19985893 23.2629052,6.09030194 23.2718056,6.09030194 Z M11.5375379,6.3169318 L11.680768,6.3429077 C11.9497405,6.39166196 12.4134994,6.56322488 12.630652,6.69432408 C13.2265814,7.05403098 13.4845768,7.5276297 13.7470389,8.74375023 C13.8239282,9.09996292 13.9247991,9.50306738 13.9712129,9.63953976 C14.0459266,9.85919766 14.3282827,10.3722877 14.5578464,10.7055077 C14.7231955,10.9455046 14.6133583,11.0592316 14.2478497,11.0264321 C13.689648,10.9763592 12.9335284,10.4576983 12.4457385,9.79025274 C11.8165151,8.92925707 11.4271898,7.60915052 11.5114796,6.62231347 L11.5375379,6.3169318 Z" id="形状结合" fill="#FF007A"></path>
            </g>
        </g>
    </g>
</svg>