<?xml version="1.0" encoding="UTF-8"?>
<svg width="32px" height="32px" viewBox="0 0 32 32" version="1.1" xmlns="http://www.w3.org/2000/svg" xmlns:xlink="http://www.w3.org/1999/xlink">
    <title>USDC</title>
    <defs>
        <polygon id="path-1" points="0 0 32 0 32 32 0 32"></polygon>
    </defs>
    <g id="Page-1" stroke="none" stroke-width="1" fill="none" fill-rule="evenodd">
        <g id="Artboard备份" transform="translate(-1326.000000, -3959.000000)">
            <g id="USDC" transform="translate(1326.000000, 3959.000000)">
                <g id="编组">
                    <mask id="mask-2" fill="white">
                        <use xlink:href="#path-1"></use>
                    </mask>
                    <g id="Clip-2"></g>
                    <path d="M32,16 C32,24.8364496 24.8366535,32.0000799 16,32.0000799 C7.16334645,32.0000799 0,24.8364496 0,16 C0,7.1633906 7.16334645,-7.99244712e-05 16,-7.99244712e-05 C24.8366535,-7.99244712e-05 32,7.1633906 32,16" id="Fill-1" fill="#2775C9" mask="url(#mask-2)"></path>
                </g>
                <path d="M14.9475973,22.8174775 C14.9519132,22.8174775 14.9565488,22.8176373 14.9608648,22.8176373 C14.9608648,23.0217644 14.9591064,23.2260514 14.9613443,23.4303383 C14.9650209,23.8047046 15.1411753,24.012668 15.5192199,24.0384037 C15.8371611,24.0599833 16.1590984,24.0601432 16.4771994,24.0385636 C16.8643555,24.0121885 17.0339561,23.8051841 17.036194,23.4046027 C17.0384319,23.0492585 17.057454,22.6926355 17.0302795,22.3395291 C17.0077407,22.0434889 17.109565,21.935431 17.4016105,21.8706922 C18.4548604,21.6366733 19.325562,21.1059749 19.9128499,20.1750146 C20.3565928,19.4718391 20.4782385,18.7007278 20.3971946,17.8797436 C20.3043219,16.9380735 19.9197235,16.1805494 19.0945791,15.6813411 C18.2398625,15.16407 17.2756489,15.0136521 16.3135133,14.842294 C15.7495634,14.7419089 15.1852938,14.6121116 14.642604,14.4313224 C14.0286211,14.2268756 13.8094671,13.7255893 13.8409575,13.1055353 C13.8716487,12.5067411 14.1667313,12.0896952 14.7218894,11.8564756 C15.1525246,11.6755266 15.60426,11.6828797 16.0577537,11.6945487 C16.9780087,11.7178866 17.6380283,12.0981672 17.921282,13.0216146 C17.9984894,13.2738562 18.1826363,13.4127649 18.4620537,13.4086089 C18.8082882,13.4033338 19.1546826,13.4121255 19.5009171,13.4058914 C19.8578616,13.3996573 20.0928407,13.1205611 19.9940536,12.7823207 C19.8928687,12.4354485 19.7792155,12.0833013 19.6083362,11.7674398 C19.1417348,10.9044153 18.3781326,10.415917 17.4486063,10.1649541 C17.0374728,10.054019 17.0366735,10.0568962 17.0366735,9.6227465 C17.0366735,9.27635385 17.0384319,8.93012104 17.036194,8.58372838 C17.0334765,8.17243705 16.8413371,7.97726149 16.4373968,7.97438421 C16.1443923,7.97230617 15.8512278,7.97246602 15.5582233,7.97438421 C15.1509261,7.97710164 14.9639019,8.16748173 14.9613443,8.58340868 C14.9589466,8.96512795 14.9520731,9.34716693 14.9642216,9.72872635 C14.9707755,9.93413225 14.9068356,10.0239674 14.6916778,10.0636099 C14.0470038,10.1826974 13.4523628,10.4303034 12.9301337,10.8363197 C11.8832777,11.6502705 11.5739685,12.7425183 11.7426099,14.0086818 C11.8847164,15.0745545 12.4881491,15.8157741 13.4678682,16.1922184 C14.1403561,16.4503744 14.8622375,16.5825695 15.5646173,16.7601616 C16.1643735,16.9118583 16.775479,17.0227935 17.3675625,17.198947 C17.786209,17.3236292 18.0812916,17.6196694 18.1922273,18.0661275 C18.4067457,18.930111 18.0229464,19.707936 17.2120287,20.080384 C16.7513417,20.2918642 16.2687554,20.3012953 15.7783364,20.2881877 C14.5848982,20.2562179 13.7918836,19.6828397 13.6029412,18.6150488 C13.5473135,18.3012653 13.3321558,18.1567619 13.0087797,18.1530853 C12.6623854,18.149249 12.315991,18.1479702 11.9697564,18.1532452 C11.5746079,18.1594793 11.3645653,18.4104421 11.4340999,18.7959978 C11.7199113,20.3832978 12.6662218,21.3642907 14.2022179,21.8014776 C14.4512638,21.8721308 14.8034128,21.874049 14.9193039,22.0396525 C15.0441465,22.2180439 14.9475973,22.5516487 14.9475973,22.8174775" id="Fill-3" fill="#FFFFFF"></path>
                <path d="M13.040478,5.52014346 L13.0395189,5.52014346 C13.0395189,5.34271114 13.0460727,5.16479926 13.0379204,4.98768664 C13.0243331,4.69372443 12.8352309,4.50797996 12.5438248,4.51421394 C12.4137071,4.51709135 12.2789538,4.54330658 12.1557096,4.58566655 C10.1698963,5.26774198 8.45454872,6.36510498 7.0488301,7.93226401 C5.07516534,10.1324249 4.06187783,12.7234164 3.94007233,15.6651165 C3.8956341,16.7412195 4.02431315,17.807412 4.28518792,18.8528241 C4.9146762,21.3747609 6.2142546,23.4884434 8.19271485,25.1764483 C9.40149859,26.2077936 10.7682139,26.9638791 12.2816712,27.4515783 C12.7367634,27.5983196 13.0368014,27.3833228 13.0401583,26.9108093 C13.0419166,26.6622442 13.0407977,26.4136791 13.040478,26.165114 C13.0396787,25.6697421 12.8998102,25.4681726 12.4330489,25.2848258 C10.7706116,24.6315232 9.35386337,23.6303893 8.24914181,22.2254769 C6.48519991,19.9823167 5.77115112,17.4352837 6.16134434,14.5987642 C6.4601035,12.4268966 7.40209803,10.5651359 8.93505705,9.00309208 C9.94466801,7.97446413 11.1326713,7.21582105 12.4765281,6.69663168 C12.8985314,6.53358576 13.0385598,6.31395331 13.040478,5.86637627 C13.0409575,5.75096534 13.040478,5.6355544 13.040478,5.52014346" id="Fill-5" fill="#FFFFFF"></path>
                <path d="M18.9569485,26.4835331 C18.9569485,26.5991038 18.9706955,26.716433 18.9545507,26.8294462 C18.8854956,27.3145877 19.2523508,27.6191 19.7913641,27.4335153 C22.4928247,26.503674 24.6426439,24.8684193 26.1676104,22.4534215 C27.9357084,19.6533476 28.4822347,16.609504 27.7573161,13.376719 C27.0183308,10.0807937 25.172386,7.54175304 22.3152317,5.74249334 C21.5089496,5.23465325 20.6436829,4.84526123 19.7365357,4.55337706 C19.2469159,4.395766 18.9590265,4.61300071 18.9571083,5.12611582 C18.9563091,5.35693769 18.9567886,5.58775957 18.9571083,5.81858144 C18.9577477,6.34304582 19.0913821,6.53518425 19.57237,6.71917038 C20.7891462,7.18481035 21.888273,7.85138045 22.8157212,8.76347851 C25.3402282,11.2457727 26.3966751,14.2554086 25.7673467,17.7477883 C25.1362599,21.2508779 23.0992947,23.7141501 19.8482706,25.1603035 C18.9662198,25.5527327 18.9569485,25.532272 18.9569485,26.4835331" id="Fill-7" fill="#FFFFFF"></path>
            </g>
        </g>
    </g>
</svg>