<?xml version="1.0" encoding="UTF-8"?>
<svg width="32px" height="32px" viewBox="0 0 32 32" version="1.1" xmlns="http://www.w3.org/2000/svg" xmlns:xlink="http://www.w3.org/1999/xlink">
    <title>USDT</title>
    <g id="Page-1" stroke="none" stroke-width="1" fill="none" fill-rule="evenodd">
        <g id="Artboard备份" transform="translate(-1245.000000, -3959.000000)">
            <g id="USDT" transform="translate(1245.000000, 3959.000000)">
                <path d="M32,16 C32,24.83664 24.83664,32 16,32 C7.16336,32 0,24.83664 0,16 C0,7.16336 7.16336,0 16,0 C24.83664,0 32,7.16336 32,16" id="Fill-692" fill="#1BA27A"></path>
                <path d="M23.509216,8.068192 L23.509216,11.725632 L17.762656,11.725632 L17.7627966,14.1443534 C22.2433185,14.3329347 25.633536,15.2147769 25.633536,16.274128 C25.633536,17.333488 22.243136,18.215088 17.762656,18.403728 L17.762656,18.403728 L17.762656,26.118128 L14.105216,26.118128 L14.105216,18.400688 C9.659136,18.205968 6.303776,17.327888 6.303776,16.274128 C6.303776,15.2203002 9.65885808,14.3421349 14.1046772,14.1473595 L14.105216,11.725632 L8.358656,11.725632 L8.358656,8.068192 L23.509216,8.068192 Z M17.7624047,14.3500341 L17.762656,17.101632 L14.105216,17.101632 L14.1051585,14.352985 C10.2472989,14.5192505 7.361216,15.1908857 7.361216,15.993968 C7.361216,16.922128 11.214976,17.674448 15.968736,17.674448 C20.722336,17.674448 24.576096,16.922128 24.576096,15.993968 C24.576096,15.1860459 21.6551219,14.5111599 17.7624047,14.3500341 Z" id="形状结合" fill="#FFFFFF"></path>
            </g>
        </g>
    </g>
</svg>