<?xml version="1.0" encoding="UTF-8"?>
<svg width="32px" height="32px" viewBox="0 0 32 32" version="1.1" xmlns="http://www.w3.org/2000/svg" xmlns:xlink="http://www.w3.org/1999/xlink">
    <title>WBTC</title>
    <g id="Page-1" stroke="none" stroke-width="1" fill="none" fill-rule="evenodd">
        <g id="Artboard备份" transform="translate(-1083.000000, -3959.000000)">
            <g id="WBTC" transform="translate(1083.000000, 3959.000000)">
                <path d="M16,32 C19.1644939,32 22.2579407,31.061617 24.8891237,29.3035235 C27.5203068,27.5453958 29.5710642,25.0465704 30.78206,22.1229279 C31.9930558,19.1993194 32.3099239,15.9822642 31.6925621,12.8785706 C31.0752004,9.77487705 29.5513536,6.92394945 27.3137025,4.68629843 C25.0760514,2.44865762 22.2251237,0.924807441 19.1214301,0.307442347 C16.0177364,-0.309920126 12.800681,0.00693171457 9.87707248,1.21793424 C6.95342988,2.42893677 4.45460432,4.47969418 2.69648685,7.1108771 C0.938382992,9.74206003 0,12.8355068 0,16 C0,20.2434726 1.68570896,24.3131236 4.68629794,27.3137022 C7.6868767,30.3142809 11.7565278,32 16,32 Z" id="路径" fill="#FFFFFF" fill-rule="nonzero"></path>
                <path d="M19.6457194,15.3678642 C20.5022641,14.9042386 21.038196,14.0877621 20.9130216,12.7275238 C20.7444428,10.8686302 19.2337024,10.2453111 17.3266385,10.0677792 L17.3262981,7.4893622 L15.8486811,7.4893622 L15.8482726,10.0000004 C15.4595066,10.0000004 15.0631832,10.0081026 14.668664,10.0165111 L14.6683576,7.48970263 L13.1920683,7.48956646 L13.1917959,10.0673366 C12.871864,10.0742813 12.5576512,10.0808856 12.2508597,10.0808856 L12.2508597,10.07326 L10.2127661,10.0723749 L10.2130384,11.7483919 C10.2130384,11.7483919 11.3042385,11.7265706 11.286264,11.7477451 C11.8845278,11.7481876 12.079864,12.117311 12.1360683,12.4359153 L12.1365108,15.3732769 L12.1365108,19.4993364 C12.1101619,19.6992683 11.9993193,20.0187577 11.5810044,20.0193364 C11.6000342,20.0371407 10.5061448,20.0191662 10.5061448,20.0191662 L10.2130384,21.8932768 L12.1355917,21.8932768 C12.4938555,21.8937194 12.8458215,21.8996428 13.1911491,21.9025704 L13.1924427,24.5101959 L14.6683576,24.5106385 L14.6679491,21.9303491 C15.0739747,21.9391662 15.4659406,21.9429789 15.8487832,21.9424342 L15.8483406,24.5106385 L17.3259236,24.5106385 L17.3267407,21.9073704 C19.8104513,21.755813 21.5492429,21.0910981 21.7654131,18.6130045 C21.9396429,16.6179407 21.0558301,15.7273876 19.6457194,15.3678642 Z M14.7039662,11.8615153 C15.5373279,11.8615153 18.158196,11.5795749 18.1585705,13.4290727 C18.158196,15.2022131 15.5381449,14.9950642 14.7039662,14.9950642 L14.7039662,11.8615153 Z M14.7033194,20.0320683 L14.7039662,16.5770216 C15.7052257,16.5767152 18.8456854,16.270911 18.8460939,18.303762 C18.8465024,20.2532428 15.7052257,20.0312853 14.7033194,20.0320683 Z" id="形状" fill="#F6941A" fill-rule="nonzero"></path>
                <ellipse id="椭圆形" stroke="#657786" stroke-width="1.36170215" cx="16.0000002" cy="16.0000003" rx="12.5957449" ry="12.5957444"></ellipse>
                <ellipse id="椭圆形" stroke="#283947" stroke-width="1.36170215" cx="16.0000002" cy="16.0000003" rx="15.3191491" ry="15.3191486"></ellipse>
                <path d="M25.8944004,26.5531916 L21.3366811,22.1441023 M9.01388949,10.2232515 L5.10638305,6.46808563 M6.14420434,26.5531916 L10.7019236,22.1441023 M23.0247152,10.2232515 L26.8936174,6.46808563" id="形状" stroke="#FFFFFF" stroke-width="1.36170215"></path>
            </g>
        </g>
    </g>
</svg>