<?xml version="1.0" encoding="UTF-8"?>
<svg width="32px" height="32px" viewBox="0 0 32 32" version="1.1" xmlns="http://www.w3.org/2000/svg" xmlns:xlink="http://www.w3.org/1999/xlink">
    <title>xAAPL</title>
    <g id="Page-1" stroke="none" stroke-width="1" fill="none" fill-rule="evenodd">
        <g id="2442" transform="translate(-148.000000, -3359.000000)">
            <g id="xAAPL" transform="translate(148.000000, 3359.000000)">
                <circle id="椭圆形" fill="#FFAA1D" cx="16" cy="16" r="16"></circle>
                <circle id="椭圆形备份" fill="#242A47" cx="16" cy="16" r="13.5384615"></circle>
                <circle id="椭圆形备份-2" fill="#FFFFFF" cx="16" cy="16" r="11.0769231"></circle>
                <path d="M20.1220684,16.245162 L20.1220684,16.2451616 C20.150298,15.1110295 20.7690998,14.0741014 21.7538304,13.5107899 L21.7538305,13.5107899 C21.0965264,12.6433572 20.0817266,12.1202987 18.9938852,12.0882223 C17.8164701,11.9754014 16.6975135,12.7466862 16.0995794,12.7466862 C15.501641,12.7466862 14.5816635,12.1046328 13.6052705,12.1220683 L13.6052707,12.1220683 C12.3230075,12.1444422 11.1422593,12.8243189 10.4791781,13.9220794 C9.14586847,16.1190111 10.1376452,19.3744024 11.4371094,21.1569835 C12.0719696,22.0298078 12.8288803,23.0092984 13.8227043,22.9734009 C14.7796107,22.9375033 15.1416552,22.3846806 16.29856,22.3846806 C17.4554621,22.3846806 17.7805791,22.9734009 18.7939066,22.9549388 C19.8195301,22.9364773 20.4759241,22.065704 21.1066842,21.1908254 L21.1066844,21.1908251 C21.5553538,20.5660081 21.9082923,19.877745 22.1538462,19.1487718 L22.1538462,19.1487719 C20.9537474,18.6782935 20.152936,17.5338577 20.1220872,16.2451768 L20.1220684,16.245162 Z M18.2195379,10.9118058 L18.2195379,10.9118059 C18.7864942,10.2871992 19.0707212,9.45639752 19.0051646,8.61538462 L19.0051645,8.61538462 C18.1544117,8.69018578 17.3615256,9.07750142 16.7795627,9.70256797 L16.7795629,9.70256779 C16.2110782,10.2969517 15.9198373,11.1036558 15.977526,11.9241089 L15.9775259,11.9241089 C16.8396479,11.9406117 17.6632733,11.5675969 18.2195335,10.9087207 L18.2195379,10.9118058 Z" id="形状" fill="#242A47" fill-rule="nonzero"></path>
            </g>
        </g>
    </g>
</svg>