<?xml version="1.0" encoding="UTF-8"?>
<svg width="32px" height="32px" viewBox="0 0 32 32" version="1.1" xmlns="http://www.w3.org/2000/svg" xmlns:xlink="http://www.w3.org/1999/xlink">
    <title>xAMZN</title>
    <g id="Page-1" stroke="none" stroke-width="1" fill="none" fill-rule="evenodd">
        <g id="2442" transform="translate(-61.000000, -3338.000000)">
            <g id="xAMZN" transform="translate(61.000000, 3338.000000)">
                <circle id="椭圆形" fill="#FFAA1D" cx="16" cy="16" r="16"></circle>
                <circle id="椭圆形备份" fill="#242A47" cx="16" cy="16" r="13.5384615"></circle>
                <g id="编组-7" transform="translate(4.923077, 4.923077)">
                    <circle id="椭圆形备份-2" fill="#FFFFFF" cx="11.0769231" cy="11.0769231" r="11.0769231"></circle>
                    <g id="编组-2" transform="translate(4.923077, 4.923077)" fill-rule="nonzero">
                        <path d="M9.57832516,7.13578193 C9.236517,6.7123106 9.09002779,6.24207557 9.10030773,5.69390103 C9.11829764,4.65470758 9.11572765,3.61291615 9.10030773,2.57112472 C9.08231783,1.29811275 8.54776072,0.560285402 7.4015469,0.20695963 C6.46607194,-0.0814165512 5.52545702,-0.0684266331 4.59769202,0.245929384 C3.63908719,0.570677336 2.99402067,1.21237929 2.75758195,2.23078887 C2.67791238,2.56852674 2.73445207,2.65945616 3.07883021,2.70621987 C3.4514782,2.75558156 3.82412619,2.79455131 4.1942042,2.84131502 C4.54115233,2.88548074 4.59512203,2.85430493 4.70306145,2.51656706 C4.9343602,1.78913165 5.76189574,1.41761999 6.43266212,1.77094577 C6.60485119,1.86187519 6.79760016,2.03853808 6.84385991,2.21260298 C6.94408936,2.58411464 6.95179932,2.97900815 7.00062906,3.37909762 C6.83614995,3.39468553 6.7513404,3.39728351 6.66653086,3.41027343 C6.03688426,3.49860487 5.3995277,3.54536858 4.78016104,3.68825767 C3.20218955,4.05197538 2.40549384,5.09376681 2.46460353,6.64476303 C2.50315332,7.68915244 3.09425013,8.50751728 4.04771499,8.72314992 C5.11682922,8.9647624 6.11141386,8.79329548 6.94151938,8.00091048 C7.04174884,7.90478508 7.1419783,7.80606171 7.22935783,7.72292623 C7.48892643,8.01909636 7.73050512,8.32046246 7.99778368,8.59325074 C8.21366252,8.81407935 8.35244177,8.8062854 8.58888049,8.60364268 C8.9024188,8.33605036 9.21081714,8.06326208 9.51921548,7.7904738 C9.81733387,7.52288149 9.8301838,7.45013795 9.57832516,7.13578193 L9.57832516,7.13578193 Z M6.64854096,6.60839126 C6.47892187,6.88637551 6.26561302,7.1098021 5.9546447,7.22151539 C5.35840792,7.43714803 4.81614084,7.11759605 4.70820142,6.48368804 C4.55657224,5.58998168 4.96520004,4.93269183 5.84156531,4.72485314 C6.19108343,4.64171766 6.56116143,4.63132573 6.95436931,4.58456202 C6.96464925,5.32758534 7.02118895,6.00046309 6.64854096,6.60839126 Z" id="形状结合" fill="#242A47"></path>
                        <path d="M0.0632637059,8.76326571 C0.19979295,8.5409679 0.37380081,8.60889223 0.54780867,8.71077873 C1.38840049,9.19859891 2.21560708,9.7265562 3.07761525,10.1649769 C4.7962775,11.0356433 6.57383471,11.0078561 8.35406897,10.4582865 C9.03403814,10.2483386 9.69259097,9.94267907 10.361852,9.68024416 C10.4046847,9.66480681 10.4448403,9.64010705 10.487673,9.62158224 C10.7098677,9.51969574 10.9052919,9.5443955 11.0284359,9.80065547 C11.1435488,10.0414781 11.0391441,10.2329012 10.8678133,10.3656624 C10.5760155,10.5941351 10.2842177,10.8256954 9.97368059,11.0202059 C8.67799129,11.8383854 7.28592841,12.2613687 5.98488503,12.3077038 C4.30102436,12.3107682 2.97053349,11.6963618 1.75247847,10.711459 C1.21171558,10.2699508 0.708431309,9.77286824 0.189084774,9.29739794 C0.0364932659,9.15846181 -0.075942582,8.98865098 0.0632637059,8.76326571 Z M10.0871824,8.87902894 C10.6705693,8.54648704 11.2950759,8.51011526 11.9375724,8.63222049 C12.194571,8.68158218 12.3102204,8.83486322 12.3076504,9.09466158 C12.3025105,9.79351917 12.0814917,10.4066433 11.6163242,10.92624 C11.5700644,10.9781997 11.5160947,11.0483453 11.456985,11.0587372 C11.3541856,11.0769231 11.2128363,11.095109 11.1460167,11.0405513 C11.081767,10.9885916 11.0509272,10.8327126 11.0740571,10.7417832 C11.1588666,10.4092413 11.277086,10.0870913 11.3747455,9.75974538 C11.4030153,9.67141394 11.4030153,9.57269056 11.4287152,9.38303776 C11.0200874,9.41421356 10.6577193,9.43759542 10.2953513,9.46617324 C10.1128823,9.47916315 9.88672349,9.59087645 9.79420399,9.33887204 C9.69911451,9.08686763 9.91242335,8.97775232 10.0871824,8.87902894 Z" id="形状结合" fill="#F59700"></path>
                    </g>
                </g>
            </g>
        </g>
    </g>
</svg>