<?xml version="1.0" encoding="UTF-8"?>
<svg width="32px" height="32px" viewBox="0 0 32 32" version="1.1" xmlns="http://www.w3.org/2000/svg" xmlns:xlink="http://www.w3.org/1999/xlink">
    <title>xBTC</title>
    <g id="Page-1" stroke="none" stroke-width="1" fill="none" fill-rule="evenodd">
        <g id="Artboard备份" transform="translate(-1735.000000, -4051.000000)">
            <g id="COIN" transform="translate(1735.000000, 4051.000000)">
                <circle id="椭圆形" fill="#FFAA1D" cx="16" cy="16" r="16"></circle>
                <circle id="椭圆形备份" fill="#242A47" cx="16" cy="16" r="13.5384615"></circle>
                <circle id="椭圆形备份-2" fill="#FFFFFF" cx="16" cy="16" r="11.0769231"></circle>
                <g id="编组-3" transform="translate(4.923077, 4.923077)">
                    <path d="M11.0769231,22.1538462 C7.73601096,22.1538462 4.74058067,20.6748283 2.70966558,18.3358261 C1.02169324,16.3917905 0,13.8536848 0,11.0769231 C0,4.95924923 4.95924923,0 11.0769231,0 C17.1945969,0 22.1538462,4.95924923 22.1538462,11.0769231 C22.1538462,17.1945969 17.1945969,22.1538462 11.0769231,22.1538462 Z" id="形状结合" fill="#FFFFFF"></path>
                    <path d="M14.0099017,14.090564 C13.9199522,14.3843738 13.7175928,14.6264823 13.4401143,14.7722905 C13.1626358,14.9183076 12.8434603,14.9504773 12.541157,14.8629506 L9.5147929,13.9869524 L10.1890377,11.7869822 L13.2151869,12.6630849 L13.2152944,12.6630849 C13.8392449,12.843674 14.1958188,13.4840394 14.0099017,14.090564 M14.9104736,9.52471467 C15.0604853,9.79444683 15.0935825,10.1047119 15.0036399,10.3986803 C14.8177371,11.0051076 14.1585881,11.351518 13.5350078,11.1712091 L13.5349004,11.1712091 L10.5088757,10.2950497 L11.182854,8.09467456 L14.2089861,8.97083399 C14.5112661,9.0583768 14.7603544,9.25498251 14.9104736,9.52471467 M14.6808221,7.54622482 L14.282701,7.42804646 L14.8400278,5.56170226 L13.4100615,5.13694218 L12.8527347,7.00328639 L11.6318727,6.64065253 L12.1893063,4.77430833 L11.846747,4.67254067 L10.4589861,4.26035503 L9.92174705,6.05935142 L8.23053375,5.55701349 L7.7532372,7.15545834 L9.4444505,7.65790283 L7.70697138,13.4760289 L6.01575809,12.973691 L5.53846154,14.5722424 L7.22956799,15.0744738 L6.77620571,16.5928898 C6.54192314,16.523326 6.65607399,16.5572486 7.11865824,16.6946575 C7.5812425,16.8320664 8.04382944,16.9694616 8.50641907,17.1068431 L8.97997588,15.5210793 L10.2037228,15.8845656 L9.73016596,17.4704361 L11.1543625,17.8934911 L11.6279193,16.3076207 L12.0288185,16.4266516 C12.2844024,16.5025244 12.5454356,16.5401412 12.8048661,16.5401412 C13.2482914,16.5401412 13.6875495,16.4302747 14.0885555,16.2138453 C14.724203,15.870819 15.1878228,15.3015595 15.3941491,14.6107117 C15.6110535,13.8840586 15.5039904,13.1375849 15.1589735,12.5231427 C15.785325,12.1971665 16.2844189,11.6295055 16.501537,10.9025327 C16.7078633,10.2116849 16.6320002,9.48215465 16.2881586,8.84831799 C15.9442102,8.21437476 15.3733135,7.75189139 14.6808221,7.54622482 Z" id="Fill-505" fill="#242A47"></path>
                </g>
            </g>
        </g>
    </g>
</svg>