<?xml version="1.0" encoding="UTF-8"?>
<svg width="32px" height="32px" viewBox="0 0 32 32" version="1.1" xmlns="http://www.w3.org/2000/svg" xmlns:xlink="http://www.w3.org/1999/xlink">
    <title>xCOIN</title>
    <g id="Page-1" stroke="none" stroke-width="1" fill="none" fill-rule="evenodd">
        <g id="2442" transform="translate(-185.000000, -3329.000000)">
            <g id="xCOIN" transform="translate(185.000000, 3329.000000)">
                <g id="COIN">
                    <circle id="椭圆形" fill="#FFAA1D" cx="16" cy="16" r="16"></circle>
                    <circle id="椭圆形备份" fill="#242A47" cx="16" cy="16" r="13.5384615"></circle>
                    <circle id="椭圆形备份-2" fill="#FFFFFF" cx="16" cy="16" r="11.0769231"></circle>
                </g>
                <g id="COIN" transform="translate(4.923077, 4.923077)" fill-rule="nonzero">
                    <circle id="椭圆形" fill="#1652F0" cx="11.0769231" cy="11.0769231" r="11.0769231"></circle>
                    <path d="M16,6.72547009 C14.825692,5.61176068 13.2035204,4.92307692 11.4117777,4.92307692 C7.82829254,4.92307692 4.92307692,7.67835897 4.92307692,11.0769231 C4.92307692,14.4754872 7.82829254,17.2307692 11.4117777,17.2307692 C13.2035204,17.2307692 14.825692,16.5420855 16,15.4283761 L13.9811534,13.5137094 C13.3236331,14.1372308 12.4152171,14.5230769 11.4117777,14.5230769 C9.40482704,14.5230769 7.77811336,12.9803077 7.77811336,11.0769231 C7.77811336,9.17353846 9.40482704,7.63076923 11.4117777,7.63076923 C12.4152171,7.63076923 13.3236331,8.01661538 13.9811534,8.64013675 L16,6.72547009 Z" id="路径" fill="#FFFFFF"></path>
                </g>
            </g>
        </g>
    </g>
</svg>