<?xml version="1.0" encoding="UTF-8"?>
<svg width="32px" height="32px" viewBox="0 0 32 32" version="1.1" xmlns="http://www.w3.org/2000/svg" xmlns:xlink="http://www.w3.org/1999/xlink">
    <title>xTSLA</title>
    <g id="Page-1" stroke="none" stroke-width="1" fill="none" fill-rule="evenodd">
        <g id="2442" transform="translate(-107.000000, -3338.000000)">
            <g id="xTSLA" transform="translate(107.000000, 3338.000000)">
                <circle id="椭圆形" fill="#FFAA1D" cx="16" cy="16" r="16"></circle>
                <circle id="椭圆形备份" fill="#242A47" cx="16" cy="16" r="13.5384615"></circle>
                <circle id="椭圆形备份-2" fill="#FFFFFF" cx="16" cy="16" r="11.0769231"></circle>
                <g id="特斯拉" transform="translate(9.886880, 11.279863)" fill="#E31837" fill-rule="nonzero">
                    <path d="M5.31631869,1.67755398 C5.51668791,2.02598467 5.82548875,2.31201625 6.1128737,2.65860079 C6.48518183,2.21220003 6.81970505,1.79300002 7.17724393,1.39447672 C7.26684403,1.29466122 7.42782835,1.2108455 7.55964461,1.20506064 C8.56469146,1.16222982 10.7105377,1.69626073 11.6449378,2.21490797 C11.2871526,2.84198562 10.6856747,3.12986336 10.0754648,3.42684447 C9.73909487,2.60105926 9.1220641,2.5614593 8.47578499,2.56050709 L8.21630938,2.56041548 C8.08638755,2.55962835 7.95663666,2.55640025 7.829068,2.5447509 L6.15374154,11.8995935 L6.09355685,11.901932 C5.93429465,11.0869154 5.76481849,10.2739974 5.61761759,9.45700125 C5.24309432,7.37601325 4.88666242,5.29182813 4.5054937,3.2119459 C4.38143226,2.53452925 4.35484689,2.51237538 3.6498617,2.56222159 C3.05035379,2.60480626 2.38918716,2.6002524 2.20025665,3.41133075 C1.52346091,3.20469638 0.839395208,2.68321981 0.561979019,2.11657011 C1.44050288,1.8651239 2.29748585,1.60986159 3.16062387,1.37810771 C3.47299322,1.29416915 3.79939384,1.26044604 4.12074758,1.21379983 C4.60345608,1.14376898 5.02561042,1.17232286 5.31631869,1.67755398 Z M12.2263556,1.17982575 L11.8849393,1.8774268 C8.03053579,0.369973127 4.20112027,0.349300026 0.347077327,1.88419604 C0.236800276,1.65994939 0.133045828,1.44911861 0,1.17810267 C4.08073792,-0.383004913 8.11705271,-0.40294484 12.2263556,1.17982575 Z" id="形状结合"></path>
                </g>
            </g>
        </g>
    </g>
</svg>