<?xml version="1.0" encoding="UTF-8"?>
<svg width="256px" height="256px" viewBox="0 0 256 256" version="1.1" xmlns="http://www.w3.org/2000/svg" xmlns:xlink="http://www.w3.org/1999/xlink">
    <title>logo_dDai_256x256</title>
    <defs>
        <linearGradient x1="49.95%" y1="-14.1666667%" x2="49.95%" y2="110.5%" id="linearGradient-1">
            <stop stop-color="#F9A606" offset="0%"></stop>
            <stop stop-color="#FBCC5F" offset="100%"></stop>
        </linearGradient>
        <linearGradient x1="8.63771005%" y1="18.0462988%" x2="100%" y2="95.9067793%" id="linearGradient-2">
            <stop stop-color="#FFFFFF" stop-opacity="0.896279502" offset="0%"></stop>
            <stop stop-color="#FFFFFF" offset="100%"></stop>
        </linearGradient>
    </defs>
    <g id="logo_dDai_256x256" stroke="none" stroke-width="1" fill="none" fill-rule="evenodd">
        <g id="编组-2" fill-rule="nonzero">
            <ellipse id="椭圆形" fill="#F9FAFB" cx="127.80924" cy="128" rx="127.80924" ry="128"></ellipse>
            <path d="M127.937049,256 C198.524143,256 255.746289,198.692448 255.746289,128 C255.746289,57.307552 198.524143,-2.71490956e-14 127.937049,-2.71490956e-14 C57.3499551,-2.71490956e-14 0.12780924,57.307552 0.12780924,128 C0.12780924,198.692448 57.3499551,256 127.937049,256 Z" id="路径" fill="url(#linearGradient-1)"></path>
            <path d="M200.916125,106.666667 L185.749429,106.666667 C177.228813,83.456 154.947402,67.5413333 125.338261,67.5413333 L76.8133532,67.5413333 L76.8133532,106.666667 L59.7721212,106.666667 L59.7721212,120.704 L76.8133532,120.704 L76.8133532,135.424 L59.7721212,135.424 L59.7721212,149.461333 L76.8133532,149.461333 L76.8133532,188.117333 L125.508674,188.117333 C154.77699,188.117333 177.0584,172.330667 185.621619,149.461333 L201.086538,149.461333 L201.086538,135.424 L188.859454,135.424 C189.166734,132.904067 189.323225,130.367983 189.328087,127.829333 L189.328087,127.488 C189.328087,125.184 189.328087,122.922667 188.987263,120.704 L200.958728,120.704 L200.958728,106.666667 L200.916125,106.666667 Z M90.1481172,80.0426667 L125.210452,80.0426667 C146.938023,80.0426667 163.08459,90.752 170.540129,106.624 L90.2759265,106.624 L90.1481172,80.0426667 Z M125.210452,175.488 L90.1481172,175.488 L90.1481172,149.418667 L170.540129,149.418667 C163.08459,165.248 146.980626,175.701333 125.338261,175.701333 L125.210452,175.488 Z M175.098659,128.128 C175.102439,130.554938 174.931585,132.978993 174.587422,135.381333 L90.2759265,135.381333 L90.2759265,120.661333 L174.800437,120.661333 C175.109303,123.023898 175.265838,125.40394 175.269071,127.786667 L175.098659,128.128 Z" id="形状" fill="#FFFFFF"></path>
        </g>
        <g id="编组" transform="translate(154.000000, 154.000000)">
            <circle id="椭圆形" fill="url(#linearGradient-2)" cx="51" cy="51" r="51"></circle>
            <g id="编组-15" transform="translate(20.000000, 16.000000)">
                <path d="M8.19677659e-13,61.6550927 L8.19677659e-13,14.4471963 L30.5380915,14.4471963 C42.0868829,14.4471963 51.4822362,24.2532333 51.4822362,36.3059799 C51.4822362,48.3589675 42.0868829,58.1650044 30.5380915,58.1650044 L26.8706187,58.1650044 L26.8706187,48.8817215 L30.5380915,48.8817215 C37.1548226,48.8817215 42.5380565,43.2403642 42.5380565,36.3059799 C42.5380565,29.3720776 37.1548226,23.7307202 30.5380915,23.7307202 L8.94393862,23.7307202 L8.94393862,61.6550927 L8.19677659e-13,61.6550927 Z" id="Fill-13" fill="#FA9B00"></path>
                <path d="M13.7143525,73.555279 L13.7143525,29.3376129 L22.6585322,29.3376129 L22.6585322,64.2717551 L33.1186744,64.2717551 C47.6056377,64.2717551 59.3918255,51.93823 59.3918255,36.7776395 C59.3918255,21.61729 47.6056377,9.28328288 33.1186744,9.28328288 L11.8019259,9.28328288 L11.8019259,2.29816166e-14 L33.1186744,2.29816166e-14 C52.537698,2.29816166e-14 68.3362462,16.4984457 68.3362462,36.7773985 C68.3362462,57.0568333 52.537698,73.555279 33.1186744,73.555279 L13.7143525,73.555279 Z" id="Fill-15" fill="#242A47"></path>
            </g>
        </g>
    </g>
</svg>