<?xml version="1.0" encoding="UTF-8"?>
<svg width="256px" height="256px" viewBox="0 0 256 256" version="1.1" xmlns="http://www.w3.org/2000/svg" xmlns:xlink="http://www.w3.org/1999/xlink">
    <title>logo_dTusd_256x256</title>
    <defs>
        <linearGradient x1="8.63771005%" y1="18.0462988%" x2="100%" y2="95.9067793%" id="linearGradient-1">
            <stop stop-color="#FFFFFF" stop-opacity="0.896279502" offset="0%"></stop>
            <stop stop-color="#FFFFFF" offset="100%"></stop>
        </linearGradient>
    </defs>
    <g id="logo_dTusd_256x256" stroke="none" stroke-width="1" fill="none" fill-rule="evenodd">
        <g id="编组-3" fill-rule="nonzero">
            <g id="编组-8">
                <path d="M128,256 L128,256 C57.3983605,255.781248 0.218751812,198.601639 4.54747351e-13,128 L4.54747351e-13,128 C0.218751812,57.3983605 57.3983605,0.218751812 128,0 L128,0 C198.601639,0.218751812 255.781248,57.3983605 256,128 L256,128 C255.781248,198.601639 198.601639,255.781248 128,256 Z" id="Coin_BG" fill="#002868"></path>
                <path d="M190.293333,202.404103 L62.7528205,202.404103 C56.0535848,202.38607 50.6272638,196.959748 50.6092308,190.260513 L50.6092308,62.72 C50.6272638,56.0207643 56.0535848,50.5944433 62.7528205,50.5764103 L190.293333,50.5764103 C196.992569,50.5944433 202.41889,56.0207643 202.436923,62.72 L202.436923,190.260513 C202.41889,196.959748 196.992569,202.38607 190.293333,202.404103 L190.293333,202.404103 Z" id="BG" fill="#FFFFFF"></path>
                <path d="M156.028718,187.142564 C155.624684,187.124981 155.306284,186.792108 155.306666,186.387692 L155.306666,160.557949 C155.306284,160.153533 155.624684,159.82066 156.028718,159.803077 L166.957949,159.803077 C174.516603,159.803077 180.644103,165.930577 180.644103,173.489231 C180.644103,181.047885 174.516603,187.175385 166.957949,187.175385 L156.028718,187.175385 L156.028718,187.142564 Z M166.957949,181.694359 C171.09062,181.170568 174.188769,177.654963 174.188769,173.489231 C174.188769,169.323498 171.09062,165.807893 166.957949,165.284103 L162.428718,165.284103 C162.024684,165.301686 161.706284,165.634558 161.706666,166.038974 L161.706666,181.037949 C161.706666,181.436727 162.02994,181.76 162.428718,181.76 L167.02359,181.76 L166.957949,181.694359 Z" id="形状" fill="#002868"></path>
                <path d="M196.923077,143.261808 L56.0902564,143.261808 C54.9664278,143.261808 54.0553846,142.350495 54.0553846,141.226667 L54.0553846,64.1969231 C54.073399,58.6215112 58.5886907,54.1062195 64.1641026,54.0882051 L188.882051,54.0882051 C194.457463,54.1062195 198.972755,58.6215112 198.990769,64.1969231 L198.990769,141.259487 C198.982135,141.799191 198.759421,142.313352 198.371638,142.688825 C197.983855,143.064297 197.462779,143.270314 196.923077,143.261808 L196.923077,143.261808 Z" id="BG-2" fill="#002868"></path>
            </g>
            <path d="M80.2133333,187.142564 C79.8092994,187.124981 79.4908996,186.792108 79.4912821,186.387692 L79.4912821,165.973333 C79.4916645,165.568917 79.1732647,165.236045 78.7692308,165.218462 L71.5815385,165.218462 C71.1771223,165.218844 70.8442498,164.900444 70.8266667,164.49641 L70.8266667,160.557949 C70.8434125,160.148181 71.171771,159.819823 71.5815385,159.803077 L93.7353846,159.803077 C94.1451521,159.819823 94.4735105,160.148181 94.4902564,160.557949 L94.4902564,164.49641 C94.4726733,164.900444 94.1398008,165.218844 93.7353846,165.218462 L86.5805128,165.218462 C86.1707454,165.235207 85.8423869,165.563566 85.825641,165.973333 L85.825641,186.25641 C85.8260234,186.660826 85.5076237,186.993699 85.1035897,187.011282 L80.2133333,187.142564 Z" id="路径" fill="#002868"></path>
            <path d="M116.644103,160.525128 C116.64372,160.120712 116.96212,159.78784 117.366154,159.770256 L122.190769,159.770256 C122.600537,159.787002 122.928895,160.115361 122.945641,160.525128 L122.945641,174.441026 C122.945641,182.678974 118.285128,187.569231 110.867692,187.569231 C103.450256,187.569231 98.8882048,182.777436 98.8882048,174.441026 L98.8882048,160.525128 C98.8878227,160.120712 99.2062225,159.78784 99.6102564,159.770256 L104.434872,159.770256 C104.844639,159.787002 105.172998,160.115361 105.189744,160.525128 L105.189744,174.637949 C105.189744,178.707692 107.290256,181.595897 110.900513,181.595897 C114.510769,181.595897 116.611282,178.707692 116.611282,174.637949 L116.611282,160.525128 L116.644103,160.525128 Z" id="路径" fill="#002868"></path>
            <path d="M145.132308,168.697436 C144.644406,168.749397 144.188922,168.445741 144.049231,167.975385 C143.102674,165.814443 140.886203,164.495115 138.535385,164.693333 C136.008205,164.693333 133.874872,165.579487 133.874872,167.253333 C133.874872,168.927179 135.844103,169.878974 140.17641,170.535385 C146.740513,171.290256 150.547692,173.325128 150.547692,178.54359 C150.547692,184.418462 145.394872,187.50359 138.797949,187.50359 C133.087179,187.50359 128.164103,184.713846 127.409231,178.904615 C127.409231,178.346667 127.606154,178.149744 128.164103,178.149744 L132.594872,178.149744 C133.065082,178.097316 133.506105,178.386737 133.645128,178.838974 C134.607062,181.04939 136.893409,182.378661 139.290256,182.121026 C141.915897,182.121026 144.213333,181.169231 144.213333,179.101538 C144.213333,177.033846 141.784615,176.213333 136.96,175.589744 C131.413333,174.867692 127.540513,173.259487 127.540513,168.139487 C127.540513,163.019487 131.938462,159.37641 138.797949,159.37641 C144.165347,158.841646 149.074141,162.434826 150.186667,167.712821 C150.186667,168.270769 150.186667,168.631795 149.530256,168.631795 L145.099487,168.631795 L145.132308,168.697436 Z" id="路径" fill="#002868"></path>
            <path d="M133.973333,128.295385 L120.845128,128.295385 C120.444719,128.295385 120.06071,128.136323 119.777578,127.853191 C119.494446,127.570059 119.335385,127.18605 119.335385,126.785641 L119.335385,70.9907692 C119.335385,70.5903603 119.494446,70.2063511 119.777578,69.9232193 C120.06071,69.6400875 120.444719,69.4810256 120.845128,69.4810256 L133.973333,69.4810256 C134.807142,69.4810256 135.483077,70.1569609 135.483077,70.9907692 L135.483077,126.785641 C135.483077,127.619449 134.807142,128.295385 133.973333,128.295385 Z" id="_" fill="#FFFFFF"></path>
            <path d="M156.356923,85.7928205 L96.6235897,85.7928205 C95.7897814,85.7928205 95.1138462,85.1168853 95.1138462,84.2830769 L95.1138462,71.1548718 C95.1138462,70.3210634 95.7897814,69.6451282 96.6235897,69.6451282 L156.356923,69.6451282 C157.190731,69.6451282 157.866667,70.3210634 157.866667,71.1548718 L157.866667,84.2830769 C157.866667,85.1168853 157.190731,85.7928205 156.356923,85.7928205 Z" id="_2" fill="#FFFFFF"></path>
        </g>
        <g id="编组" transform="translate(154.000000, 154.000000)">
            <circle id="椭圆形" fill="url(#linearGradient-1)" cx="51" cy="51" r="51"></circle>
            <g id="编组-15" transform="translate(20.000000, 16.000000)">
                <path d="M8.19677659e-13,61.6550927 L8.19677659e-13,14.4471963 L30.5380915,14.4471963 C42.0868829,14.4471963 51.4822362,24.2532333 51.4822362,36.3059799 C51.4822362,48.3589675 42.0868829,58.1650044 30.5380915,58.1650044 L26.8706187,58.1650044 L26.8706187,48.8817215 L30.5380915,48.8817215 C37.1548226,48.8817215 42.5380565,43.2403642 42.5380565,36.3059799 C42.5380565,29.3720776 37.1548226,23.7307202 30.5380915,23.7307202 L8.94393862,23.7307202 L8.94393862,61.6550927 L8.19677659e-13,61.6550927 Z" id="Fill-13" fill="#FA9B00"></path>
                <path d="M13.7143525,73.555279 L13.7143525,29.3376129 L22.6585322,29.3376129 L22.6585322,64.2717551 L33.1186744,64.2717551 C47.6056377,64.2717551 59.3918255,51.93823 59.3918255,36.7776395 C59.3918255,21.61729 47.6056377,9.28328288 33.1186744,9.28328288 L11.8019259,9.28328288 L11.8019259,2.29816166e-14 L33.1186744,2.29816166e-14 C52.537698,2.29816166e-14 68.3362462,16.4984457 68.3362462,36.7773985 C68.3362462,57.0568333 52.537698,73.555279 33.1186744,73.555279 L13.7143525,73.555279 Z" id="Fill-15" fill="#242A47"></path>
            </g>
        </g>
    </g>
</svg>