<?xml version="1.0" encoding="UTF-8"?>
<svg width="256px" height="256px" viewBox="0 0 256 256" version="1.1" xmlns="http://www.w3.org/2000/svg" xmlns:xlink="http://www.w3.org/1999/xlink">
    <title>logo_dUsdt_256x256</title>
    <defs>
        <linearGradient x1="25%" y1="6.68571429%" x2="75%" y2="93.3142857%" id="linearGradient-1">
            <stop stop-color="#00EBA9" offset="0%"></stop>
            <stop stop-color="#02C18C" offset="100%"></stop>
        </linearGradient>
        <linearGradient x1="8.63771005%" y1="18.0462988%" x2="100%" y2="95.9067793%" id="linearGradient-2">
            <stop stop-color="#FFFFFF" stop-opacity="0.896279502" offset="0%"></stop>
            <stop stop-color="#FFFFFF" offset="100%"></stop>
        </linearGradient>
    </defs>
    <g id="logo_dUsdt_256x256" stroke="none" stroke-width="1" fill="none" fill-rule="evenodd">
        <g id="下载" fill-rule="nonzero">
            <circle id="椭圆形" fill="url(#linearGradient-1)" cx="128" cy="128" r="128"></circle>
            <path d="M192.656524,122.895509 C181.471804,118.689591 169.716157,116.157082 157.777031,115.38145 C146.480623,114.292456 146.774036,114.401355 146.774036,103.003217 C146.774036,99.373237 147.984366,98.7198406 151.285264,98.7561404 C162.288259,98.9376394 173.10787,98.7561404 184.000835,98.7561404 C186.89829,98.7561404 187.961913,97.9575448 187.888559,95.1261602 C187.705176,88.8099946 187.631823,82.4575293 187.888559,76.1050639 C187.888559,72.4750837 186.78826,71.494989 183.193948,71.5303256 C165.699187,71.5303256 148.241102,71.5303256 130.746341,71.5303256 C113.25158,71.5303256 95.7934951,71.5303256 78.2987338,71.5303256 C74.631069,71.5303256 73.3840629,72.3298845 73.5674462,76.0687641 C73.8608594,82.2034306 73.8241827,88.4106968 73.5674462,94.5453634 C73.5674462,97.8123455 74.7044223,98.6109412 77.7852607,98.5746414 C86.2575665,98.5746414 94.7298723,98.5746414 103.238855,98.5746414 C114.571939,98.5746414 114.461909,98.5746414 114.535262,109.82758 C114.535262,113.203462 113.875083,114.473955 110.134065,114.764353 C95.5819039,115.207911 81.1894979,117.902491 67.4791225,122.75031 C62.637805,124.674199 56.2560681,126.38029 56.476128,132.805355 C56.6961879,139.23042 62.7478349,140.464613 67.4791225,142.315903 C81.02423,147.109465 95.2427899,149.779437 109.620592,150.22926 C113.288256,150.483358 114.571939,151.390853 114.535262,155.274932 C114.315203,170.847547 114.535262,186.456462 114.315203,202.029077 C114.315203,206.239854 115.598885,207.219949 119.559963,207.03845 C126.895293,206.748052 134.450683,206.784351 141.896042,207.03845 C145.563707,207.03845 146.62733,206.167255 146.553977,202.500975 C146.333917,186.746861 146.553977,170.992747 146.553977,155.311232 C146.553977,151.463453 147.654276,150.519658 151.431971,150.22926 C165.64611,149.710918 179.685959,146.953856 193.02329,142.061804 C197.571194,140.210514 203.366105,138.431824 203.293441,132.514956 C203.219398,126.598089 197.204428,124.783099 192.656524,122.895509 Z M193.059967,134.983343 C185.208307,137.638282 177.05145,139.308988 168.780025,139.956416 C155.896124,141.370955 142.938596,142.025508 129.976131,141.916605 C110.779193,142.348624 91.5923617,140.693113 72.7605599,136.979832 C69.9183331,136.256536 67.1352465,135.322193 64.4349607,134.184747 C62.0876552,133.277252 62.2343618,131.93416 64.1782242,130.554767 C68.0577643,127.981864 72.2791213,125.953954 76.7216379,124.529 C87.7504308,121.002758 99.1413378,118.701721 110.684214,117.668337 C113.875083,117.305339 114.351879,118.575832 114.351879,121.298318 C114.351879,125.908392 114.718646,130.518467 114.755322,135.128542 C114.755322,137.27023 115.415502,138.141426 117.689454,138.177725 C126.149534,138.177725 134.609615,138.371324 143.069695,138.758522 C146.113857,138.758522 146.73736,137.596929 146.73736,134.801844 C146.73736,130.191769 146.73736,125.581694 146.73736,120.935319 C146.73736,119.156629 146.73736,117.305339 149.414755,117.777237 C164.085414,119.483327 178.756074,121.951714 192.289757,128.884976 L193.169997,129.393173 C194.453679,130.228069 196.470895,130.845165 196.397542,132.369757 C196.324188,133.894349 194.527033,134.438846 193.096643,134.983343 L193.059967,134.983343 Z" id="形状" fill="#FDFDFD"></path>
        </g>
        <g id="编组" transform="translate(154.000000, 154.000000)">
            <circle id="椭圆形" fill="url(#linearGradient-2)" cx="51" cy="51" r="51"></circle>
            <g id="编组-15" transform="translate(20.000000, 16.000000)">
                <path d="M8.19677659e-13,61.6550927 L8.19677659e-13,14.4471963 L30.5380915,14.4471963 C42.0868829,14.4471963 51.4822362,24.2532333 51.4822362,36.3059799 C51.4822362,48.3589675 42.0868829,58.1650044 30.5380915,58.1650044 L26.8706187,58.1650044 L26.8706187,48.8817215 L30.5380915,48.8817215 C37.1548226,48.8817215 42.5380565,43.2403642 42.5380565,36.3059799 C42.5380565,29.3720776 37.1548226,23.7307202 30.5380915,23.7307202 L8.94393862,23.7307202 L8.94393862,61.6550927 L8.19677659e-13,61.6550927 Z" id="Fill-13" fill="#FA9B00"></path>
                <path d="M13.7143525,73.555279 L13.7143525,29.3376129 L22.6585322,29.3376129 L22.6585322,64.2717551 L33.1186744,64.2717551 C47.6056377,64.2717551 59.3918255,51.93823 59.3918255,36.7776395 C59.3918255,21.61729 47.6056377,9.28328288 33.1186744,9.28328288 L11.8019259,9.28328288 L11.8019259,2.29816166e-14 L33.1186744,2.29816166e-14 C52.537698,2.29816166e-14 68.3362462,16.4984457 68.3362462,36.7773985 C68.3362462,57.0568333 52.537698,73.555279 33.1186744,73.555279 L13.7143525,73.555279 Z" id="Fill-15" fill="#242A47"></path>
            </g>
        </g>
    </g>
</svg>