<?xml version="1.0" encoding="UTF-8"?>
<svg width="256px" height="256px" viewBox="0 0 256 256" version="1.1" xmlns="http://www.w3.org/2000/svg" xmlns:xlink="http://www.w3.org/1999/xlink">
    <title>logo_dUsdc_256x256</title>
    <defs>
        <linearGradient x1="8.63771005%" y1="18.0462988%" x2="100%" y2="95.9067793%" id="linearGradient-1">
            <stop stop-color="#FFFFFF" stop-opacity="0.896279502" offset="0%"></stop>
            <stop stop-color="#FFFFFF" offset="100%"></stop>
        </linearGradient>
    </defs>
    <g id="logo_dUsdc_256x256" stroke="none" stroke-width="1" fill="none" fill-rule="evenodd">
        <g id="编组-3" fill-rule="nonzero">
            <g id="下载-(1)" transform="translate(-0.000000, -0.000000)">
                <ellipse id="椭圆形" fill="#2674CA" cx="126.117647" cy="128" rx="126.117647" ry="128"></ellipse>
                <path d="M31.693913,132.229565 C28.7059066,132.229565 26.2836488,129.771154 26.2836488,126.738551 C26.4528557,84.8959178 51.7858674,47.4029913 90.1832566,32.1669565 C92.9246767,31.2498066 95.8927084,32.6784399 96.9275996,35.4132805 C97.9624908,38.1481212 96.6997227,41.2258787 94.0581756,42.4069565 C59.8122117,55.9871458 37.2165917,89.4229438 37.0676215,126.738551 C37.0676894,129.756724 34.6676337,132.209172 31.693913,132.229565 L31.693913,132.229565 Z" id="路径" fill="#FFFFFF"></path>
                <path d="M220.577937,132.229565 C217.58993,132.229565 215.167673,129.771154 215.167673,126.738551 C215.179505,90.6881381 194.072685,58.0814332 161.467144,43.7797101 C159.549342,43.1064492 158.164018,41.4005891 157.879063,39.3614197 C157.594108,37.3222503 158.457444,35.2927105 160.115161,34.1047776 C161.772878,32.9168446 163.946188,32.7703 165.744177,33.7252174 C202.321709,49.7616565 226.001559,86.3365765 225.988207,126.775652 C225.968108,129.793757 223.551725,132.229565 220.577937,132.229565 L220.577937,132.229565 Z" id="路径" fill="#FFFFFF"></path>
                <path d="M31.693913,132.229565 C28.7059066,132.229565 26.2836488,129.771154 26.2836488,126.738551 C26.4528557,84.8959178 51.7858674,47.4029913 90.1832566,32.1669565 C92.9246767,31.2498066 95.8927084,32.6784399 96.9275996,35.4132805 C97.9624908,38.1481212 96.6997227,41.2258787 94.0581756,42.4069565 C59.8122117,55.9871458 37.2165917,89.4229438 37.0676215,126.738551 C37.0676894,129.756724 34.6676337,132.209172 31.693913,132.229565 L31.693913,132.229565 Z" id="路径" fill="#FFFFFF"></path>
                <path d="M220.577937,132.229565 C217.58993,132.229565 215.167673,129.771154 215.167673,126.738551 C215.179505,90.6881381 194.072685,58.0814332 161.467144,43.7797101 C159.549342,43.1064492 158.164018,41.4005891 157.879063,39.3614197 C157.594108,37.3222503 158.457444,35.2927105 160.115161,34.1047776 C161.772878,32.9168446 163.946188,32.7703 165.744177,33.7252174 C202.321709,49.7616565 226.001559,86.3365765 225.988207,126.775652 C225.968108,129.793757 223.551725,132.229565 220.577937,132.229565 L220.577937,132.229565 Z" id="路径" fill="#FFFFFF"></path>
                <path d="M92.1207161,224.241159 C91.4577981,224.241159 90.8007693,224.114863 90.1832566,223.870145 C51.7858674,208.63411 26.4528557,171.141184 26.2836488,129.298551 C26.2836488,126.224966 28.7386398,123.733333 31.7670247,123.733333 C34.7954096,123.733333 37.2504007,126.224966 37.2504007,129.298551 C37.3993709,166.614158 59.9949909,200.049956 94.2409548,213.630145 C96.6664456,214.584081 98.0797283,217.15484 97.6057509,219.750704 C97.1317734,222.346568 94.9047183,224.232651 92.3034953,224.241159 L92.1207161,224.241159 Z" id="路径" fill="#FFFFFF"></path>
                <path d="M163.587383,222.794288 C161.014971,222.805228 158.790615,220.976379 158.267373,218.420129 C157.744131,215.86388 159.066707,213.287169 161.430588,212.257391 C194.036129,197.955668 215.142949,165.348963 215.131117,129.298551 C215.131117,126.224966 217.586108,123.733333 220.614493,123.733333 C223.642878,123.733333 226.097869,126.224966 226.097869,129.298551 C226.092348,169.764219 202.364648,206.346451 165.744177,222.348986 C165.063212,222.646829 164.32888,222.798414 163.587383,222.794288 L163.587383,222.794288 Z" id="路径" fill="#FFFFFF"></path>
                <path d="M148.562933,159.091014 C148.643842,154.193482 146.725343,149.480076 143.262336,146.068406 C138.164828,141.597773 132.16242,138.317468 125.678977,136.45913 C116.175196,134.026171 107.394552,129.290239 100.089889,122.657391 C94.2115159,116.512748 91.1017638,108.172411 91.4992668,99.6173913 C91.1514222,91.2588698 93.9927298,83.0861285 99.4318841,76.8 C105.215755,70.6558707 113.02047,66.8800969 121.365388,66.1889855 L121.365388,47.6382609 L134.562046,47.6382609 L134.562046,66.4486957 C143.022946,67.2365343 150.825018,71.4161246 156.239659,78.0614493 C161.677285,85.5604387 164.401424,94.7327518 163.952941,104.032464 L147.466257,104.032464 C147.753025,97.7652875 145.892997,91.5906415 142.202217,86.5576812 C138.670071,82.0743041 133.228601,79.5890956 127.579881,79.8794203 C122.268051,79.1972604 116.939394,81.0086311 113.103931,84.8002312 C109.268467,88.5918313 107.344148,93.9504883 107.876283,99.3576812 C107.669275,104.321813 109.510733,109.148795 112.957545,112.677101 C118.322722,117.147941 124.548021,120.433412 131.235465,122.323478 C140.612764,124.936575 149.269526,129.710454 156.532106,136.273623 C162.237117,142.357397 165.224812,150.555307 164.793725,158.942609 C165.218999,167.546168 162.108153,175.943182 156.203103,182.131014 C149.715155,188.19958 141.359052,191.804256 132.551475,192.333913 L132.551475,208.621449 L119.427928,208.621449 L119.427928,192.445217 C110.603676,191.764883 102.284378,188.002034 95.8859676,181.797101 C89.7689571,175.712464 86.8201194,166.795749 87.0394544,155.046957 L87.0394544,154.638841 L102.904689,154.638841 C102.904689,163.345314 105.073669,169.528889 109.411628,173.189565 C113.860134,176.935851 119.498489,178.913678 125.276863,178.754783 C131.318959,179.11511 137.287271,177.258387 142.092549,173.523478 C146.343189,169.99551 148.734654,164.661248 148.562933,159.091014 L148.562933,159.091014 Z" id="路径" fill="#FFFFFF"></path>
            </g>
        </g>
        <g id="编组" transform="translate(154.000000, 154.000000)">
            <circle id="椭圆形" fill="url(#linearGradient-1)" cx="51" cy="51" r="51"></circle>
            <g id="编组-15" transform="translate(20.000000, 16.000000)">
                <path d="M8.19677659e-13,61.6550927 L8.19677659e-13,14.4471963 L30.5380915,14.4471963 C42.0868829,14.4471963 51.4822362,24.2532333 51.4822362,36.3059799 C51.4822362,48.3589675 42.0868829,58.1650044 30.5380915,58.1650044 L26.8706187,58.1650044 L26.8706187,48.8817215 L30.5380915,48.8817215 C37.1548226,48.8817215 42.5380565,43.2403642 42.5380565,36.3059799 C42.5380565,29.3720776 37.1548226,23.7307202 30.5380915,23.7307202 L8.94393862,23.7307202 L8.94393862,61.6550927 L8.19677659e-13,61.6550927 Z" id="Fill-13" fill="#FA9B00"></path>
                <path d="M13.7143525,73.555279 L13.7143525,29.3376129 L22.6585322,29.3376129 L22.6585322,64.2717551 L33.1186744,64.2717551 C47.6056377,64.2717551 59.3918255,51.93823 59.3918255,36.7776395 C59.3918255,21.61729 47.6056377,9.28328288 33.1186744,9.28328288 L11.8019259,9.28328288 L11.8019259,2.29816166e-14 L33.1186744,2.29816166e-14 C52.537698,2.29816166e-14 68.3362462,16.4984457 68.3362462,36.7773985 C68.3362462,57.0568333 52.537698,73.555279 33.1186744,73.555279 L13.7143525,73.555279 Z" id="Fill-15" fill="#242A47"></path>
            </g>
        </g>
    </g>
</svg>