<?xml version="1.0" encoding="UTF-8"?>
<svg width="256px" height="256px" viewBox="0 0 256 256" version="1.1" xmlns="http://www.w3.org/2000/svg" xmlns:xlink="http://www.w3.org/1999/xlink">
    <title>logo_usdx_256x256</title>
    <defs>
        <linearGradient x1="8.63771005%" y1="18.0462988%" x2="100%" y2="95.9067793%" id="linearGradient-1">
            <stop stop-color="#FFFFFF" stop-opacity="0.896279502" offset="0%"></stop>
            <stop stop-color="#FFFFFF" offset="100%"></stop>
        </linearGradient>
    </defs>
    <g id="logo_usdx_256x256" stroke="none" stroke-width="1" fill="none" fill-rule="evenodd">
        <path d="M140.674496,0 C203.737197,0 254.860558,57.308135 254.860558,128 C254.860558,198.693081 203.737197,256 140.674496,256 L140.674496,256 L132.810365,256 L132.810365,193.965621 L132.810365,193.965621 L134.062736,193.949864 L134.062736,193.949864 L134.697236,193.938878 C172.712265,193.156033 179.355353,163.237744 176.8482,142.457103 C174.360566,121.82598 169.515428,118.468499 161.749978,114.247944 C158.484959,112.473904 152.457103,110.353021 146.264237,108.424981 L145.258953,108.114102 C137.044018,105.590449 128.785964,103.456172 126.518626,102.964767 C122.446671,102.081027 118.695702,96.0443693 128.406581,95.9118692 C132.730682,95.8527668 139.132586,95.5979158 145.699521,95.2872574 L146.859716,95.2318845 L146.859716,95.2318845 L148.021001,95.1755239 C148.408018,95.1565914 148.794827,95.1375228 149.18104,95.1183465 L150.337497,95.0605231 C161.491749,94.4989927 171.816544,93.8708807 171.816544,93.8708807 L171.816544,93.8708807 L172.445501,59.1193755 C162.745465,57.8575851 147.788217,59.0099717 132.810365,58.6161181 L132.810365,58.6161181 L132.810365,0 Z M105.607815,0 L105.607815,58.7413246 C85.0439629,59.797679 66.7605021,67.1022052 63.4925942,85.8442895 C57.1492116,122.216186 68.7597335,133.364432 78.867663,138.93187 C82.9103739,141.158358 90.1365525,143.408964 97.352591,145.308156 L98.4345215,145.590352 C108.88473,148.291863 118.977891,150.215047 118.977891,150.215047 C118.977891,150.215047 118.978552,150.21567 118.979845,150.216905 L119.042757,150.279629 C119.57649,150.82741 123.024832,154.70312 114.966753,155.857851 C110.130364,156.714519 101.338793,156.998945 92.412695,157.027179 L91.0389032,157.029544 C77.529647,157.033763 64.1609251,156.488746 64.1609251,156.488746 L64.1609251,156.488746 L62.8231109,191.749587 C62.8231109,191.749587 75.7772085,192.914129 105.607815,193.864727 L105.607815,193.864727 L105.607815,256 L29.045895,256 C16.3187995,256 6,245.115539 6,231.688047 L6,231.688047 L6,24.3119527 C6,10.8856768 16.3187995,0 29.045895,0 L29.045895,0 L105.607815,0 Z" id="形状结合" fill="#100E28"></path>
        <g id="编组" transform="translate(154.000000, 154.000000)">
            <circle id="椭圆形" fill="url(#linearGradient-1)" cx="51" cy="51" r="51"></circle>
            <g id="编组-15" transform="translate(20.000000, 16.000000)">
                <path d="M8.19677659e-13,61.6550927 L8.19677659e-13,14.4471963 L30.5380915,14.4471963 C42.0868829,14.4471963 51.4822362,24.2532333 51.4822362,36.3059799 C51.4822362,48.3589675 42.0868829,58.1650044 30.5380915,58.1650044 L26.8706187,58.1650044 L26.8706187,48.8817215 L30.5380915,48.8817215 C37.1548226,48.8817215 42.5380565,43.2403642 42.5380565,36.3059799 C42.5380565,29.3720776 37.1548226,23.7307202 30.5380915,23.7307202 L8.94393862,23.7307202 L8.94393862,61.6550927 L8.19677659e-13,61.6550927 Z" id="Fill-13" fill="#FA9B00"></path>
                <path d="M13.7143525,73.555279 L13.7143525,29.3376129 L22.6585322,29.3376129 L22.6585322,64.2717551 L33.1186744,64.2717551 C47.6056377,64.2717551 59.3918255,51.93823 59.3918255,36.7776395 C59.3918255,21.61729 47.6056377,9.28328288 33.1186744,9.28328288 L11.8019259,9.28328288 L11.8019259,2.29816166e-14 L33.1186744,2.29816166e-14 C52.537698,2.29816166e-14 68.3362462,16.4984457 68.3362462,36.7773985 C68.3362462,57.0568333 52.537698,73.555279 33.1186744,73.555279 L13.7143525,73.555279 Z" id="Fill-15" fill="#242A47"></path>
            </g>
        </g>
    </g>
</svg>